<?xml version="1.0" standalone="no"?>
<!DOCTYPE svg PUBLIC "-//W3C//DTD SVG 1.1//EN" "http://www.w3.org/Graphics/SVG/1.1/DTD/svg11.dtd" >
<svg xmlns="http://www.w3.org/2000/svg" xmlns:xlink="http://www.w3.org/1999/xlink" version="1.1">
<metadata></metadata>
<defs>
<font id="pf_regal_text_probold" horiz-adv-x="1218" >
<font-face units-per-em="2048" ascent="1536" descent="-512" />
<missing-glyph horiz-adv-x="512" />
<glyph horiz-adv-x="0" />
<glyph horiz-adv-x="682" />
<glyph unicode=" "  horiz-adv-x="512" />
<glyph unicode="&#x09;" horiz-adv-x="512" />
<glyph unicode="&#xa0;" horiz-adv-x="512" />
<glyph unicode="!" horiz-adv-x="679" d="M166 1310.5q8 36.5 25.5 68t57 52.5t91.5 21q54 0 93.5 -20.5t57 -52.5t24.5 -69.5t-3 -72.5q-6 -88 -66.5 -415.5t-66.5 -415.5h-70l-141 837q-10 31 -2 67.5zM199 123q0 61 42 105t101 44q62 0 106 -44t44 -105q0 -60 -44.5 -104t-105.5 -44q-58 0 -100.5 44t-42.5 104 z" />
<glyph unicode="&#x22;" horiz-adv-x="724" d="M104 1343q0 44 25.5 78.5t85.5 34.5q55 0 83 -30.5t28 -75.5q0 -21 -2 -29l-72 -447h-70q-23 125 -71 412q-7 32 -7 57zM395 1343q0 42 26.5 77.5t84.5 35.5q56 0 84 -30.5t28 -75.5q0 -21 -2 -29l-73 -447h-68l-74 412q-6 27 -6 57z" />
<glyph unicode="#" d="M96 442v99h219l50 276h-205v98h223l61 361h111l-61 -361h294l62 361h113q-33 -175 -64 -361h199v-98h-215l-49 -276h198v-99h-215l-65 -383h-115q21 111 70 383h-293l-70 -383h-113l70 383h-205zM428 541h293l49 276h-293z" />
<glyph unicode="$" d="M63 270q0 63 39 101.5t93 38.5q70 0 109.5 -52.5t39.5 -130.5q0 -74 -31 -131q75 -41 170 -47v547q-56 27 -92 46t-85.5 49t-80.5 59t-61 66t-44 80.5t-14 92.5q0 154 104 249.5t273 123.5v141h68v-1677h-68v151q-202 13 -311 98t-109 195zM362 1112q0 -94 121 -166v332 q-121 -47 -121 -166zM627 -174v1677h67v-135q178 -13 275.5 -83t97.5 -167q0 -60 -36.5 -95.5t-88.5 -35.5q-56 0 -99.5 44t-43.5 122q0 70 22 123q-68 20 -127 22v-452q57 -27 88 -42.5t84 -45.5t83.5 -53.5t68.5 -59.5t58.5 -71t35 -81.5t14.5 -97.5q0 -165 -116.5 -273.5 t-315.5 -135.5v-160h-67zM694 72q73 24 115.5 77t42.5 125q0 70 -41.5 122t-116.5 96v-420z" />
<glyph unicode="%" horiz-adv-x="1677" d="M70 1008q0 80 21.5 151t63.5 128.5t111.5 91.5t157.5 34q95 0 166 -34t110.5 -93t58.5 -128.5t19 -149.5q0 -60 -12.5 -117t-40 -110t-68 -93t-101 -64t-134.5 -24q-91 0 -160.5 34t-110.5 92t-61 129.5t-20 152.5zM299 1008q0 -84 6 -145t19.5 -108.5t38.5 -71.5t61 -24 q37 0 62 24t38.5 72t19 108t5.5 143q0 176 -27 263t-100 87q-123 0 -123 -348zM432 -80l727 1555h72l-725 -1555h-74zM895 393q0 80 21.5 151t63.5 129t111.5 92t157.5 34q95 0 166 -34t111 -93.5t59 -129t19 -149.5q0 -76 -20.5 -146t-62 -129.5t-112.5 -95.5t-162 -36 t-160.5 33.5t-110.5 92t-61 129.5t-20 152zM1124 393q0 -84 6 -145t19.5 -108.5t38.5 -71t61 -23.5q37 0 62 24t38.5 71.5t19 107.5t5.5 143q0 176 -27 263t-100 87q-123 0 -123 -348z" />
<glyph unicode="&#x26;" horiz-adv-x="1613" d="M98 322q0 132 77.5 248t221.5 188q-155 152 -155 313q0 156 117.5 258.5t293.5 102.5q125 0 211 -61t86 -161q0 -94 -77 -176t-193 -139q30 -27 139 -115t174 -145q214 -187 303 -340q74 104 74 213q0 115 -61.5 196t-175.5 84l-7 56q87 53 174 53q118 0 187 -70t69 -182 q0 -108 -59 -222.5t-164 -213.5q43 -94 43 -193q0 -108 -49.5 -211t-150.5 -188l-48 25q29 65 29 137q0 138 -76 280q-206 -122 -442 -122q-261 0 -401 100.5t-140 284.5zM350 473q0 -120 68 -213t174 -139.5t227 -46.5q117 0 232 41q-38 62 -99 130.5t-105 109t-124 112.5 q-185 170 -270 238q-103 -100 -103 -232zM508 1196q0 -64 31.5 -129.5t83.5 -116.5q116 94 116 254q0 63 -26.5 106.5t-83.5 43.5q-60 0 -90.5 -45t-30.5 -113z" />
<glyph unicode="'" horiz-adv-x="473" d="M125 1343q0 42 26.5 77.5t84.5 35.5q56 0 84 -30.5t28 -75.5q0 -21 -2 -29l-74 -447h-69q-37 218 -72 412q-6 27 -6 57z" />
<glyph unicode="(" horiz-adv-x="747" d="M119 535q0 277 140.5 542.5t399.5 440.5l33 -33q-162 -166 -247 -415.5t-85 -518.5t83.5 -512t244.5 -412l-31 -41q-177 113 -299.5 268.5t-180.5 327t-58 353.5z" />
<glyph unicode=")" horiz-adv-x="747" d="M59 1485l31 33q174 -117 298 -281.5t183.5 -342.5t59.5 -359q0 -182 -58 -353.5t-180 -327t-299 -268.5l-33 41q163 168 246.5 411t83.5 513q0 269 -85 518.5t-247 415.5z" />
<glyph unicode="*" horiz-adv-x="868" d="M111 1176q0 44 24.5 73t57.5 29q23 0 53 -21l155 -112l-14 -45q-121 -2 -184 -2q-50 0 -71 19t-21 59zM199 903q0 30 39 60l153 114l39 -26l-41 -170q-10 -41 -32.5 -59.5t-47.5 -18.5q-52 0 -81 32t-29 68zM346 1378q0 33 29 53.5t67 20.5q41 0 65.5 -20.5t24.5 -53.5 q0 -9 -6 -30l-61 -189h-47q-13 39 -33 92t-29.5 82t-9.5 45zM455 1051l39 26l153 -114q39 -30 39 -60q0 -36 -29.5 -68t-81.5 -32q-25 0 -47 18.5t-32 59.5zM481 1145l156 112q30 21 53 21q33 0 57.5 -29t24.5 -73q0 -40 -21 -59t-71 -19q-63 0 -184 2z" />
<glyph unicode="+" d="M178 547v123h375v368h127v-368h371v-123h-371v-379h-127v379h-375z" />
<glyph unicode="," horiz-adv-x="505" d="M86 -301q59 61 104 142.5t48 152.5q-61 6 -97.5 45t-36.5 98q0 60 43 106t107 46q72 0 115 -51t43 -125q0 -122 -79.5 -251.5t-209.5 -211.5z" />
<glyph unicode="-" horiz-adv-x="696" d="M82 418v143h532v-143h-532z" />
<glyph unicode="." horiz-adv-x="493" d="M94 135q0 64 44.5 109t107.5 45q64 0 108.5 -44.5t44.5 -109.5q0 -63 -44.5 -107t-108.5 -44q-63 0 -107.5 44t-44.5 107z" />
<glyph unicode="/" horiz-adv-x="681" d="M0 -121l555 1612h125l-555 -1612h-125z" />
<glyph unicode="0" d="M74 676q0 107 19.5 207t62 190.5t104 157t152 106t198.5 39.5q98 0 179.5 -27.5t139.5 -77.5t101.5 -115.5t69 -145t37.5 -162t12 -170.5q0 -104 -18.5 -202.5t-60.5 -190.5t-103.5 -160.5t-153 -110t-203.5 -41.5q-113 0 -204.5 39t-152.5 105.5t-102 157.5t-59 191 t-18 210zM393 672q0 -149 11 -260.5t35.5 -198t68.5 -130.5t106 -44q61 0 104 45t67 132t34 197.5t10 258.5q0 152 -10 263t-34 199t-67.5 132.5t-107.5 44.5q-217 0 -217 -639z" />
<glyph unicode="1" d="M285 1278l460 104q3 -2 17 -16v-1165q0 -67 23 -91.5t83 -37.5q33 -7 33 -43v-29h-575v27q0 33 36 45q33 9 48.5 15t31 19.5t20.5 35t5 57.5v905q0 37 -12.5 59.5t-31.5 29.5t-42 11t-42.5 4.5t-33.5 9t-16 25.5z" />
<glyph unicode="2" d="M74 57q100 81 177 148.5t156 146.5t134 152t100 152.5t67.5 163t22.5 169.5q0 135 -58.5 217t-172.5 82q-39 0 -85 -13.5t-77 -39.5q36 -24 55 -63t19 -80q0 -57 -38 -103.5t-104 -46.5q-56 0 -88 38t-32 91q0 25 8.5 54t27 64.5t53.5 68t82 59.5t118.5 43t158.5 16 q115 0 204 -31t141.5 -84.5t79 -119t26.5 -140.5q0 -90 -50 -190.5t-124.5 -186t-175.5 -173t-189.5 -150.5t-179.5 -119q4 -4 4 -6l762 76l24 -29l-47 -223h-983z" />
<glyph unicode="3" d="M78 285q0 90 72.5 148.5t171.5 66.5q2 -2 13.5 -18.5t14.5 -18.5q-14 -28 -23.5 -76t-9.5 -84q0 -47 11.5 -91t35 -83t66 -62.5t98.5 -23.5q63 0 109 26.5t71.5 71.5t37.5 98t12 113q0 169 -83.5 254.5t-232.5 85.5q-52 0 -108 -12l-12 63q203 50 291.5 131t88.5 222 q0 96 -57 151.5t-147 55.5q-74 0 -133 -41q53 -53 53 -125q0 -59 -38 -102.5t-104 -43.5q-58 0 -90 35.5t-32 89.5q0 29 11 61t40.5 68.5t74 64.5t120.5 47t171 19q98 0 177 -20t128 -52t81.5 -73.5t45.5 -82t13 -81.5q0 -114 -95.5 -204.5t-269.5 -114.5v-9 q194 -9 312 -112t118 -254q0 -175 -148 -287.5t-378 -112.5q-220 0 -348.5 88t-128.5 224z" />
<glyph unicode="4" d="M47 354v64q368 586 551 936h346l12 -31q-178 -241 -436 -511t-399 -388h526v319q42 18 137 55t144 58l14 -6v-426h184v-70h-184v-155q0 -43 15.5 -69.5t37.5 -36.5t44 -17t37.5 -20.5t15.5 -37.5v-18h-584v16q0 26 14.5 39t35 19.5t40.5 15.5t34.5 35t14.5 70v159h-600z " />
<glyph unicode="5" d="M90 270q0 95 71 156.5t173 67.5l33 -41q-39 -58 -39 -150q0 -47 11.5 -91t35 -83.5t66 -63.5t98.5 -24q61 0 106.5 30t70.5 80t36.5 106t11.5 118q0 174 -78.5 259t-216.5 85q-108 0 -205 -43q-30 10 -57 16l92 629l737 63l25 -28l-49 -207h-668l-55 -397q156 69 332 69 q206 0 336 -111.5t130 -301.5q0 -187 -147.5 -310t-394.5 -123q-209 0 -332 82.5t-123 212.5z" />
<glyph unicode="6" d="M98 469q0 156 65.5 300.5t180.5 260t269.5 205t336.5 145.5l23 -55q-292 -139 -434 -358.5t-142 -530.5q0 -401 217 -401q57 0 99 32t65 87t34 118.5t11 135.5q0 67 -16 125.5t-49 106.5t-89.5 75.5t-131.5 27.5l-9 54q90 34 187 34q168 0 286.5 -108.5t118.5 -292.5 q0 -92 -36 -174t-101.5 -144.5t-164 -99.5t-216.5 -37q-132 0 -231 38.5t-157.5 107t-87 156t-28.5 192.5z" />
<glyph unicode="7" d="M182 1135l49 217h846l27 -37q-283 -502 -520 -1319l-357 -19l-20 31q323 637 745 1153l-743 -53z" />
<glyph unicode="8" d="M102 319q0 110 78 212.5t205 154.5q-112 69 -175 147t-63 183q0 164 133.5 262t331.5 98q113 0 210.5 -32.5t163 -104t65.5 -170.5q0 -96 -69.5 -176.5t-180.5 -114.5q70 -38 121.5 -74.5t101 -86.5t76 -112.5t26.5 -133.5q0 -123 -71 -215t-188.5 -137.5t-264.5 -45.5 q-93 0 -180 21.5t-159.5 62.5t-116.5 109t-44 153zM315 350q0 -136 79 -221.5t218 -85.5q110 0 174 68.5t64 162.5q0 26 -6 50t-14.5 44t-27 42t-32 37t-42.5 36t-46 33t-54.5 33.5t-56 32t-62.5 34t-63 33.5q-67 -66 -99 -145.5t-32 -153.5zM401 1110q0 -38 20.5 -75 t49.5 -64.5t77.5 -58t87.5 -50.5t97 -47q105 95 105 256q0 102 -56.5 169t-175.5 67q-97 0 -151 -59t-54 -138z" />
<glyph unicode="9" d="M94 924q0 190 141.5 321t376.5 131q132 0 231 -38t157.5 -106.5t87 -155.5t28.5 -193q0 -155 -65.5 -300t-181 -261t-271 -206t-336.5 -145l-22 54q293 143 435 362t142 531q0 188 -53.5 292.5t-163.5 104.5q-57 0 -99 -31.5t-65 -85.5t-34 -117t-11 -135q0 -62 17 -120 t50 -106.5t90 -78t130 -29.5l8 -55q-92 -35 -188 -35q-80 0 -152.5 27t-128.5 76.5t-89.5 127t-33.5 171.5z" />
<glyph unicode=":" horiz-adv-x="493" d="M94 135q0 64 44.5 109t107.5 45q64 0 108.5 -44.5t44.5 -109.5q0 -63 -44.5 -107t-108.5 -44q-63 0 -107.5 44t-44.5 107zM94 702q0 64 44.5 109t107.5 45q64 0 108.5 -44.5t44.5 -109.5q0 -63 -44.5 -107t-108.5 -44q-63 0 -107.5 44t-44.5 107z" />
<glyph unicode=";" horiz-adv-x="507" d="M86 -301q59 61 104 142.5t48 152.5q-61 6 -97.5 45t-36.5 98q0 60 43 106t107 46q72 0 115 -51t43 -125q0 -122 -79.5 -251.5t-209.5 -211.5zM109 702q0 64 45 109t108 45q64 0 109 -45t45 -109q0 -63 -45 -107t-109 -44q-63 0 -108 44t-45 107z" />
<glyph unicode="&#x3c;" d="M113 555v88l979 440v-139l-789 -342l789 -342v-143q-179 79 -509.5 227.5t-469.5 210.5z" />
<glyph unicode="=" d="M182 385v123h869v-123h-869zM182 707v124h869v-124h-869z" />
<glyph unicode="&#x3e;" d="M113 117v143l786 342q-393 172 -786 342v139l979 -440v-88q-179 -79 -509.5 -227.5t-469.5 -210.5z" />
<glyph unicode="?" horiz-adv-x="1132" d="M129 1186q0 116 118.5 188t321.5 72q88 0 165 -16t143 -49t104.5 -92.5t38.5 -139.5q0 -62 -27.5 -117.5t-72 -96.5t-98 -79t-107 -70.5t-98 -64t-72 -68t-27.5 -73.5q0 -80 100 -160l-32 -55q-174 26 -269.5 103.5t-95.5 180.5q0 44 27.5 88.5t71 84t96.5 79t106 78.5 t96.5 76.5t71 79.5t27.5 82q0 72 -60 106.5t-141 34.5q-73 0 -141 -21q28 -47 28 -112q0 -72 -44 -120t-115 -48q-47 0 -81 34.5t-34 94.5zM367 113q0 63 42 106t101 43q62 0 104.5 -43t42.5 -106q0 -60 -43 -103t-104 -43q-59 0 -101 43t-42 103z" />
<glyph unicode="@" horiz-adv-x="2045" d="M145 598q0 184 69.5 346.5t190.5 279.5t293.5 185t370.5 68q179 0 331 -49.5t264 -142.5t175.5 -235.5t63.5 -318.5q0 -242 -135 -393.5t-363 -151.5q-233 0 -254 150h-12q-123 -131 -308 -131q-101 0 -167 51t-66 145q0 63 26.5 112.5t70 81t102 52t117.5 29t122 8.5 q70 0 99 -4v121q0 176 -150 176q-72 0 -123 -31q43 -49 43 -98q0 -47 -37 -82t-96 -35q-47 0 -73.5 28t-26.5 70q0 36 18 71.5t57 70t114 55.5t175 21q97 0 167 -23.5t107 -57.5t58.5 -87t27 -97t5.5 -102v-283q0 -118 94 -118q135 0 218 130t83 318q0 127 -35.5 234.5 t-100 187t-154.5 135t-201 83.5t-236 28q-179 0 -331.5 -61.5t-256.5 -167.5t-162.5 -252t-58.5 -312q0 -238 94 -420t266.5 -281.5t397.5 -99.5q152 0 289 39l18 -73q-136 -50 -330 -50q-182 0 -340 67.5t-270 184.5t-176 280t-64 349zM870 463q0 -69 26.5 -103t86.5 -34 q82 0 152 77v213q-5 0 -15.5 1t-15.5 1q-114 0 -174 -45.5t-60 -109.5z" />
<glyph unicode="A" horiz-adv-x="1519" d="M16 0v29q0 21 15.5 31.5t42 19.5t56 23t61.5 51.5t55 95.5l442 1134q37 4 180 13l469 -1182q19 -48 43.5 -78.5t44.5 -41.5t38 -18t28 -18.5t10 -33.5v-25h-608v27q0 22 18.5 35.5t40 19t40 22.5t18.5 46q0 24 -13 59l-86 213h-518l-59 -160q-17 -47 -17 -76 q0 -36 16.5 -59t40 -32.5t47 -16.5t40 -18t16.5 -31v-29h-461zM420 492h463l-101 249q-57 142 -125 353h-8q-54 -138 -229 -602z" />
<glyph unicode="B" horiz-adv-x="1454" d="M72 0v31q0 20 15 30t37 16t43.5 16t36.5 37.5t15 72.5v973q0 44 -15 70.5t-36.5 36.5t-43.5 16t-37 17t-15 32v32h766q101 0 182 -19t132.5 -49.5t85.5 -72.5t48 -86t14 -92q0 -121 -98 -203.5t-246 -93.5v-8q107 -7 191 -43t133.5 -89t74.5 -113.5t25 -123.5 q0 -56 -15.5 -108t-53.5 -104t-95.5 -90t-148.5 -61.5t-205 -23.5h-790zM549 236q0 -35 2 -56.5t10.5 -44.5t24.5 -35t45 -20t71 -8h21q140 0 222.5 77.5t82.5 237.5q0 67 -18 120t-44 86.5t-66.5 58t-74 36.5t-78 18.5t-67.5 7.5t-53 1h-78v-479zM549 786h125q49 0 95 12.5 t91.5 40t73 81t27.5 127.5q0 258 -343 258h-69v-519z" />
<glyph unicode="C" horiz-adv-x="1411" d="M88 674q0 150 51.5 283.5t144.5 233.5t233 158t306 58q104 0 192.5 -25t188.5 -82l56 107h40v-475h-20q-26 0 -41 19.5t-31 68.5q-16 50 -33.5 89t-47.5 83t-66 73t-90 48.5t-119 19.5q-387 0 -387 -663q0 -322 100.5 -471.5t294.5 -149.5q63 0 118.5 19t95 49t72 72 t53.5 83.5t36 87.5q5 16 12 38.5t11 35.5t9.5 29.5t11 26t12 18t14.5 12.5t18 4h23v-544h-48l-61 120q-200 -125 -430 -125q-218 0 -383 91.5t-250.5 249t-85.5 358.5z" />
<glyph unicode="D" horiz-adv-x="1622" d="M72 0v31q0 20 15 30t37 16t43.5 16t36.5 37.5t15 72.5v973q0 44 -15 70.5t-36.5 36.5t-43.5 16t-37 17t-15 32v32h563q150 0 279 -21.5t245 -71.5t197 -126.5t128.5 -193.5t47.5 -265q0 -64 -9.5 -126t-35.5 -133.5t-66.5 -133t-107.5 -119.5t-153 -99.5t-208.5 -66 t-269.5 -24.5h-610zM549 201q0 -61 31.5 -95t115.5 -34q89 0 171 38.5t147.5 110.5t105 187t39.5 256q0 330 -120.5 485.5t-383.5 155.5h-106v-1104z" />
<glyph unicode="E" horiz-adv-x="1400" d="M74 0v31q0 20 16 31t38 17t44.5 15.5t38.5 37t16 71.5v975q0 43 -16 69.5t-38 36t-44.5 15.5t-38.5 17t-16 32v32h415q346 0 691 23l16 -14l49 -414l-20 -4q-5 -1 -10 -1q-32 0 -54 44q-27 56 -42.5 87t-36.5 67t-35.5 52.5t-38 36t-44 26.5t-53.5 14t-68 8.5t-85 1.5 h-201v-549h145q57 0 96.5 17.5t56.5 43.5t28.5 56.5t16 56.5t16.5 43.5t32 17.5h27v-557h-31q-25 0 -37.5 26t-19.5 62.5t-20 73t-51.5 62.5t-102.5 26h-156v-479q0 -67 32.5 -100t125.5 -33h135q38 0 70.5 5t59 12.5t52.5 24.5t45 31.5t42 44.5t39 53t40 66.5t40.5 76 t45.5 89.5q13 27 26 38t33 7l25 -6l-115 -510l-16 -16q-263 10 -645 10h-518z" />
<glyph unicode="F" horiz-adv-x="1282" d="M74 1348v32h420q357 0 702 23l16 -14l50 -414l-19 -4q-23 -3 -36.5 6.5t-28.5 40.5q-35 78 -60.5 123t-54.5 81.5t-63.5 52.5t-78 24t-108.5 8h-252v-578h162q57 0 96 17.5t55.5 43.5t28 57t16.5 57t17 43.5t33 17.5h27v-559h-31q-25 0 -37.5 26t-20 63t-21 73.5 t-52.5 62.5t-103 26h-170v-469q0 -39 16.5 -62t40 -32t47 -15t40 -17.5t16.5 -32.5v-29h-637v29q0 21 15 33t36 18.5t42.5 16t36.5 33.5t15 63v983q0 44 -16 70.5t-38.5 36.5t-45.5 16t-39 17t-16 32z" />
<glyph unicode="G" horiz-adv-x="1589" d="M86 672q0 150 52.5 283.5t146.5 233.5t235.5 158t310.5 58q230 0 418 -107l60 107h41v-487h-17q-31 0 -45.5 17t-30.5 66q-36 145 -129.5 236.5t-250.5 91.5q-210 0 -311 -171t-101 -490q0 -307 84.5 -466t277.5 -159q80 0 156.5 33.5t128.5 93.5v289q0 21 -7 37t-23 27 t-28 17t-34 15q-6 3 -22 8.5t-23 9t-16.5 9.5t-13 14.5t-3.5 19.5v31h600v-33q0 -16 -9.5 -26.5t-24.5 -15t-31.5 -12.5t-31.5 -17.5t-24.5 -32t-9.5 -55.5v-412q-16 -7 -41 -14l-96 59q-104 -53 -232.5 -82t-234.5 -29q-221 0 -385 88.5t-250 245t-86 361.5z" />
<glyph unicode="H" horiz-adv-x="1669" d="M72 0v27q0 21 15 33t36 18t42.5 15.5t36.5 33.5t15 63v996q0 39 -15 63t-36.5 33t-42.5 15t-36 18.5t-15 34.5v28h633v-28q0 -22 -16.5 -34.5t-39.5 -18.5t-46 -15t-39.5 -32t-16.5 -62v-426h555v424q0 39 -14.5 63t-35 33t-40.5 15.5t-34.5 18.5t-14.5 34v28h630v-28 q0 -22 -16.5 -34.5t-39.5 -18.5t-46.5 -14.5t-40 -31.5t-16.5 -61v-1002q0 -39 16.5 -62.5t40 -31.5t46.5 -14t39.5 -18t16.5 -35v-27h-630v27q0 21 14.5 33t34.5 19t40.5 16.5t35 33t14.5 61.5v500h-555v-502q0 -39 16.5 -62.5t39.5 -32.5t46 -15t39.5 -17.5t16.5 -33.5 v-27h-633z" />
<glyph unicode="I" horiz-adv-x="823" d="M92 0v27q0 21 15 33t36.5 18t43 15.5t36.5 33.5t15 63v996q0 39 -15 63t-36.5 33t-43 15t-36.5 18.5t-15 34.5v28h637v-28q0 -22 -16.5 -34.5t-40 -18.5t-47 -15t-40 -32t-16.5 -62v-1000q0 -39 16.5 -62.5t40 -32.5t47 -15t40 -17.5t16.5 -33.5v-27h-637z" />
<glyph unicode="J" horiz-adv-x="815" d="M-236 -307q0 63 43.5 104t108.5 41q78 0 123 -56.5t55 -146.5q90 56 126 159t36 315v1077q0 39 -15.5 63t-38 33t-45 15t-38 18.5t-15.5 34.5v28h650v-28q0 -22 -17 -34.5t-41.5 -18.5t-49 -15t-41.5 -32t-17 -62v-826q0 -432 -213 -624q-102 -92 -205.5 -143.5 t-224.5 -51.5q-27 0 -56.5 8t-58.5 24.5t-47.5 47t-18.5 70.5z" />
<glyph unicode="K" horiz-adv-x="1574" d="M72 0v27q0 21 15 33t36 18t42.5 15.5t36.5 33.5t15 63v996q0 39 -15 63t-36.5 33t-42.5 15t-36 18.5t-15 34.5v28h637v-28q0 -22 -16.5 -34.5t-40 -18.5t-47 -15t-40 -32t-16.5 -62v-445h178l367 420q25 30 33 45t8 33q-1 23 -25 36t-51.5 17.5t-50.5 18.5t-23 39v28h520 v-24q0 -27 -16 -39t-48 -20t-71 -19.5t-94 -49t-107 -98.5l-254 -292l381 -592q41 -63 91.5 -102.5t86 -51t60.5 -26.5t25 -39v-27h-623v29q0 18 11.5 30t25.5 17t25.5 16t11.5 27t-29 63l-313 484h-119v-478q0 -39 16.5 -62.5t40 -32.5t47 -15t40 -17.5t16.5 -33.5v-27 h-637z" />
<glyph unicode="L" horiz-adv-x="1409" d="M104 0v31q0 20 16 30t38.5 16t45 16t38.5 37.5t16 72.5v983q0 39 -15 63t-36 33t-42.5 15t-36.5 18.5t-15 34.5v28h637v-28q0 -22 -16.5 -34.5t-40 -18.5t-47 -15t-40 -32t-16.5 -62q0 -163 -1 -490.5t-1 -490.5q0 -67 32 -100t125 -33h129q56 0 98.5 8.5t79.5 31.5 t64 49.5t59 77.5t57.5 98t66.5 128q7 13 10 20q22 43 49 43h10l25 -6q-70 -307 -115 -518l-16 -16q-328 10 -482 10h-676z" />
<glyph unicode="M" horiz-adv-x="2021" d="M47 0v29q0 16 10.5 27t22.5 15.5t36 12.5l36 12q80 34 88 158l51 909v10q1 37 -13 61q-16 28 -40 39t-48 19.5t-41.5 21t-17.5 32.5v34h508l336 -809q36 -85 63 -186h15q50 135 174.5 473.5t193.5 521.5h502v-37q0 -20 -17.5 -32t-42.5 -19.5t-49 -19.5q-25 -10 -41 -38 q-14 -24 -14 -62v-9l47 -970q2 -43 19.5 -68t40.5 -34t46 -14t38.5 -16.5t15.5 -33.5v-27h-631v27q0 25 23 38.5t51 19t51 29.5t23 68q0 6 -49 1014h-9q-349 -956 -444 -1212l-84 -4l-412 958q-81 190 -110 276h-8l-48 -999v-8q0 -41 18 -67q20 -28 49.5 -38.5t60 -17 t52 -19t21.5 -36.5v-29h-473z" />
<glyph unicode="N" horiz-adv-x="1640" d="M59 0v29q0 15 10.5 26t21.5 15.5t35 12t34 11.5q53 22 73.5 70t20.5 131q0 144 1 432.5t1 431.5q0 47 -16.5 75.5t-40 39.5t-47 18.5t-40 19.5t-16.5 34v34h488q72 -95 153.5 -199.5t183 -234t154.5 -198.5l150 -195q40 -53 88 -133q2 2 6 2v653q0 100 -23 148t-98 67 q-30 7 -46 12.5t-29 18t-13 29.5v28h479v-30q0 -22 -16 -33.5t-49 -22.5q-79 -26 -104 -69.5t-25 -147.5v-1100q-14 -4 -46.5 -14t-50.5 -14l-761 966q-141 176 -199 269h-8v-883q0 -106 27 -151.5t116 -69.5q23 -7 33.5 -11t20.5 -13.5t10 -24.5v-29h-478z" />
<glyph unicode="O" horiz-adv-x="1652" d="M88 690q0 117 32 224.5t94.5 196.5t150 155t205.5 102.5t253 36.5q181 0 325.5 -58.5t234 -158.5t136 -226t46.5 -268q0 -114 -30.5 -220t-93 -197t-150 -159t-208.5 -106.5t-262 -38.5q-180 0 -322 57.5t-230.5 157t-134.5 227.5t-46 275zM465 690q0 -109 10.5 -201 t37 -176.5t67 -143t105 -93.5t146.5 -35q98 0 170 52t112 144t58.5 202t18.5 243q0 110 -10.5 202.5t-37 177.5t-67 144t-105 94t-147.5 35q-96 0 -168 -56t-112 -151t-59 -204.5t-19 -233.5z" />
<glyph unicode="P" horiz-adv-x="1349" d="M72 1348v32h649q97 0 181.5 -12.5t162 -43t132.5 -76.5t87.5 -117t32.5 -162q0 -87 -31 -158t-84 -118.5t-126 -80t-154.5 -47t-171.5 -14.5q-106 0 -197 12v-375q0 -39 16.5 -62.5t40 -32.5t47 -15t40 -17.5t16.5 -33.5v-27h-639v27q0 21 15 33t36 18t42.5 15.5 t36.5 33.5t15 63v986q0 44 -15 70.5t-36.5 36.5t-43.5 16t-37 17t-15 32zM553 635q30 -6 65 -6q152 0 248.5 89.5t96.5 252.5q0 165 -88.5 250.5t-225.5 85.5h-96v-672z" />
<glyph unicode="Q" horiz-adv-x="1650" d="M86 690q0 147 51 277t144 227.5t233 154t309 56.5q146 0 269 -38.5t209.5 -105t147 -157t89.5 -194t29 -216.5q0 -128 -42.5 -249t-122 -220.5t-205 -165.5t-279.5 -79q0 -1 1 -4.5t1 -4.5q69 -3 125.5 -13.5t104.5 -31.5t79 -38.5t82.5 -50.5t81.5 -50q53 -33 116 -33 q52 0 117 35l31 -45q-174 -154 -320 -154q-35 0 -69 9q-64 19 -129.5 61.5t-119 91t-104.5 95.5t-103 85.5t-97 51.5q-156 16 -277.5 78.5t-197.5 157.5t-115 214.5t-39 255.5zM465 690q0 -109 10.5 -201.5t37 -177.5t67 -144.5t105 -94.5t146.5 -35q79 0 141 35t102 94.5 t66 143.5t37 175.5t11 196.5q0 653 -365 653q-96 0 -168 -56t-112 -151t-59 -204.5t-19 -233.5z" />
<glyph unicode="R" horiz-adv-x="1513" d="M88 0v27q0 21 15.5 33t37.5 19t44 16.5t37.5 33t15.5 61.5v996q0 39 -15.5 63t-37.5 33.5t-44 16t-37.5 19t-15.5 34.5v28h610q102 0 186.5 -9t167.5 -33.5t139.5 -64t91 -105t34.5 -152.5q0 -179 -145.5 -283t-395.5 -104q-28 0 -82 4q73 -84 236 -84q46 0 104 8 l236 -352q35 -53 61 -72q35 -27 71.5 -41t55.5 -16.5t31 -13.5t12 -35v-27h-459q-294 426 -444 639h-31v-451q0 -39 16.5 -62.5t40.5 -32.5t48 -15t40.5 -17.5t16.5 -33.5v-27h-641zM567 709h95q137 0 223 81t86 220q0 150 -88 223.5t-230 73.5h-86v-598z" />
<glyph unicode="S" horiz-adv-x="1273" d="M63 264q0 66 40 105t96 39q74 0 117.5 -53t43.5 -132q0 -68 -28 -129q98 -45 225 -45q65 0 122 12t105 37.5t76.5 70t28.5 103.5q0 67 -43 124.5t-111.5 100.5t-151.5 84t-166 83.5t-151.5 90t-111.5 113t-43 142.5q0 79 29 145t79.5 112t119 78t146.5 47t164 15 q217 0 347 -77t130 -187q0 -63 -38 -99t-93 -36q-72 0 -112.5 49.5t-40.5 126.5q0 63 24 123q-87 26 -178 26q-50 0 -95 -9.5t-84 -29.5t-62 -56.5t-23 -84.5q0 -57 43.5 -107t112.5 -89.5t153 -79t168 -85t153 -97.5t112.5 -125.5t43.5 -159.5q0 -140 -84 -240t-224 -147.5 t-320 -47.5q-236 0 -377.5 86.5t-141.5 202.5z" />
<glyph unicode="T" horiz-adv-x="1419" d="M14 946q8 69 25.5 215.5t26.5 222.5q12 9 24 15q244 -19 619 -19q366 0 616 19q15 -7 25 -15l49 -432l-19 -4q-6 -2 -14 -2q-29 0 -49 45q-47 104 -77.5 157.5t-72 93.5t-88.5 52.5t-123 12.5h-82v-1119q0 -39 16.5 -62.5t40 -32.5t47 -15t40 -17.5t16.5 -33.5v-27h-637 v27q0 21 15 33t36.5 18t43 15.5t36.5 33.5t15 63v1117h-88q-51 0 -87.5 -5.5t-69 -21.5t-55 -36.5t-48.5 -61t-47 -83.5t-52 -114q-18 -43 -51 -43h-10z" />
<glyph unicode="U" horiz-adv-x="1646" d="M61 1350v28h637v-28q0 -22 -16.5 -34.5t-40 -18.5t-47.5 -15t-40.5 -32t-16.5 -62v-668q0 -105 20.5 -184.5t66 -140t125 -92t191.5 -31.5q184 0 284.5 133t100.5 375v581q0 46 -21.5 74.5t-52 40t-61.5 19t-52.5 20t-21.5 35.5v28h479v-28q0 -23 -20 -36.5t-48 -21 t-56 -18.5t-48 -39t-20 -72v-512q0 -130 -17.5 -231.5t-58.5 -186.5t-106.5 -141t-165 -86.5t-230.5 -30.5q-590 0 -616 488q-2 45 -2 141v582q0 39 -15 63t-36.5 33t-43 15t-36.5 18.5t-15 34.5z" />
<glyph unicode="V" horiz-adv-x="1478" d="M20 1358v22h617v-26q0 -25 -19 -40t-42.5 -21t-42.5 -21.5t-19 -42.5q0 -13 5.5 -30t17 -43.5t14.5 -35.5l170 -420q47 -115 121 -346h8q19 56 63 167.5t54 137.5l174 463q20 50 20 84t-26.5 54.5t-57.5 26.5t-57.5 21.5t-26.5 41.5v30h465v-30q0 -22 -15.5 -32.5 t-41.5 -18.5t-55.5 -21t-61.5 -48.5t-55 -92.5l-455 -1143l-106 -17l-486 1188q-19 46 -43 75t-44 39.5t-37.5 19t-27.5 21.5t-10 38z" />
<glyph unicode="W" horiz-adv-x="2162" d="M20 1354v26h617v-26q0 -24 -19 -38t-42.5 -18.5t-42.5 -21.5t-19 -47q0 -23 12 -60l133 -383q78 -222 115 -366h8l316 940h170l217 -545q85 -210 137 -375h8l195 693q12 44 12 71q0 34 -16.5 54.5t-40.5 28.5t-48 14t-40.5 17.5t-16.5 31.5v30h467v-30q0 -22 -17 -32.5 t-44 -17.5t-56.5 -19.5t-60 -48t-49.5 -93.5l-367 -1151l-96 -11l-252 652q-99 261 -137 368h-12l-346 -1011l-97 -13l-422 1188q-17 47 -40.5 78t-44.5 42.5t-40 19.5t-30 20t-11 33z" />
<glyph unicode="X" horiz-adv-x="1490" d="M27 0v27q0 24 14.5 35.5t43.5 21.5t64.5 26t87.5 61t103 114l264 354l-315 487q-38 58 -76.5 95.5t-65 51t-48 23t-32 22t-10.5 36.5v26h664v-26q0 -26 -15.5 -42t-34.5 -21.5t-34.5 -21.5t-15.5 -42q0 -38 34 -90l187 -285l176 252q57 82 57 125q0 25 -21.5 39.5t-48 19 t-48 20.5t-21.5 44v28h494v-26q0 -28 -16 -41t-47 -23t-67.5 -24t-87 -54.5t-96.5 -103.5l-233 -320l346 -524q39 -60 79 -99.5t67.5 -55t50 -26t33.5 -22t11 -32.5v-29h-694v27q0 23 18.5 36.5t41 19t41 22t18.5 45.5q0 35 -37 94l-213 334l-215 -302q-61 -89 -61 -133 q0 -26 23 -40t50.5 -18t50.5 -18t23 -40v-27h-489z" />
<glyph unicode="Y" horiz-adv-x="1392" d="M14 1354v26h631v-28q0 -23 -18 -37.5t-39.5 -20.5t-39.5 -21.5t-18 -39.5t45 -103q142 -247 232 -428h12l193 392q39 76 39 116q0 29 -16.5 48t-39.5 27.5t-46 15t-39.5 18.5t-16.5 31v30h483v-30q0 -23 -16 -35t-44 -20.5t-60.5 -22t-71.5 -52t-70 -98.5l-262 -510v-424 q0 -39 16.5 -62.5t40 -32.5t47 -15t40 -17.5t16.5 -33.5v-27h-637v27q0 21 15 33t36.5 18t42.5 15.5t36 33.5t15 63v369l-325 604q-22 42 -49.5 70.5t-49.5 40.5t-41.5 22t-30 23t-10.5 35z" />
<glyph unicode="Z" horiz-adv-x="1433" d="M51 0v66l856 1239h-278q-66 0 -110.5 -4t-84 -18.5t-64.5 -33.5t-53 -58.5t-49 -82.5t-53 -115q-18 -43 -53 -43h-10l-19 4l62 435l22 14q194 -19 459 -23h637v-65q-238 -347 -844 -1241h424q59 0 103.5 15t79 40.5t71.5 78.5t68.5 109t82.5 152q1 3 2 4.5t2.5 4.5l2.5 5 q12 23 21.5 33t25.5 10h10l22 -6q-72 -333 -114 -514l-17 -16q-193 10 -487 10h-715z" />
<glyph unicode="[" horiz-adv-x="630" d="M150 -385v1884h415v-74h-180v-1738h180v-72h-415z" />
<glyph unicode="\" horiz-adv-x="681" d="M0 1491h123l557 -1612h-127z" />
<glyph unicode="]" horiz-adv-x="630" d="M68 -313h180v1738h-180v74h415v-1884h-415v72z" />
<glyph unicode="^" horiz-adv-x="1144" d="M117 735l399 686h115q47 -81 184.5 -319t212.5 -367h-147q-218 373 -312 539q-40 -71 -145.5 -255.5t-161.5 -283.5h-145z" />
<glyph unicode="_" horiz-adv-x="1024" d="M0 -141h1024v-107h-1024v107z" />
<glyph unicode="`" horiz-adv-x="1114" d="M287 1343q0 38 27.5 66.5t76.5 28.5q36 0 60.5 -17.5t46 -52.5t46.5 -76.5t77.5 -99.5t123.5 -111l-22 -45q-114 28 -203 71.5t-137 88t-72 82.5t-24 65z" />
<glyph unicode="a" horiz-adv-x="1093" d="M51 190q0 71 30 127.5t78.5 92t114.5 58.5t133 32.5t140 9.5q47 0 102 -6v119q0 101 -47 163t-143 62q-93 0 -154 -43q53 -47 53 -121q0 -46 -29 -81.5t-81 -35.5q-48 0 -75.5 32.5t-27.5 78.5q0 29 9.5 59.5t36.5 65.5t68.5 62t111.5 45t159 18q102 0 178 -24t119.5 -61 t70.5 -91t35.5 -105t8.5 -112v-326q0 -71 22 -95.5t87 -33.5q0 -9 2 -28.5t2 -28.5q-36 -20 -95.5 -34t-107.5 -14q-84 0 -134.5 29t-58.5 109h-8q-133 -142 -342 -142q-111 0 -184.5 56t-73.5 163zM348 242q0 -136 125 -136q48 0 96 25t80 64v239q-301 0 -301 -192z" />
<glyph unicode="b" horiz-adv-x="1226" d="M10 1395v32l402 64l18 -16v-390q0 -200 -47 -321q2 0 5 -1t5 -1q58 81 149.5 121.5t186.5 40.5q64 0 124.5 -16.5t116.5 -53.5t97.5 -89.5t66.5 -130.5t25 -171q0 -95 -28 -181t-81.5 -154t-139.5 -108t-193 -40q-91 0 -182 29t-150 95q-3 -2 -195 -127h-53v1270 q0 47 -20 71.5t-43.5 28.5t-43.5 14.5t-20 33.5zM418 156q87 -74 192 -74q104 0 168 93.5t64 268.5q0 165 -62.5 259t-171.5 94q-106 0 -190 -97v-544z" />
<glyph unicode="c" horiz-adv-x="980" d="M68 432q0 212 145.5 354t384.5 142q93 0 162 -20.5t105.5 -54t53.5 -70t17 -74.5q0 -55 -35 -93t-86 -38q-65 0 -100 39t-35 98q0 56 37 112q-16 2 -45 2q-138 0 -214.5 -102t-76.5 -260q0 -173 81.5 -268t225.5 -95q118 0 242 52l26 -47q-157 -136 -397 -136 q-237 0 -364 126.5t-127 332.5z" />
<glyph unicode="d" horiz-adv-x="1251" d="M66 430q0 119 38 215t103.5 156t149.5 91.5t180 31.5q158 0 266 -66q1 0 3.5 1t4.5 1v387q0 47 -20 71.5t-44.5 28.5t-44.5 14.5t-20 33.5v32l403 64q14 -14 17 -16v-1264q0 -70 25 -92t92 -27q0 -10 2 -30t2 -29q-38 -23 -105.5 -38t-120.5 -15q-81 0 -123.5 33 t-52.5 114h-8q-115 -152 -326 -152q-204 0 -312.5 123.5t-108.5 331.5zM383 453q0 -181 61 -265t166 -84q57 0 111 29t86 76v563q-88 55 -186 55q-117 0 -177.5 -102.5t-60.5 -271.5z" />
<glyph unicode="e" horiz-adv-x="1071" d="M66 446q0 135 58 242.5t174.5 172.5t272.5 65q208 0 323.5 -124t115.5 -313l-13 -18h-626q0 -360 303 -360q67 0 150 23.5t139 55.5l34 -38q-71 -81 -178 -129t-237 -48q-249 0 -382.5 130.5t-133.5 340.5zM373 543q239 11 370 20v51q0 61 -16.5 113.5t-57.5 90.5 t-100 38q-61 0 -106 -47t-66 -115.5t-24 -150.5z" />
<glyph unicode="f" horiz-adv-x="710" d="M35 821v62q101 17 137 22q0 114 31 224t86 180q64 79 157 134.5t193 55.5q84 0 142.5 -39.5t58.5 -116.5q0 -55 -38 -87.5t-89 -32.5q-156 0 -156 192q-49 -16 -72.5 -73t-23.5 -136v-313h213v-72h-213v-622q0 -67 23 -89.5t89 -39.5q31 -10 31 -43v-27h-555v27 q0 34 35 45q55 16 70.5 37.5t15.5 89.5v622h-135z" />
<glyph unicode="g" horiz-adv-x="1136" d="M27 -190q0 75 37.5 119t95.5 44q65 0 97 -43t32 -104q0 -34 -21.5 -75t-48.5 -62q86 -66 252 -66q81 0 150.5 21t117 69t47.5 115q0 54 -39 90.5t-102 53.5t-138.5 27t-151 17t-138.5 17t-102 32.5t-39 59.5q0 39 46 87t132 81q-168 92 -168 282q0 148 128 250.5 t337 102.5q98 0 203 -31q53 80 121 122t131 42q60 0 102.5 -32t42.5 -87q0 -46 -33.5 -75t-79.5 -29q-43 0 -84 28.5t-55 77.5q-52 -25 -94 -67q105 -48 159 -126t54 -171q0 -145 -127 -248t-342 -103q-137 0 -238 39q-63 -42 -63 -78q0 -24 37 -37t98 -15t138.5 -5 t158.5 -6t158.5 -19t138.5 -41.5t98 -76.5t37 -123q0 -48 -24 -94t-73 -87t-117 -72t-163 -49t-205 -18q-125 0 -220 20.5t-147 49.5t-84.5 67.5t-42 68t-9.5 57.5zM387 575q0 -128 40.5 -206t127.5 -78q43 0 75.5 26.5t50.5 70t27 93t9 103.5q0 77 -13.5 135t-52 98.5 t-98.5 40.5q-55 0 -94 -44.5t-55.5 -106.5t-16.5 -132z" />
<glyph unicode="h" horiz-adv-x="1224" d="M25 1397v33l403 61l16 -14v-359q0 -231 -34 -366q2 0 4.5 -1t3.5 -1q63 90 160.5 130t195.5 40q58 0 107.5 -14.5t91.5 -45.5t66 -86t24 -129v-446q0 -68 16.5 -89.5t71.5 -39.5q31 -7 31 -43v-27h-516v31q0 17 7.5 26t26.5 15q46 15 59 36.5t13 86.5v448q0 73 -40.5 109 t-98.5 36q-53 0 -107 -29.5t-82 -80.5v-490q0 -62 14.5 -83t61.5 -35q31 -10 31 -41v-29h-520v27q0 34 35 45q55 16 70.5 37.5t15.5 89.5v1050q0 47 -20 71.5t-43.5 28.5t-43.5 14.5t-20 33.5z" />
<glyph unicode="i" horiz-adv-x="647" d="M61 831v31q214 40 404 72q3 -2 8 -8t8 -8v-721q0 -67 16.5 -89t71.5 -40q31 -7 31 -43v-25h-532v27q0 34 34 45q55 16 70.5 37.5t15.5 89.5v485q0 47 -20 71.5t-43.5 28t-43.5 14t-20 33.5zM156 1272q0 67 49 116.5t117 49.5q71 0 120.5 -49.5t49.5 -116.5 q0 -72 -49 -123t-121 -51q-69 0 -117.5 51t-48.5 123z" />
<glyph unicode="j" horiz-adv-x="612" d="M-174 -309q0 47 36.5 84t90.5 37q69 0 110 -53t46 -130q71 38 71 156v897q0 39 -13 62.5t-31 31.5t-36.5 12.5t-31.5 14t-13 28.5v31q199 38 402 72q3 -2 8 -8t8 -8v-824q0 -241 -92 -358q-61 -77 -156 -128.5t-213 -51.5q-71 0 -128.5 33t-57.5 102zM145 1272 q0 67 48 116.5t116 49.5q72 0 121 -49.5t49 -116.5q0 -73 -48.5 -123.5t-121.5 -50.5q-69 0 -116.5 51t-47.5 123z" />
<glyph unicode="k" horiz-adv-x="1165" d="M25 1399v31l403 65l16 -16v-985h115q15 17 54 58t61.5 66.5t50.5 58.5t41.5 56t13.5 37q0 17 -18 27t-39 13.5t-39 15.5t-18 32v34h440v-26q0 -27 -24.5 -40t-59 -18.5t-86.5 -32t-94 -73.5l-109 -120l234 -381q30 -50 56.5 -74t70.5 -45q20 -8 30.5 -14t18.5 -16t8 -23 v-29h-504v29q0 20 16.5 30l33 20t16.5 30q0 17 -19 47l-174 268h-76v-236q0 -65 15.5 -85t62.5 -35q29 -8 29 -41v-27h-520v27q0 34 35 45q55 16 70.5 37.5t15.5 89.5v1050q0 39 -13 62.5t-32 31.5t-37.5 13t-31.5 14.5t-13 28.5z" />
<glyph unicode="l" horiz-adv-x="620" d="M41 1399v31l401 65l19 -16v-1282q0 -67 16 -89t70 -40q31 -7 31 -43v-25h-533v27q0 33 35 45q55 16 70.5 37.5t15.5 89.5v1050q0 39 -13 62.5t-31 31.5t-36.5 13t-31.5 14.5t-13 28.5z" />
<glyph unicode="m" horiz-adv-x="1796" d="M47 821v33l381 72l18 -17l-20 -170q2 0 5 -1t5 -1q63 95 148.5 140t177.5 45q58 0 108.5 -13.5t97.5 -53t66 -101.5q59 84 142 127t170 43q56 0 104.5 -13.5t91 -43t67.5 -85t25 -131.5v-452q0 -68 16.5 -89.5t71.5 -39.5q31 -7 31 -43v-27h-510v31q0 30 33 41 q43 14 54 34t11 84v461q0 65 -36 102.5t-84 37.5q-49 0 -96 -33t-78 -86q2 -14 2 -41v-443q0 -62 13.5 -83.5t55.5 -34.5q29 -9 29 -41v-29h-488v31q0 17 7 26t26 15q43 14 54.5 34t11.5 84v461q0 62 -36.5 101t-84.5 39q-50 0 -96 -32.5t-76 -84.5v-486q0 -62 14 -83.5 t56 -34.5q17 -6 22.5 -15t5.5 -26v-29h-510v27q0 34 35 45q55 16 70.5 37.5t15.5 89.5v475q0 47 -20 71.5t-43.5 28t-43.5 14t-20 33.5z" />
<glyph unicode="n" horiz-adv-x="1247" d="M47 821v33q191 34 381 72l18 -17q-6 -55 -14 -161q1 0 4 -1.5t4 -1.5q63 88 158.5 132.5t187.5 44.5q59 0 109 -14t94 -44.5t69 -86t25 -130.5v-448q0 -68 16.5 -89.5t71.5 -39.5q33 -8 33 -43v-27h-518v31q0 29 35 41q46 15 59 36.5t13 86.5v450q0 73 -37.5 111.5 t-96.5 38.5q-54 0 -108 -32t-86 -85v-490q0 -61 15 -82.5t61 -35.5q32 -10 32 -41v-29h-520v27q0 34 35 45q55 16 70.5 37.5t15.5 89.5v475q0 47 -20 71.5t-43.5 28t-43.5 14t-20 33.5z" />
<glyph unicode="o" horiz-adv-x="1210" d="M68 453q0 98 36.5 184t103.5 151t168.5 102.5t225.5 37.5q133 0 238.5 -38.5t170.5 -105t98.5 -150.5t33.5 -179t-35.5 -181t-102 -153.5t-171 -107.5t-232.5 -40q-129 0 -232.5 38.5t-168.5 105.5t-99 153t-34 183zM387 453q0 -416 219 -416q61 0 105 34.5t67.5 95.5 t34 129.5t10.5 149.5q0 414 -219 414q-60 0 -104 -35.5t-68 -96t-34.5 -129t-10.5 -146.5z" />
<glyph unicode="p" horiz-adv-x="1253" d="M25 821v33q191 34 381 72l16 -17q-2 -30 -8 -87.5t-8 -86.5h8q63 100 160 145.5t186 45.5q103 0 184.5 -36.5t133.5 -100t79 -148.5t27 -184q0 -117 -37 -210.5t-101 -152.5t-148 -90t-181 -31q-61 0 -135.5 17t-130.5 53q-2 0 -5.5 -1t-5.5 -1v-262q0 -66 18.5 -89.5 t71.5 -39.5q20 -6 26.5 -15t6.5 -28v-27h-534v29q0 34 37 43q55 18 70.5 39.5t15.5 89.5v893q0 47 -20 71.5t-43.5 28t-43.5 14t-20 33.5zM444 121q84 -55 187 -55q115 0 176 99t61 269q0 181 -61 265.5t-166 84.5q-57 0 -110 -29t-87 -77v-557z" />
<glyph unicode="q" horiz-adv-x="1232" d="M66 430q0 100 30 188.5t86.5 156.5t146 107.5t199.5 39.5q178 0 301 -107l224 107h49v-1143q0 -67 18 -90t72 -39q33 -10 33 -43v-27h-529v29q0 32 35 43q55 18 70.5 39.5t15.5 89.5v321q-2 0 -4.5 1t-3.5 1q-121 -124 -332 -124q-83 0 -156 27t-130.5 80.5t-91 141.5 t-33.5 201zM385 444q0 -168 60.5 -257t170.5 -89q106 0 191 105v536q-92 76 -191 76q-106 0 -168.5 -96.5t-62.5 -274.5z" />
<glyph unicode="r" horiz-adv-x="925" d="M57 821v31l381 74q2 -3 5.5 -6.5t8 -7.5t5.5 -5l-31 -245q2 0 5 -1.5t5 -1.5q120 263 316 263q71 0 122.5 -40t51.5 -106q0 -59 -41.5 -93t-98.5 -34q-54 0 -100.5 37t-52.5 100q-47 -22 -90 -73.5t-68 -126.5v-389q0 -47 9.5 -71t25.5 -34.5t55 -23.5q31 -7 31 -43v-25 h-535v27q0 33 35 45q55 16 70.5 37.5t15.5 89.5q0 80 1 238t1 237q0 47 -20 71.5t-43.5 28t-43.5 14t-20 33.5z" />
<glyph unicode="s" horiz-adv-x="960" d="M55 178q0 47 35.5 80t77.5 33q63 0 100 -45.5t37 -112.5q0 -47 -10 -72q61 -22 121 -22q39 0 80.5 14t74.5 46t33 75q0 37 -28 69t-73.5 56t-100 48t-109 51.5t-100 59.5t-73.5 79t-28 104q0 132 108.5 208.5t284.5 76.5q170 0 269.5 -55t99.5 -144q0 -49 -32 -79 t-72 -30q-59 0 -98.5 40.5t-39.5 101.5q0 45 17 80q-41 16 -101 16q-59 0 -107 -33t-48 -92q0 -37 29 -69t76 -56.5t103.5 -49t113 -53.5t103.5 -62.5t76 -83t29 -109.5q0 -91 -63.5 -154.5t-162 -91t-222.5 -27.5q-188 0 -294 57t-106 146z" />
<glyph unicode="t" horiz-adv-x="739" d="M27 823v58l135 32l221 301h59v-321h250v-70h-250v-547q0 -89 35 -124t103 -35q43 0 129 14l16 -53q-77 -55 -168 -78t-160 -23q-73 0 -123 19.5t-76.5 56.5t-37 81.5t-10.5 103.5v585h-123z" />
<glyph unicode="u" horiz-adv-x="1239" d="M43 834v32q254 44 403 66q1 -2 7 -8t8 -9v-659q0 -71 31 -107t83 -36q61 0 115.5 28t85.5 82v463q0 39 -13 62.5t-32 31.5t-37.5 12.5t-31.5 14t-13 27.5v32q248 43 404 66q1 -2 16 -17v-698q0 -71 24.5 -95t92.5 -30l6 -61q-40 -23 -109 -39.5t-118 -16.5 q-166 0 -177 154h-8q-126 -156 -336 -156q-54 0 -100.5 13.5t-87 43.5t-63.5 85t-23 131v440q0 39 -13 62.5t-32 31.5t-37.5 12.5t-31.5 14t-13 27.5z" />
<glyph unicode="v" horiz-adv-x="1099" d="M18 866v27h555v-29q0 -20 -16.5 -33t-36.5 -18.5t-36.5 -19.5t-16.5 -37q0 -24 18 -62l101 -223q5 -12 24 -50.5t30 -65t19 -54.5h11l143 373q14 35 18 74q0 28 -18.5 43.5t-41.5 20t-41.5 16t-18.5 32.5v33h372v-23q0 -22 -11 -33t-31.5 -19t-44 -20t-53 -47t-54.5 -89 q-36 -79 -144 -318.5t-167 -368.5l-56 -4l-358 723q-19 38 -41.5 64t-40 37.5t-32.5 20.5t-23 20t-9 30z" />
<glyph unicode="w" horiz-adv-x="1597" d="M18 866v27h549v-31q0 -22 -17 -35.5t-37 -18.5t-37 -21t-17 -42q0 -18 16 -61l74 -209q4 -12 23 -66.5t28 -86.5h10q159 412 217 555h129l166 -367q38 -87 74 -182h10l103 342q16 58 16 65q0 31 -20 49.5t-43.5 24t-43.5 17.5t-20 32v35h381v-33q0 -19 -13 -28.5 t-35 -16.5t-46.5 -19.5t-52.5 -47t-48 -89.5l-254 -682l-61 -6q-13 29 -69 149t-80.5 173.5t-63.5 143t-65 157.5h-11l-254 -619l-67 -4q-192 463 -291 713q-22 54 -51 85t-49.5 38t-35 20.5t-14.5 38.5z" />
<glyph unicode="x" horiz-adv-x="1107" d="M20 0v27q0 17 11.5 26t34.5 18.5t50.5 22.5t66 46t75.5 81l154 203l-187 268q-35 51 -72 82.5t-58.5 40t-35.5 19.5t-14 30v29h549v-27q0 -20 -13.5 -31.5t-29.5 -15.5t-29.5 -16t-13.5 -33q0 -26 39 -74l104 -151l103 149q34 52 34 78q0 19 -16 30t-36 15t-36 15t-16 30 v31h377v-29q0 -17 -11.5 -26t-34.5 -18.5t-50.5 -22.5t-66 -46t-75.5 -81l-135 -178l205 -291q37 -53 76.5 -85.5t63 -40t39 -18.5t15.5 -30v-27h-563v27q0 18 14 28.5t30 14.5t30 16t14 33q0 24 -41 78l-120 172l-123 -170q-35 -50 -35 -80q0 -20 16.5 -31.5t35.5 -15.5 t35.5 -14t16.5 -27v-31h-377z" />
<glyph unicode="y" horiz-adv-x="1052" d="M-35 -303q0 53 40 91t95 38q70 0 112 -44.5t58 -98.5q47 16 101 83t94 173l22 59h-51q-253 581 -299 690q-20 47 -48 74.5t-49 34.5t-36.5 21.5t-15.5 41.5v31h553v-35q0 -18 -16 -30.5t-34.5 -18.5t-34.5 -21t-16 -38q0 -18 17 -64q108 -264 149 -416h12l158 406 q19 49 19 71q0 29 -19 44.5t-41.5 18.5t-41.5 14.5t-19 33.5v35h373v-33q0 -19 -12 -28.5t-33 -16.5t-45.5 -19t-53 -46t-51.5 -86l-324 -750q-157 -356 -385 -356q-86 0 -132 38t-46 103z" />
<glyph unicode="z" horiz-adv-x="1032" d="M37 0v51q208 292 557 772h-107q-39 0 -62 -1t-50 -4t-43 -9t-35.5 -17.5t-33 -27t-30 -40t-31.5 -54t-34 -70.5q-16 -40 -47 -40q-5 0 -10 1l-19 4l51 328l21 14q197 -16 389 -16h395v-60l-555 -765h174q59 0 94 4.5t71 19t64 46t59 79t71 125.5l3.5 7l3.5 7t3.5 6.5 t4 6.5t4.5 5t5 4.5t5.5 3.5t6.5 2h7t8 -1l22 -6l-81 -371l-17 -14q-208 10 -418 10h-446z" />
<glyph unicode="{" horiz-adv-x="761" d="M109 596v57q43 12 73 31.5t47.5 42t27 56.5t12.5 66t3 79v223q0 82 23.5 145.5t72.5 111t132.5 70.5t197.5 19v-63q-52 -4 -89.5 -20.5t-56.5 -37t-29.5 -53.5t-12.5 -57.5t-2 -61.5v-260q0 -285 -279 -311v-8q144 -21 211.5 -93.5t67.5 -220.5v-424q0 -34 3.5 -58.5 t14.5 -51.5t31.5 -44.5t56 -31t84.5 -18.5v-64q-225 -7 -325.5 78t-100.5 250v379q0 47 -2 76t-11 65t-26 58.5t-48 41.5t-76 29z" />
<glyph unicode="|" horiz-adv-x="686" d="M283 -289v1813h125v-1813h-125z" />
<glyph unicode="}" horiz-adv-x="761" d="M68 -317q60 6 100 24t58.5 47.5t25 59t6.5 71.5v426q0 148 67 220.5t212 93.5v8q-144 13 -211.5 91t-67.5 220v260q0 37 -2.5 62t-13 57.5t-29.5 53t-56 37t-89 20.5v63q114 4 197 -19t132 -70.5t72 -111t23 -145.5v-223q0 -48 2.5 -79.5t12 -65.5t27.5 -56.5t48.5 -42 t74.5 -31.5v-57q-45 -10 -76.5 -29t-49 -41.5t-26.5 -58.5t-11 -65t-2 -76v-379q0 -165 -100 -250t-324 -78v64z" />
<glyph unicode="~" d="M139 432q8 41 26.5 84.5t51 89t86 74.5t119.5 29q58 0 202 -42t205 -42q70 0 116.5 19t86.5 75l51 -19q-15 -52 -36.5 -95.5t-54 -84t-80.5 -63.5t-107 -23q-79 0 -205 40t-186 40q-160 0 -217 -96z" />
<glyph unicode="&#xa2;" d="M166 602q0 206 142.5 345.5t373.5 142.5q22 192 23 204q23 0 69 -4l-20 -203q79 -4 139 -25t93 -51.5t49 -62.5t16 -65q0 -49 -32.5 -88t-78.5 -39q-59 0 -91 39.5t-32 95.5q0 58 31 100q-46 17 -105 17l-77 -711q42 -18 114 -18q132 0 256 51q5 -14 23 -45 q-157 -135 -406 -135l-22 -222q-24 0 -70 4l23 222q-201 21 -309.5 142t-108.5 306zM455 625q0 -111 38.5 -189t106.5 -114q34 338 72 675q-101 -28 -159 -127.5t-58 -244.5z" />
<glyph unicode="&#xa3;" d="M80 637v72h174q-68 108 -68 245q0 180 136 298t368 118q176 0 272.5 -68t96.5 -161q0 -47 -35.5 -85t-91.5 -38q-67 0 -102 44.5t-35 111.5q0 60 28 118q-58 8 -84 8q-111 0 -177 -66.5t-66 -186.5q0 -127 61 -338h389v-72h-371q7 -44 7 -70q0 -37 -10 -83t-31.5 -99.5 t-63 -104.5t-96.5 -83q0 -2 1 -5.5t1 -5.5l692 60q4 -4 12.5 -14t14.5 -15q-5 -25 -15 -69t-18 -80t-14 -68h-963v72q134 58 204.5 145t70.5 189q0 105 -66 231h-221z" />
<glyph unicode="&#xa5;" d="M-25 1327v25h596v-29q0 -21 -17 -34.5t-38 -19.5t-38 -21.5t-17 -39.5q0 -6 22 -59l140 -289q45 -92 82 -186h10l176 397q37 85 37 123q0 33 -24 51.5t-52 23.5t-52 17.5t-24 34.5v31h461v-29q0 -23 -16.5 -34t-44.5 -18.5t-59.5 -20.5t-68 -50.5t-63.5 -97.5l-186 -412 h311v-67h-999v67h260l-219 453q-21 43 -47.5 71.5t-48 40t-40.5 20t-30 20t-11 32.5zM111 444v68h999v-68h-356v-260q0 -38 16 -61t38 -31.5t44.5 -14t38.5 -16.5t16 -32v-29h-602v29q0 20 14 31t34 17t40.5 15t34.5 32.5t14 61.5v258h-331z" />
<glyph unicode="&#xa8;" horiz-adv-x="1114" d="M217 1235q0 58 41 99.5t100 41.5q58 0 100 -42t42 -99q0 -59 -42 -101t-100 -42q-59 0 -100 42t-41 101zM627 1235q0 58 41 99.5t100 41.5q58 0 99.5 -42t41.5 -99q0 -59 -41.5 -101t-99.5 -42q-59 0 -100 42t-41 101z" />
<glyph unicode="&#xa9;" horiz-adv-x="1712" d="M156 692q0 141 53.5 268t146 219.5t223.5 146.5t279 54t278.5 -54t223 -146.5t146 -219.5t53.5 -268q0 -189 -91 -347t-252 -249.5t-358 -91.5q-158 0 -291 53.5t-222.5 146.5t-139 219t-49.5 269zM246 692q0 -127 44 -239.5t122.5 -195.5t194 -131t251.5 -48 q175 0 315.5 82.5t217.5 222.5t77 309q0 168 -78.5 309t-219 223.5t-312.5 82.5q-132 0 -247 -48.5t-194.5 -131.5t-125 -196t-45.5 -239zM385 676q0 131 57.5 238.5t168 172t253.5 64.5q124 0 244 -66l35 66h33v-315h-17q-18 0 -28.5 12.5t-22.5 48.5q-15 42 -30 71.5 t-41 63t-64.5 51t-87.5 17.5q-127 0 -182.5 -110.5t-55.5 -317.5q0 -208 60 -304t182 -96q49 0 89.5 18t68.5 49.5t46 64.5t31 71q30 84 39 96q9 13 23 13h18v-361h-35l-39 74q-129 -78 -276 -78q-215 0 -342 127.5t-127 329.5z" />
<glyph unicode="&#xab;" horiz-adv-x="991" d="M96 422q0 34 51 82l373 344l43 -31l-233 -393l229 -391q-5 -4 -20.5 -16.5t-24.5 -18.5l-364 346q-29 27 -41.5 44t-12.5 34zM432 422q0 34 51 82l373 344l41 -31q-38 -66 -115.5 -196.5t-115.5 -196.5l229 -391l-45 -35l-365 346q-53 50 -53 78z" />
<glyph unicode="&#xad;" horiz-adv-x="696" d="M82 418v143h532v-143h-532z" />
<glyph unicode="&#xae;" horiz-adv-x="1253" d="M90 915q0 145 69 266t193 192t275 71q152 0 276 -71t193 -192t69 -266q0 -143 -69 -262.5t-193 -189.5t-276 -70q-161 0 -284.5 70.5t-188 188.5t-64.5 263zM172 915q0 -197 126.5 -325.5t328.5 -128.5q207 0 331.5 130t124.5 324q0 196 -127.5 327.5t-328.5 131.5 q-199 0 -327 -129.5t-128 -329.5zM346 647v17q0 9 10.5 15t22.5 9.5t22.5 14t10.5 28.5v410q0 19 -10.5 30t-22.5 13.5t-22.5 9t-10.5 18.5v15h272q263 0 263 -156q0 -75 -61.5 -115.5t-176.5 -40.5h-29q43 -43 150 -34l96 -136q11 -15 39 -40q11 -10 28 -16t26.5 -11 t9.5 -16v-15h-197l-199 271h-8v-187q0 -20 10.5 -30t22.5 -12t22.5 -8t10.5 -19v-15h-279zM559 950h37q55 0 92 37t37 86q0 62 -42 90.5t-105 28.5h-19v-242z" />
<glyph unicode="&#xb4;" horiz-adv-x="1114" d="M393 1083q69 52 120.5 109t76.5 98t47.5 76t47 52.5t60.5 17.5q50 0 77.5 -28.5t27.5 -66.5q0 -27 -23.5 -65t-71.5 -82.5t-136.5 -88t-202.5 -71.5q-3 8 -11.5 24.5t-11.5 24.5z" />
<glyph unicode="&#xb8;" horiz-adv-x="989" d="M319 -518q0 29 3 59q141 0 206.5 39t65.5 90q0 49 -65.5 80t-168.5 33l107 240l61 -9l-61 -133q169 -3 253.5 -59t84.5 -137q0 -85 -100 -146t-281 -61q-64 0 -105 4z" />
<glyph unicode="&#xbb;" horiz-adv-x="991" d="M96 817l41 31l373 -344q53 -50 53 -82q0 -28 -53 -78l-367 -346q-13 9 -43 35l228 391q-76 131 -232 393zM432 817l41 31l373 -344q51 -48 51 -82q0 -28 -53 -78l-365 -346l-45 35l230 391q-156 262 -232 393z" />
<glyph unicode="&#x2c6;" horiz-adv-x="1114" d="M182 1077l291 299q36 36 54.5 50t37.5 14q34 0 90 -62l281 -301l-43 -47l-332 203l-338 -205z" />
<glyph unicode="&#x2da;" horiz-adv-x="1114" d="M338 1237q0 90 65 153.5t158 63.5q91 0 154 -62.5t63 -154.5q0 -90 -63 -151.5t-154 -61.5q-94 0 -158.5 62t-64.5 151zM420 1237q0 -58 40 -98.5t101 -40.5q55 0 95 41t40 98q0 56 -40 100.5t-95 44.5q-60 0 -100.5 -42.5t-40.5 -102.5z" />
<glyph unicode="&#x2dc;" horiz-adv-x="1163" d="M209 1094q5 28 14.5 56t27 60.5t40 57t55.5 41t72 16.5q42 0 162 -37t170 -37q49 0 83 17.5t62 62.5l39 -12q-21 -97 -74.5 -161t-136.5 -64q-49 0 -158 34.5t-155 34.5q-104 0 -156 -84z" />
<glyph unicode="&#x401;" horiz-adv-x="1400" d="M74 0v31q0 20 16 31t38 17t44.5 15.5t38.5 37t16 71.5v975q0 43 -16 69.5t-38 36t-44.5 15.5t-38.5 17t-16 32v32h415q346 0 691 23l16 -14l49 -414l-20 -4q-39 -8 -64 43q-27 56 -42.5 87t-36.5 67t-35.5 52.5t-38 36t-44 26.5t-53.5 14t-68 8.5t-85 1.5h-201v-549h145 q57 0 96.5 17.5t56.5 43.5t28.5 56.5t16 56.5t16.5 43.5t32 17.5h27v-557h-31q-25 0 -37.5 26t-19.5 62.5t-20 73t-51.5 62.5t-102.5 26h-156v-479q0 -67 32.5 -100t125.5 -33h135q38 0 70.5 5t59 12.5t52.5 24.5t45 31.5t42 44.5t39 53t40 66.5t40.5 76t45.5 89.5 q13 27 26 38t33 7l25 -6l-115 -510l-16 -16q-263 10 -645 10h-518zM324 1657q0 57 41 98t100 41q58 0 99.5 -41t41.5 -98q0 -60 -41 -102t-100 -42q-60 0 -100.5 42t-40.5 102zM733 1657q0 57 40.5 98t100.5 41q58 0 100 -41t42 -98q0 -60 -41.5 -102t-100.5 -42 q-60 0 -100.5 42t-40.5 102z" />
<glyph unicode="&#x402;" horiz-adv-x="1847" d="M10 965q27 239 45 419q10 8 25 15q244 -19 629 -19q400 0 626 19l23 -15q26 -222 45 -415l-19 -4q-41 -8 -63 43q-31 69 -52.5 111.5t-47 79.5t-47 55t-54 31.5t-68 17.5t-87.5 4h-123v-576q185 90 370 90q121 0 217.5 -35.5t157 -92.5t100.5 -134.5t56 -156t16 -162.5 q0 -171 -64.5 -305t-185.5 -210.5t-280 -76.5q-82 0 -145.5 16.5t-107.5 60t-44 109.5q0 50 31.5 85.5t80.5 35.5q65 0 100.5 -43.5t35.5 -106.5q0 -52 -29 -84q114 11 178 133t64 365q0 110 -18.5 198.5t-56.5 155t-101 102.5t-148 36q-101 0 -227 -49v-474 q0 -33 7.5 -55.5t19.5 -32t25 -17t25 -11.5t19.5 -15.5t7.5 -29.5v-27h-581v27q0 21 15 33t36.5 18.5t42.5 16t36 34t15 64.5v1114h-64q-78 0 -123.5 -10t-86.5 -46t-70 -89.5t-74 -157.5q-21 -52 -61 -43z" />
<glyph unicode="&#x403;" horiz-adv-x="1277" d="M74 1348v32h420q357 0 702 23l16 -14l50 -414l-19 -4q-23 -3 -36.5 6.5t-28.5 40.5q-35 78 -60.5 123t-54.5 81.5t-63.5 52.5t-78 24t-108.5 8h-252v-1119q0 -39 16.5 -62t40 -32t47 -15t40 -17.5t16.5 -32.5v-29h-637v29q0 21 15 33t36 18.5t42.5 16t36.5 33.5t15 63 v983q0 44 -16 70.5t-38.5 36.5t-45.5 16t-39 17t-16 32zM438 1559q73 37 131.5 82t90 79.5t58.5 64t53 46t58 16.5q49 0 78 -31.5t29 -66.5q0 -18 -13 -42.5t-48 -57.5t-86.5 -61.5t-139.5 -51.5t-196 -31z" />
<glyph unicode="&#x404;" horiz-adv-x="1415" d="M86 672q0 150 51 283.5t143 233.5t230.5 158t304.5 58q105 0 190.5 -24.5t186.5 -82.5l55 107h41v-473h-20q-27 0 -41.5 19t-30.5 69q-17 50 -33 88t-45.5 83t-64.5 74t-88.5 48.5t-118.5 19.5q-93 0 -163.5 -40t-116 -116.5t-70.5 -180.5t-31 -238l571 41v-144l-571 15 q0 -309 97.5 -465t307.5 -156q138 0 229.5 90.5t135.5 257.5q27 99 41 121q17 27 41 27h20v-361q-236 -207 -530 -207q-164 0 -300 52.5t-228 145t-142.5 220.5t-50.5 277z" />
<glyph unicode="&#x405;" horiz-adv-x="1273" d="M63 264q0 66 40 105t96 39q74 0 117.5 -53t43.5 -132q0 -68 -28 -129q98 -45 225 -45q65 0 122 12t105 37.5t76.5 70t28.5 103.5q0 67 -43 124.5t-111.5 100.5t-151.5 84t-166 83.5t-151.5 90t-111.5 113t-43 142.5q0 79 29 145t79.5 112t119 78t146.5 47t164 15 q217 0 347 -77t130 -187q0 -63 -38 -99t-93 -36q-72 0 -112.5 49.5t-40.5 126.5q0 63 24 123q-87 26 -178 26q-50 0 -95 -9.5t-84 -29.5t-62 -56.5t-23 -84.5q0 -57 43.5 -107t112.5 -89.5t153 -79t168 -85t153 -97.5t112.5 -125.5t43.5 -159.5q0 -140 -84 -240t-224 -147.5 t-320 -47.5q-236 0 -377.5 86.5t-141.5 202.5z" />
<glyph unicode="&#x406;" horiz-adv-x="823" d="M92 0v27q0 21 15 33t36.5 18t43 15.5t36.5 33.5t15 63v996q0 39 -15 63t-36.5 33t-43 15t-36.5 18.5t-15 34.5v28h637v-28q0 -22 -16.5 -34.5t-40 -18.5t-47 -15t-40 -32t-16.5 -62v-1000q0 -39 16.5 -62.5t40 -32.5t47 -15t40 -17.5t16.5 -33.5v-27h-637z" />
<glyph unicode="&#x407;" horiz-adv-x="823" d="M66 1602q0 58 41 99.5t100 41.5q58 0 99.5 -42t41.5 -99q0 -59 -41.5 -101.5t-99.5 -42.5q-59 0 -100 42.5t-41 101.5zM92 0v27q0 21 15 33t36.5 18t43 15.5t36.5 33.5t15 63v996q0 39 -15 63t-36.5 33t-43 15t-36.5 18.5t-15 34.5v28h637v-28q0 -22 -16.5 -34.5 t-40 -18.5t-47 -15t-40 -32t-16.5 -62v-1000q0 -39 16.5 -62.5t40 -32.5t47 -15t40 -17.5t16.5 -33.5v-27h-637zM475 1602q0 58 41 99.5t100 41.5q58 0 100 -42t42 -99q0 -59 -42 -101.5t-100 -42.5q-59 0 -100 42.5t-41 101.5z" />
<glyph unicode="&#x408;" horiz-adv-x="815" d="M-236 -307q0 63 43.5 104t108.5 41q78 0 123 -56.5t55 -146.5q90 56 126 159t36 315v1077q0 39 -15.5 63t-38 33t-45 15t-38 18.5t-15.5 34.5v28h650v-28q0 -22 -17 -34.5t-41.5 -18.5t-49 -15t-41.5 -32t-17 -62v-826q0 -432 -213 -624q-102 -92 -205.5 -143.5 t-224.5 -51.5q-27 0 -56.5 8t-58.5 24.5t-47.5 47t-18.5 70.5z" />
<glyph unicode="&#x409;" horiz-adv-x="2232" d="M6 115q0 61 45.5 100t110.5 39q69 0 118.5 -46.5t65.5 -117.5q63 56 107 156.5t70.5 248.5t41 307t23.5 380q0 40 -21 64t-51 32.5t-59.5 15t-50.5 18.5t-21 34v32h1133v-28q0 -22 -17.5 -33.5t-42 -17.5t-49 -14.5t-42 -32t-17.5 -62.5v-379q155 18 254 18 q83 0 159 -11.5t152.5 -41.5t132 -75.5t90.5 -120.5t35 -170q0 -56 -16 -110.5t-54.5 -109.5t-96.5 -96.5t-149.5 -67.5t-205.5 -26h-779v31q0 17 11 27.5t27 14t35 11.5t35 19t27 36.5t11 63.5v1097h-342q-2 -128 -5.5 -228.5t-11.5 -218.5t-19.5 -208t-31 -186.5 t-44.5 -166.5t-61 -135t-80.5 -105.5t-102.5 -64.5t-127 -24q-80 0 -133.5 39.5t-53.5 112.5zM1350 236q0 -35 2 -56.5t10.5 -44.5t24.5 -35t45 -20t71 -8h17q132 0 217.5 82.5t85.5 240.5q0 177 -101.5 263.5t-279.5 86.5q-42 0 -92 -6v-503z" />
<glyph unicode="&#x40a;" horiz-adv-x="2232" d="M72 0v27q0 21 15 33t36 18t42.5 15.5t36.5 33.5t15 63v996q0 39 -15 63t-36.5 33t-42.5 15t-36 18.5t-15 34.5v28h626v-28q0 -22 -15.5 -34.5t-38 -18.5t-44.5 -15t-37.5 -32t-15.5 -62v-410h473v408q0 33 -11 55.5t-27.5 31.5t-35.5 17t-35.5 12.5t-27.5 16.5t-11 31v28 h633v-28q0 -22 -16 -34.5t-38.5 -18.5t-44.5 -15t-38 -32t-16 -62v-395q126 12 215 12q90 0 168.5 -10t159.5 -38t138 -73t93.5 -121t36.5 -176q0 -52 -16 -104t-54.5 -104t-95.5 -91t-146 -63.5t-198 -24.5h-774v31q0 17 10.5 27.5t26 14t34 11.5t34 19t26 36.5t10.5 63.5 v502h-473v-517q0 -39 15.5 -62.5t37.5 -32.5t44.5 -15t38 -17.5t15.5 -33.5v-27h-626zM1352 236q0 -89 28.5 -126.5t124.5 -37.5h17q126 0 208 78.5t82 230.5q0 82 -20.5 143.5t-54.5 98.5t-84.5 60t-103.5 31.5t-119 8.5q-28 0 -78 -4v-483z" />
<glyph unicode="&#x40b;" horiz-adv-x="1822" d="M12 967l45 419l25 15q231 -21 629 -21q387 0 624 21l25 -15l45 -415l-21 -4q-22 -4 -35 5.5t-26 37.5q-46 102 -76 154.5t-71 88t-86 45t-123 9.5h-125v-590q86 56 191.5 84t193.5 28q185 0 291 -101t106 -294v-246q0 -39 16.5 -62t40.5 -32t48 -15t40.5 -17.5 t16.5 -32.5v-29h-637v29q0 21 14.5 33t35.5 18.5t42.5 16t36 33.5t14.5 63v239q0 139 -64.5 201.5t-172.5 62.5q-100 0 -213 -47v-461q0 -39 16.5 -62t39.5 -32t46.5 -15t40 -17.5t16.5 -32.5v-29h-634v29q0 21 15 33t36.5 18.5t42.5 16t36 33.5t15 63l-2 1114h-64 q-63 0 -103.5 -7.5t-74 -24t-61.5 -54t-53 -85t-60 -130.5q-11 -27 -25 -37t-38 -6z" />
<glyph unicode="&#x40c;" horiz-adv-x="1513" d="M72 0v27q0 21 15 33t36 18t42.5 15.5t36.5 33.5t15 63v996q0 39 -15 63t-36.5 33t-42.5 15t-36 18.5t-15 34.5v28h637v-28q0 -22 -16.5 -34.5t-40 -18.5t-47 -15t-40 -32t-16.5 -62v-420h45q67 0 113 11.5t84.5 36t73.5 76.5t66.5 117t76.5 175q18 45 38.5 79.5t50.5 68 t72 51.5t93 18q45 0 85.5 -12.5t72.5 -45.5t32 -83q0 -62 -43.5 -98t-101.5 -36q-55 0 -104.5 29.5t-67.5 85.5q-25 -29 -61 -107.5t-68 -151t-87.5 -142.5t-119.5 -95v-12q42 -2 78.5 -9t65.5 -15t56 -24.5t46 -29.5t40.5 -38.5t34 -42.5t32 -51.5t30.5 -54.5t32 -62 q62 -141 104 -208.5t81.5 -93.5t103.5 -32v-72q-90 -24 -162 -29q-60 0 -110 11t-88 28.5t-72 49.5t-58.5 64.5t-51 82.5t-47 94.5t-48.5 109.5q-5 12 -8 19l-6 15q-54 126 -85 167q-56 73 -157 78h-16h-45v-502q0 -39 16.5 -62.5t40 -32.5t47 -15t40 -17.5t16.5 -33.5v-27 h-637zM608 1559q73 37 131.5 82t90 79.5t58.5 64t53 46t58 16.5q49 0 78 -31.5t29 -66.5q0 -18 -13 -42.5t-48 -57.5t-86.5 -61.5t-139.5 -51.5t-196 -31z" />
<glyph unicode="&#x40e;" horiz-adv-x="1398" d="M10 1352v28h645v-32q0 -19 -18.5 -32.5t-41.5 -21.5t-41.5 -28.5t-18.5 -51.5q0 -24 18 -59l276 -528h13l221 499q22 52 22 78q0 37 -28 59t-61 28t-61 19.5t-28 35.5v34h482v-32q0 -21 -14 -31.5t-38.5 -19t-53 -22t-62.5 -52t-62 -97.5l-395 -847q-86 -185 -173.5 -265 t-207.5 -80q-84 0 -138.5 42.5t-54.5 109.5q0 57 42 95t108 38q75 0 117.5 -46t58.5 -114q82 53 150 215l-473 881q-24 46 -52.5 76.5t-50.5 43t-40.5 22.5t-29 22t-10.5 33zM465 1702q0 61 39 99t100 38q88 0 125 -76q27 -56 21 -137q194 0 385 195l45 -33 q-51 -86 -113.5 -146.5t-124.5 -89.5t-113.5 -41t-101.5 -12q-124 0 -193 60.5t-69 142.5z" />
<glyph unicode="&#x40f;" horiz-adv-x="1679" d="M74 0v27q0 22 16 34t38 18.5t44.5 15.5t38.5 33.5t16 64.5v993q0 39 -15 63t-37 33.5t-43.5 16t-36.5 18.5t-15 33v28h631v-28q0 -21 -16 -32.5t-38.5 -18t-45 -15t-38.5 -32t-16 -62.5v-1112h563v1112q0 39 -16 62.5t-39 32t-45.5 15t-38.5 18t-16 32.5v28h632v-28 q0 -21 -15 -33t-36.5 -18.5t-43.5 -16t-37 -33.5t-15 -63v-993q0 -40 16 -64.5t38.5 -33.5t45 -15.5t38.5 -18.5t16 -34v-27h-551q-71 0 -95 -19.5t-34 -89.5q-8 -48 -22.5 -145t-22.5 -145h-72q-5 30 -53 286q-13 73 -40.5 93t-107.5 20h-532z" />
<glyph unicode="&#x410;" horiz-adv-x="1519" d="M16 0v29q0 21 15.5 31.5t42 19.5t56 23t61.5 51.5t55 95.5l442 1134q37 4 180 13l469 -1182q19 -48 43.5 -78.5t44.5 -41.5t38 -18t28 -18.5t10 -33.5v-25h-608v27q0 22 18.5 35.5t40 19t40 22.5t18.5 46q0 24 -13 59l-86 213h-518l-59 -160q-17 -47 -17 -76 q0 -36 16.5 -59t40 -32.5t47 -16.5t40 -18t16.5 -31v-29h-461zM420 492h463l-101 249q-57 142 -125 353h-8q-54 -138 -229 -602z" />
<glyph unicode="&#x411;" horiz-adv-x="1441" d="M66 1348v32h593q322 4 555 21l17 -15l49 -409l-20 -6q-21 -6 -35.5 6t-28.5 43q-32 71 -54.5 113.5t-51.5 77.5t-53.5 51.5t-66.5 28t-84 14t-114 2.5h-217v-506q111 18 236 18q85 0 161.5 -10t156.5 -38.5t137.5 -73t94.5 -119.5t37 -172q0 -56 -16 -110t-54.5 -108.5 t-96.5 -95.5t-149.5 -66.5t-205.5 -25.5h-778v31q0 20 15 30t36 16t42.5 16t36.5 37.5t15 72.5v973q0 43 -16 69.5t-39.5 36.5t-46.5 16t-39 17.5t-16 32.5zM555 236q0 -44 4 -69.5t19 -49.5t47 -34.5t84 -10.5h16q133 0 218 80t85 239q0 92 -28.5 160t-80 107.5t-116.5 58 t-146 18.5q-53 0 -102 -6v-493z" />
<glyph unicode="&#x412;" horiz-adv-x="1454" d="M72 0v31q0 20 15 30t37 16t43.5 16t36.5 37.5t15 72.5v973q0 44 -15 70.5t-36.5 36.5t-43.5 16t-37 17t-15 32v32h766q101 0 182 -19t132.5 -49.5t85.5 -72.5t48 -86t14 -92q0 -121 -98 -203.5t-246 -93.5v-8q107 -7 191 -43t133.5 -89t74.5 -113.5t25 -123.5 q0 -56 -15.5 -108t-53.5 -104t-95.5 -90t-148.5 -61.5t-205 -23.5h-790zM549 236q0 -35 2 -56.5t10.5 -44.5t24.5 -35t45 -20t71 -8h21q140 0 222.5 77.5t82.5 237.5q0 67 -18 120t-44 86.5t-66.5 58t-74 36.5t-78 18.5t-67.5 7.5t-53 1h-78v-479zM549 786h125q49 0 95 12.5 t91.5 40t73 81t27.5 127.5q0 258 -343 258h-69v-519z" />
<glyph unicode="&#x413;" horiz-adv-x="1277" d="M74 1348v32h420q357 0 702 23l16 -14l50 -414l-19 -4q-23 -3 -36.5 6.5t-28.5 40.5q-35 78 -60.5 123t-54.5 81.5t-63.5 52.5t-78 24t-108.5 8h-252v-1119q0 -39 16.5 -62t40 -32t47 -15t40 -17.5t16.5 -32.5v-29h-637v29q0 21 15 33t36 18.5t42.5 16t36.5 33.5t15 63 v983q0 44 -16 70.5t-38.5 36.5t-45.5 16t-39 17t-16 32z" />
<glyph unicode="&#x414;" horiz-adv-x="1626" d="M25 61l18 17h176q119 150 178.5 429t75.5 675q0 40 -21 64t-50.5 32.5t-59.5 15t-51 18.5t-21 34v32h1254v-28q0 -22 -17.5 -33.5t-42 -17.5t-49 -14.5t-42 -32t-17.5 -62.5v-1112h190l19 -17q-6 -77 -41 -467q-6 0 -18.5 -2t-18.5 -2q-37 0 -45 45q-8 41 -53 246 q-17 78 -46.5 98.5t-115.5 20.5h-865q-85 0 -114.5 -20.5t-46.5 -98.5q-6 -27 -17.5 -77.5t-20.5 -91.5t-16 -77q-8 -45 -45 -45q-6 0 -18 2t-18 2q-35 390 -41 467zM319 78h707v1222h-463q-2 -28 -4.5 -98t-9.5 -158q-39 -668 -230 -966z" />
<glyph unicode="&#x415;" horiz-adv-x="1400" d="M74 0v31q0 20 16 31t38 17t44.5 15.5t38.5 37t16 71.5v975q0 43 -16 69.5t-38 36t-44.5 15.5t-38.5 17t-16 32v32h415q346 0 691 23l16 -14l49 -414l-20 -4q-39 -8 -64 43q-27 56 -42.5 87t-36.5 67t-35.5 52.5t-38 36t-44 26.5t-53.5 14t-68 8.5t-85 1.5h-201v-549h145 q57 0 96.5 17.5t56.5 43.5t28.5 56.5t16 56.5t16.5 43.5t32 17.5h27v-557h-31q-25 0 -37.5 26t-19.5 62.5t-20 73t-51.5 62.5t-102.5 26h-156v-479q0 -67 32.5 -100t125.5 -33h135q38 0 70.5 5t59 12.5t52.5 24.5t45 31.5t42 44.5t39 53t40 66.5t40.5 76t45.5 89.5 q13 27 26 38t33 7l25 -6l-115 -510l-16 -16q-263 10 -645 10h-518z" />
<glyph unicode="&#x416;" horiz-adv-x="2199" d="M10 0v72q73 8 118.5 44.5t98.5 141.5q18 36 42.5 88.5t39 82.5t36.5 71.5t39.5 65t43 53t52.5 46t62 33t78 24.5t95 11v12q-52 20 -98 69t-78.5 109.5t-59.5 120.5t-54 116t-48 81q-19 -54 -68.5 -84.5t-103.5 -30.5q-56 0 -102 37.5t-46 96.5q0 70 54.5 109.5 t124.5 39.5q54 0 98 -18t75 -53t52 -70t41 -84q37 -90 63.5 -148.5t56.5 -109t56.5 -78t62.5 -47.5t75 -26.5t93 -6.5h25v418q0 39 -15 63t-36.5 33t-43 15t-36.5 18.5t-15 34.5v28h637v-28q0 -22 -16.5 -34.5t-39.5 -18.5t-46.5 -15t-40 -32t-16.5 -62v-420h22 q64 0 109 11.5t83.5 36t73 75.5t67.5 118t77 175q19 48 40 84t52 70t75 52.5t99 18.5t116.5 -41.5t61.5 -107.5q0 -63 -43.5 -98.5t-103.5 -35.5q-54 0 -103.5 30.5t-68.5 84.5q-21 -25 -48 -81t-54 -116t-59.5 -120.5t-78.5 -109.5t-98 -69v-12q54 -3 98.5 -13.5t77.5 -23 t64 -38t51 -46t44.5 -60.5t39.5 -67t41 -79q63 -143 104.5 -210t80 -92.5t101.5 -31.5v-72q-86 -24 -162 -29q-59 0 -109.5 12.5t-86.5 26.5t-73 52t-57 61t-52 84t-45 90t-47 108q-7 17 -11 25q-31 72 -53.5 114t-53 78.5t-66.5 52t-83 15.5h-22v-502q0 -39 16.5 -62.5 t40 -32.5t46.5 -15t39.5 -17.5t16.5 -33.5v-27h-637v27q0 21 15 33t36.5 18t43 15.5t36.5 33.5t15 63v500h-23q-61 0 -93.5 -12t-61.5 -51q-37 -57 -127 -260t-142 -273q-53 -70 -129.5 -96.5t-185.5 -26.5q-71 5 -162 29z" />
<glyph unicode="&#x417;" horiz-adv-x="1337" d="M70 137v395h26q32 0 44 -21.5t25 -82.5q3 -16 5 -25q80 -360 397 -360q80 0 142 26t99 70t56 97t19 112q0 352 -428 352q-6 0 -84 -4l-9 68q233 36 347 117.5t114 218.5q0 115 -78.5 171t-195.5 56q-130 0 -221 -63q45 -50 45 -134q0 -66 -43 -113.5t-111 -47.5 q-62 0 -95.5 39t-33.5 96q0 37 19.5 77t62.5 81t104 73.5t153.5 53t201.5 20.5q133 0 236.5 -23t165 -58t101 -81t54 -88t14.5 -84q0 -119 -117 -212.5t-344 -106.5l-2 -8q247 -13 384 -113.5t137 -249.5q0 -82 -38.5 -154.5t-115 -131.5t-205 -93.5t-293.5 -34.5 q-313 0 -538 166z" />
<glyph unicode="&#x418;" horiz-adv-x="1675" d="M74 0v29q0 21 15 33t36 18.5t42.5 16t36.5 33.5t15 63v993q0 39 -15 63t-36.5 33.5t-42.5 16t-36 19t-15 34.5v26h631v-26q0 -22 -16 -34.5t-39 -18.5t-46 -15t-39 -33t-16 -63v-815l561 766v49q0 39 -14.5 63t-35 33t-40.5 15t-34.5 18.5t-14.5 34.5v26h633v-26 q0 -22 -16.5 -34.5t-40.5 -18.5t-48 -15t-40.5 -32t-16.5 -62v-1002q0 -39 16.5 -62t40.5 -31t48 -14t40.5 -18t16.5 -34v-29h-633v29q0 21 14.5 33.5t34.5 19t40.5 16.5t35 33.5t14.5 61.5v819l-561 -770v-54q0 -39 16 -62t39 -32t46 -15t39 -17.5t16 -32.5v-29h-631z" />
<glyph unicode="&#x419;" horiz-adv-x="1675" d="M74 0v29q0 21 15 33t36 18.5t42.5 16t36.5 33.5t15 63v993q0 39 -15 63t-36.5 33.5t-42.5 16t-36 19t-15 34.5v26h631v-26q0 -22 -16 -34.5t-39 -18.5t-46 -15t-39 -33t-16 -63v-815l561 766v49q0 39 -14.5 63t-35 33t-40.5 15t-34.5 18.5t-14.5 34.5v26h633v-26 q0 -22 -16.5 -34.5t-40.5 -18.5t-48 -15t-40.5 -32t-16.5 -62v-1002q0 -39 16.5 -62t40.5 -31t48 -14t40.5 -18t16.5 -34v-29h-633v29q0 21 14.5 33.5t34.5 19t40.5 16.5t35 33.5t14.5 61.5v819l-561 -770v-54q0 -39 16 -62t39 -32t46 -15t39 -17.5t16 -32.5v-29h-631z M547 1702q0 61 39 99t100 38q88 0 125 -76q26 -54 20 -137q195 0 386 195l45 -33q-51 -86 -113.5 -146.5t-124.5 -89.5t-113.5 -41t-101.5 -12q-124 0 -193 60.5t-69 142.5z" />
<glyph unicode="&#x41a;" horiz-adv-x="1513" d="M72 0v27q0 21 15 33t36 18t42.5 15.5t36.5 33.5t15 63v996q0 39 -15 63t-36.5 33t-42.5 15t-36 18.5t-15 34.5v28h637v-28q0 -22 -16.5 -34.5t-40 -18.5t-47 -15t-40 -32t-16.5 -62v-420h45q67 0 113 11.5t84.5 36t73.5 76.5t66.5 117t76.5 175q18 45 38.5 79.5t50.5 68 t72 51.5t93 18q45 0 85.5 -12.5t72.5 -45.5t32 -83q0 -62 -43.5 -98t-101.5 -36q-55 0 -104.5 29.5t-67.5 85.5q-25 -29 -61 -107.5t-68 -151t-87.5 -142.5t-119.5 -95v-12q42 -2 78.5 -9t65.5 -15t56 -24.5t46 -29.5t40.5 -38.5t34 -42.5t32 -51.5t30.5 -54.5t32 -62 q62 -141 104 -208.5t81.5 -93.5t103.5 -32v-72q-90 -24 -162 -29q-60 0 -110 11t-88 28.5t-72 49.5t-58.5 64.5t-51 82.5t-47 94.5t-48.5 109.5q-5 12 -8 19l-6 15q-54 126 -85 167q-56 73 -157 78h-16h-45v-502q0 -39 16.5 -62.5t40 -32.5t47 -15t40 -17.5t16.5 -33.5v-27 h-637z" />
<glyph unicode="&#x41b;" horiz-adv-x="1648" d="M6 115q0 61 45.5 100t110.5 39q69 0 118.5 -46.5t65.5 -117.5q63 56 107 156.5t70.5 248.5t41 307t23.5 380q0 40 -21 64t-51 32.5t-59.5 15t-50.5 18.5t-21 34v32h1190v-28q0 -26 -26.5 -39t-57.5 -18t-57.5 -30t-26.5 -73v-1002q0 -39 16.5 -62.5t40 -31.5t47 -14 t40 -18t16.5 -35v-27h-633v27q0 21 14.5 33t35 19t41.5 16.5t35.5 33t14.5 61.5v1110h-399q-6 -411 -51 -712q-17 -115 -38 -203.5t-56 -170.5t-80 -135t-110.5 -84.5t-147.5 -31.5q-72 0 -129.5 41.5t-57.5 110.5z" />
<glyph unicode="&#x41c;" horiz-adv-x="2023" d="M47 0v29q0 16 10.5 27t22.5 15.5t36 12t36 12.5q80 34 88 158l51 909q2 43 -13.5 70.5t-39.5 39t-48 20t-41.5 21t-17.5 32.5v34h508l336 -809q36 -85 63 -186h15q50 135 174.5 473.5t193.5 521.5h502v-37q0 -20 -17.5 -32t-42.5 -19.5t-49.5 -19t-40.5 -39t-14 -70.5 l47 -970q2 -43 19.5 -68t40.5 -34t46 -14t38.5 -16.5t15.5 -33.5v-27h-631v27q0 25 23 38.5t51 19t51 29.5t23 68q0 6 -49 1014h-9q-349 -956 -444 -1212l-84 -4l-412 958q-81 190 -110 276h-8l-48 -999q-2 -47 18 -75.5t49.5 -38.5t60 -16.5t52 -19t21.5 -36.5v-29h-473z " />
<glyph unicode="&#x41d;" horiz-adv-x="1669" d="M72 0v27q0 21 15 33t36 18t42.5 15.5t36.5 33.5t15 63v996q0 39 -15 63t-36.5 33t-42.5 15t-36 18.5t-15 34.5v28h633v-28q0 -22 -16.5 -34.5t-39.5 -18.5t-46 -15t-39.5 -32t-16.5 -62v-426h555v424q0 39 -14.5 63t-35 33t-40.5 15.5t-34.5 18.5t-14.5 34v28h630v-28 q0 -22 -16.5 -34.5t-39.5 -18.5t-46.5 -14.5t-40 -31.5t-16.5 -61v-1002q0 -39 16.5 -62.5t40 -31.5t46.5 -14t39.5 -18t16.5 -35v-27h-630v27q0 21 14.5 33t34.5 19t40.5 16.5t35 33t14.5 61.5v500h-555v-502q0 -39 16.5 -62.5t39.5 -32.5t46 -15t39.5 -17.5t16.5 -33.5 v-27h-633z" />
<glyph unicode="&#x41e;" horiz-adv-x="1652" d="M88 690q0 117 32 224.5t94.5 196.5t150 155t205.5 102.5t253 36.5q181 0 325.5 -58.5t234 -158.5t136 -226t46.5 -268q0 -114 -30.5 -220t-93 -197t-150 -159t-208.5 -106.5t-262 -38.5q-180 0 -322 57.5t-230.5 157t-134.5 227.5t-46 275zM465 690q0 -109 10.5 -201 t37 -176.5t67 -143t105 -93.5t146.5 -35q98 0 170 52t112 144t58.5 202t18.5 243q0 110 -10.5 202.5t-37 177.5t-67 144t-105 94t-147.5 35q-96 0 -168 -56t-112 -151t-59 -204.5t-19 -233.5z" />
<glyph unicode="&#x41f;" horiz-adv-x="1656" d="M72 0v27q0 21 15 33t36 18t42.5 15.5t36.5 33.5t15 63v996q0 39 -15 63t-36.5 33t-42.5 15t-36 18.5t-15 34.5v28h1521v-28q0 -22 -16.5 -34.5t-39.5 -18.5t-46.5 -14.5t-40 -31.5t-16.5 -61v-1002q0 -39 16.5 -62.5t40 -31.5t46.5 -14t39.5 -18t16.5 -35v-27h-630v27 q0 21 14.5 33t34.5 19t40.5 16.5t35 33t14.5 61.5v996q0 59 -1 90l-1 31h-553v-1119q0 -39 16.5 -62.5t39.5 -32.5t46 -15t39.5 -17.5t16.5 -33.5v-27h-633z" />
<glyph unicode="&#x420;" horiz-adv-x="1349" d="M72 1348v32h649q97 0 181.5 -12.5t162 -43t132.5 -76.5t87.5 -117t32.5 -162q0 -87 -31 -158t-84 -118.5t-126 -80t-154.5 -47t-171.5 -14.5q-106 0 -197 12v-375q0 -39 16.5 -62.5t40 -32.5t47 -15t40 -17.5t16.5 -33.5v-27h-639v27q0 21 15 33t36 18t42.5 15.5 t36.5 33.5t15 63v986q0 44 -15 70.5t-36.5 36.5t-43.5 16t-37 17t-15 32zM553 635q30 -6 65 -6q152 0 248.5 89.5t96.5 252.5q0 165 -88.5 250.5t-225.5 85.5h-96v-672z" />
<glyph unicode="&#x421;" horiz-adv-x="1411" d="M88 674q0 150 51.5 283.5t144.5 233.5t233 158t306 58q104 0 192.5 -25t188.5 -82l56 107h40v-475h-20q-26 0 -41 19.5t-31 68.5q-16 50 -33.5 89t-47.5 83t-66 73t-90 48.5t-119 19.5q-387 0 -387 -663q0 -322 100.5 -471.5t294.5 -149.5q63 0 118.5 19t95 49t72 72 t53.5 83.5t36 87.5q5 16 12 38.5t11 35.5t9.5 29.5t11 26t12 18t14.5 12.5t18 4h23v-544h-48l-61 120q-200 -125 -430 -125q-218 0 -383 91.5t-250.5 249t-85.5 358.5z" />
<glyph unicode="&#x422;" horiz-adv-x="1419" d="M14 946q8 69 25.5 215.5t26.5 222.5q12 9 24 15q244 -19 619 -19q366 0 616 19q15 -7 25 -15l49 -432l-19 -4q-6 -2 -14 -2q-29 0 -49 45q-47 104 -77.5 157.5t-72 93.5t-88.5 52.5t-123 12.5h-82v-1119q0 -39 16.5 -62.5t40 -32.5t47 -15t40 -17.5t16.5 -33.5v-27h-637 v27q0 21 15 33t36.5 18t43 15.5t36.5 33.5t15 63v1117h-88q-51 0 -87.5 -5.5t-69 -21.5t-55 -36.5t-48.5 -61t-47 -83.5t-52 -114q-18 -43 -51 -43h-10z" />
<glyph unicode="&#x423;" horiz-adv-x="1398" d="M10 1352v28h645v-32q0 -19 -18.5 -32.5t-41.5 -21.5t-41.5 -28.5t-18.5 -51.5q0 -24 18 -59l276 -528h13l221 499q22 52 22 78q0 37 -28 59t-61 28t-61 19.5t-28 35.5v34h482v-32q0 -21 -14 -31.5t-38.5 -19t-53 -22t-62.5 -52t-62 -97.5l-395 -847q-86 -185 -173.5 -265 t-207.5 -80q-84 0 -138.5 42.5t-54.5 109.5q0 57 42 95t108 38q75 0 117.5 -46t58.5 -114q82 53 150 215l-473 881q-24 46 -52.5 76.5t-50.5 43t-40.5 22.5t-29 22t-10.5 33z" />
<glyph unicode="&#x424;" horiz-adv-x="1906" d="M76 705q0 195 196.5 329t507.5 154q-1 37 -16 60t-36 32t-42.5 16t-36 19.5t-14.5 34.5v28h637v-28q0 -22 -16.5 -34.5t-40 -19t-47 -15.5t-40 -32t-16.5 -61q325 -10 520 -143t195 -336q0 -206 -187 -341.5t-528 -156.5v-23q0 -39 16.5 -62.5t40 -32.5t47 -15t40 -17.5 t16.5 -33.5v-27h-637v27q0 21 15 33t36 18t42.5 15.5t36.5 33.5t15 63v19q-347 29 -525.5 158.5t-178.5 337.5zM426 707q0 -191 98.5 -302t255.5 -124v831q-151 -15 -252.5 -126.5t-101.5 -278.5zM1112 283q164 15 264.5 129.5t100.5 281.5q0 182 -98.5 293.5t-266.5 128.5 v-833z" />
<glyph unicode="&#x425;" horiz-adv-x="1490" d="M27 0v27q0 24 14.5 35.5t43.5 21.5t64.5 26t87.5 61t103 114l264 354l-315 487q-38 58 -76.5 95.5t-65 51t-48 23t-32 22t-10.5 36.5v26h664v-26q0 -26 -15.5 -42t-34.5 -21.5t-34.5 -21.5t-15.5 -42q0 -38 34 -90l187 -285l176 252q57 82 57 125q0 25 -21.5 39.5t-48 19 t-48 20.5t-21.5 44v28h494v-26q0 -28 -16 -41t-47 -23t-67.5 -24t-87 -54.5t-96.5 -103.5l-233 -320l346 -524q39 -60 79 -99.5t67.5 -55t50 -26t33.5 -22t11 -32.5v-29h-694v27q0 23 18.5 36.5t41 19t41 22t18.5 45.5q0 35 -37 94l-213 334l-215 -302q-61 -89 -61 -133 q0 -26 23 -40t50.5 -18t50.5 -18t23 -40v-27h-489z" />
<glyph unicode="&#x426;" horiz-adv-x="1716" d="M78 0v29q0 22 16 33.5t38 18t44.5 15.5t38.5 33t16 64v995q0 39 -15 63t-36 33.5t-42.5 16t-36.5 18.5t-15 33v26h631v-26q0 -22 -16 -33.5t-38.5 -18t-45 -15t-38.5 -32.5t-16 -63v-1112h551v1110q0 38 -14.5 61.5t-36 33.5t-42.5 16.5t-35.5 19t-14.5 33.5v26h633v-26 q0 -23 -16.5 -35t-40 -18t-47 -14.5t-40 -32t-16.5 -62.5v-1110h209l18 -17l-41 -471l-24 -2q-46 -3 -58 52l-53 239q-17 78 -46.5 98.5t-115.5 20.5h-1255z" />
<glyph unicode="&#x427;" horiz-adv-x="1540" d="M14 1352v28h637v-28q0 -21 -16 -33t-39.5 -18.5t-46.5 -16t-39 -33.5t-16 -63v-199q0 -140 68 -203t181 -63q119 0 232 47v422q0 39 -15 62.5t-37 32t-44 15t-37 18t-15 32.5v28h639v-28q0 -21 -16.5 -33t-40 -18.5t-46.5 -16t-39.5 -33.5t-16.5 -63v-1000q0 -39 16 -62 t39.5 -32t46.5 -15t39 -17.5t16 -32.5v-29h-637v29q0 21 15 33t37 18.5t44 16t37 33.5t15 63v509q-85 -55 -199.5 -83.5t-204.5 -28.5q-186 0 -297.5 101.5t-111.5 295.5v205q0 39 -15 62.5t-37 32t-44 15t-37 18t-15 32.5z" />
<glyph unicode="&#x428;" horiz-adv-x="2295" d="M76 0v27q0 22 16 34t38 18.5t44.5 15.5t38.5 33.5t16 64.5v993q0 39 -15.5 63t-37.5 33.5t-43.5 16t-37 18.5t-15.5 33v28h631v-28q0 -21 -15.5 -32.5t-37.5 -18t-44 -15t-37.5 -32t-15.5 -62.5v-1112h422v1108q0 39 -15.5 63t-37.5 33.5t-43.5 16t-37 18.5t-15.5 33v28 h630v-28q0 -21 -15.5 -32.5t-38 -18t-44.5 -15t-37.5 -32t-15.5 -62.5v-1112h416v1112q0 39 -15 62.5t-36.5 32t-43 15t-36.5 18t-15 32.5v28h631v-28q0 -21 -16 -33t-38.5 -18.5t-45 -16t-38.5 -33.5t-16 -63v-993q0 -40 16 -64.5t38.5 -33.5t45 -15.5t38.5 -18.5t16 -34 v-27h-2138z" />
<glyph unicode="&#x429;" horiz-adv-x="2328" d="M76 0v27q0 22 16 34t38 18.5t44.5 15.5t38.5 33.5t16 64.5v993q0 39 -15.5 63t-37.5 33.5t-43.5 16t-37 18.5t-15.5 33v28h631v-28q0 -21 -15.5 -32.5t-37.5 -18t-44 -15t-37.5 -32t-15.5 -62.5v-1112h422v1108q0 39 -15.5 63t-37.5 33.5t-43.5 16t-37 18.5t-15.5 33v28 h630v-28q0 -21 -15.5 -32.5t-38 -18t-44.5 -15t-37.5 -32t-15.5 -62.5v-1112h416v1108q0 38 -15 61.5t-36 33.5t-42 16.5t-36 19t-15 33.5v28h633v-28q0 -22 -16.5 -34t-39.5 -18t-46 -14.5t-39.5 -31.5t-16.5 -62v-1112h203l21 -17l-43 -467q-24 -4 -37 -4q-20 0 -29 10.5 t-14 34.5l-58 246q-18 78 -47 98.5t-114 20.5h-1866z" />
<glyph unicode="&#x42a;" horiz-adv-x="1759" d="M20 954q8 82 26.5 235t23.5 197q5 8 16 15q320 -21 518 -21h440v-32q0 -21 -16 -32.5t-39 -17.5t-46.5 -16t-39.5 -36.5t-16 -69.5v-365q101 16 188 16q76 0 145 -7.5t142.5 -24t132.5 -48t107 -76t74 -111.5t26 -150q0 -56 -16 -110.5t-55.5 -109.5t-97 -96.5 t-148.5 -67.5t-203 -26h-772v31q0 20 15 30t36 16t42.5 16t36.5 37.5t15 72.5v1102h-10q-65 0 -106 -2.5t-82 -9t-67.5 -21t-52 -35t-47 -56t-42 -78t-46.5 -106.5q-6 -16 -10.5 -25.5t-18.5 -18t-34 -3.5zM887 238q0 -45 4 -70t18.5 -50t46.5 -35.5t84 -10.5h17 q124 0 208.5 84t84.5 239q0 96 -30.5 165.5t-85.5 108t-122 56.5t-149 18q-26 0 -76 -4v-501z" />
<glyph unicode="&#x42b;" horiz-adv-x="2084" d="M72 1350v28h637v-28q0 -22 -16 -34.5t-38.5 -18.5t-45 -15t-38.5 -32t-16 -62v-377q155 18 254 18q83 0 159 -11.5t152.5 -41.5t132 -75.5t90.5 -120.5t35 -170q0 -56 -16 -110.5t-54.5 -109.5t-96.5 -96.5t-149.5 -67.5t-205.5 -26h-778v31q0 20 15 30t36 16t42.5 16 t36.5 37.5t15 72.5v983q0 39 -15.5 63t-37.5 33t-44.5 15t-38 18.5t-15.5 34.5zM555 236q0 -44 4 -69.5t19 -49.5t47 -34.5t84 -10.5h16q132 0 217.5 82.5t85.5 240.5q0 176 -99 263t-274 87q-48 0 -100 -6v-503zM1374 0v27q0 21 15 33t36.5 18t43 15.5t36.5 33.5t15 63v996 q0 39 -15 63t-36.5 33t-43 15t-36.5 18.5t-15 34.5v28h637v-28q0 -22 -16.5 -34.5t-40 -18.5t-47 -15t-40 -32t-16.5 -62v-1000q0 -39 16.5 -62.5t40 -32.5t47 -15t40 -17.5t16.5 -33.5v-27h-637z" />
<glyph unicode="&#x42c;" horiz-adv-x="1437" d="M72 1350v28h637v-28q0 -22 -16 -34.5t-38.5 -18.5t-45 -15t-38.5 -32t-16 -62v-377q155 18 254 18q83 0 159 -11.5t152.5 -41.5t132 -75.5t90.5 -120.5t35 -170q0 -56 -16 -110.5t-54.5 -109.5t-96.5 -96.5t-149.5 -67.5t-205.5 -26h-778v31q0 20 15 30t36 16t42.5 16 t36.5 37.5t15 72.5v983q0 39 -15.5 63t-37.5 33t-44.5 15t-38 18.5t-15.5 34.5zM555 236q0 -44 4 -69.5t19 -49.5t47 -34.5t84 -10.5h16q132 0 217.5 82.5t85.5 240.5q0 91 -27.5 160.5t-75 109.5t-106.5 60t-127 20q-92 0 -137 -6v-503z" />
<glyph unicode="&#x42d;" horiz-adv-x="1431" d="M82 158v383h22q31 0 43 -22.5t33 -104.5q41 -171 142.5 -268t250.5 -97q191 0 291 162.5t103 474.5l-568 -27v127l566 -20q-9 284 -101.5 423.5t-281.5 139.5q-143 0 -238 -74q47 -53 47 -131q0 -67 -40 -115t-109 -48q-58 0 -91.5 40t-33.5 93q0 37 17.5 77.5t59 83 t100.5 76t150.5 55t200.5 21.5q212 0 371 -88t242 -243.5t83 -356.5q0 -121 -28.5 -231t-87.5 -204t-143.5 -162.5t-203.5 -107.5t-260 -39q-298 0 -536 183z" />
<glyph unicode="&#x42e;" horiz-adv-x="2306" d="M72 0v27q0 21 15 33t36 18t42.5 15.5t36.5 33.5t15 63v996q0 39 -15 63t-36.5 33t-42.5 15t-36 18.5t-15 34.5v28h637v-28q0 -22 -16.5 -34.5t-40.5 -18.5t-48 -15t-40.5 -32t-16.5 -62v-424h246q12 133 64 248t139 202.5t216.5 138t286.5 50.5q146 0 267 -38.5 t203.5 -105t139.5 -157.5t83 -194t26 -216q0 -142 -46 -269t-133 -228t-226.5 -160.5t-313.5 -59.5q-144 0 -262 37.5t-200 103.5t-138 157t-82 195.5t-26 221.5h-244v-502q0 -39 16.5 -62.5t40.5 -32.5t48 -15t40.5 -17.5t16.5 -33.5v-27h-637zM1167 688q0 -85 6.5 -160 t20.5 -150.5t40 -135t62.5 -106.5t90 -72t120.5 -25q65 0 117.5 25.5t88.5 72t61.5 105.5t39.5 133.5t20.5 148t6.5 156.5q0 653 -340 653q-76 0 -135 -40t-96 -103.5t-60.5 -150t-33 -172.5t-9.5 -179z" />
<glyph unicode="&#x42f;" horiz-adv-x="1474" d="M-10 0v66q58 10 98 38t82 99q25 42 61 105t55 95.5t48 76.5t52.5 67t56.5 48t71.5 38t85.5 20q0 7 -2 9q-188 12 -295.5 107t-107.5 232q0 184 135.5 280.5t369.5 96.5h701v-28q0 -19 -11 -31t-27.5 -16.5t-35.5 -12.5t-35.5 -17t-27.5 -31.5t-11 -55.5v-996 q0 -39 15 -63t37 -33.5t44 -15.5t37 -18t15 -33v-27h-639v27q0 22 16.5 33.5t40.5 17.5t48 15t40.5 32.5t16.5 62.5v443h-64q-58 0 -101 -29t-85 -115l-135 -266q-125 -248 -363 -248q-72 0 -186 27zM535 1004q0 -140 79 -221t213 -81h97v603h-88q-132 0 -216.5 -76 t-84.5 -225z" />
<glyph unicode="&#x430;" horiz-adv-x="1093" d="M51 190q0 71 30 127.5t78.5 92t114.5 58.5t133 32.5t140 9.5q47 0 102 -6v119q0 101 -47 163t-143 62q-93 0 -154 -43q53 -47 53 -121q0 -46 -29 -81.5t-81 -35.5q-48 0 -75.5 32.5t-27.5 78.5q0 29 9.5 59.5t36.5 65.5t68.5 62t111.5 45t159 18q102 0 178 -24t119.5 -61 t70.5 -91t35.5 -105t8.5 -112v-326q0 -71 22 -95.5t87 -33.5q0 -9 2 -28.5t2 -28.5q-36 -20 -95.5 -34t-107.5 -14q-84 0 -134.5 29t-58.5 109h-8q-133 -142 -342 -142q-111 0 -184.5 56t-73.5 163zM348 242q0 -136 125 -136q48 0 96 25t80 64v239q-301 0 -301 -192z" />
<glyph unicode="&#x431;" horiz-adv-x="1196" d="M66 498q0 111 14 206.5t35.5 167t59.5 133t71.5 103t87.5 77.5t92 56.5t100 41t96.5 30t95.5 23.5q68 16 101 25.5t77.5 27.5t67 42t31.5 58q10 0 31 -1t31 -1q10 -88 10 -98q0 -129 -81.5 -192.5t-240.5 -88.5q-239 -37 -346 -90q-104 -52 -169.5 -148t-84.5 -213l11 -4 q66 119 189 175.5t261 56.5q247 0 384.5 -124.5t137.5 -328.5q0 -66 -19 -130t-61.5 -123.5t-103 -104.5t-149.5 -72t-195 -27q-120 0 -213.5 29.5t-153 78.5t-98 117.5t-54 141.5t-15.5 156zM383 430q0 -395 217 -395q60 0 103.5 34t66.5 92.5t33 123t10 139.5 q0 395 -215 395q-59 0 -103 -35t-67.5 -93.5t-34 -123.5t-10.5 -137z" />
<glyph unicode="&#x432;" horiz-adv-x="1142" d="M45 0v27q0 33 35 45q55 16 70.5 37.5t15.5 89.5v493q0 69 -15 90.5t-69 36.5q-35 11 -35 45v29h600q369 0 369 -207q0 -74 -68 -130t-174 -60v-9q155 -6 230 -73t75 -156q0 -46 -19.5 -89.5t-59 -82.5t-109.5 -62.5t-162 -23.5h-684zM459 172q0 -50 19.5 -75t74.5 -25 q40 0 76 9t69.5 29t53.5 58t20 90q0 98 -59.5 144.5t-153.5 46.5h-100v-277zM459 518h94q70 0 122 38.5t52 115.5q0 72 -45.5 110.5t-128.5 38.5h-94v-303z" />
<glyph unicode="&#x433;" horiz-adv-x="927" d="M47 868v25h367q234 0 446 20l21 -12l32 -332l-20 -4q-19 -3 -30.5 6.5t-22.5 34.5q-31 72 -57.5 114t-61 65.5t-70 30.5t-94.5 7h-90v-635q0 -59 18.5 -81t67.5 -37q35 -9 35 -41v-29h-535v29q0 32 35 43q54 15 69 37.5t15 91.5v501q0 40 -11 64t-25 33t-42 20 q-25 8 -36 18.5t-11 30.5z" />
<glyph unicode="&#x434;" horiz-adv-x="1202" d="M14 59l17 15h131q88 105 129.5 266t46.5 391q0 34 -21.5 53.5t-48 24.5t-48 16.5t-21.5 32.5v35h903v-29q0 -19 -6.5 -28t-26.5 -15q-53 -16 -69.5 -39t-16.5 -90v-618h158l16 -15l-39 -389q-4 0 -13.5 -1t-14.5 -1q-19 0 -27 8t-14 33l-39 182q-14 68 -42.5 88.5 t-97.5 20.5h-569q-69 0 -96.5 -20.5t-42.5 -88.5l-39 -182q-6 -25 -14 -33t-27 -8q-5 0 -15 1t-14 1zM248 74h442v747h-278q0 -92 -4 -162q-22 -384 -160 -585z" />
<glyph unicode="&#x435;" horiz-adv-x="1071" d="M66 446q0 135 58 242.5t174.5 172.5t272.5 65q208 0 323.5 -124t115.5 -313l-13 -18h-626q0 -360 303 -360q67 0 150 23.5t139 55.5l34 -38q-71 -81 -178 -129t-237 -48q-249 0 -382.5 130.5t-133.5 340.5zM373 543q239 11 370 20v51q0 61 -16.5 113.5t-57.5 90.5 t-100 38q-61 0 -106 -47t-66 -115.5t-24 -150.5z" />
<glyph unicode="&#x436;" horiz-adv-x="1628" d="M12 -4v65q46 6 73.5 24.5t53.5 66.5q11 21 30.5 64.5t34 73t41 68.5t55.5 64t74.5 44t100.5 23v9q-33 16 -62 51t-44.5 64t-37.5 76.5t-30 62.5q-58 -58 -135 -58q-42 0 -81.5 31t-39.5 84q0 51 41.5 83t99.5 32q126 0 191 -150q67 -157 118.5 -207.5t141.5 -50.5h27v180 q0 68 -15.5 89.5t-68.5 37.5q-33 11 -33 45v25h530v-27q0 -34 -35 -45q-55 -16 -70.5 -37.5t-15.5 -91.5v-176h27q89 0 141 49.5t119 208.5q29 67 73 108.5t118 41.5q54 0 97.5 -33.5t43.5 -81.5q0 -55 -35.5 -85t-87.5 -30q-78 0 -133 58q-9 -17 -31 -63t-38 -76t-45 -64.5 t-62 -50.5q2 -2 2 -9q45 -3 81.5 -14.5t61.5 -27t47 -40t36 -46.5t30 -54q9 -17 28 -54.5t26.5 -52t23.5 -41.5t27 -38.5t28 -27t35 -22.5t39 -10v-65q-86 -23 -144 -23q-54 0 -95.5 12.5t-71.5 33t-58.5 61.5t-49 82t-50.5 110q-43 98 -74.5 137.5t-89.5 39.5h-19v-250 q0 -68 15.5 -89.5t70.5 -37.5q35 -11 35 -45v-27h-530v25q0 35 33 43q53 18 68.5 39.5t15.5 89.5v252h-19q-15 0 -27.5 -2t-22.5 -4.5t-19.5 -10t-16 -12t-14.5 -16.5t-12.5 -19t-12.5 -23.5t-12 -25.5t-13 -31t-14 -33q-31 -71 -51.5 -111t-49 -81.5t-58.5 -61.5 t-71.5 -32.5t-96.5 -12.5q-63 0 -142 23z" />
<glyph unicode="&#x437;" horiz-adv-x="980" d="M53 82v272h23q24 0 34.5 -16.5t20.5 -58.5q31 -125 98 -181.5t172 -56.5q104 0 159.5 57t55.5 127q0 115 -71 168t-207 53q-23 0 -62 -2l-6 66q161 22 236.5 70t75.5 133q0 71 -54.5 106t-130.5 35q-91 0 -133 -39q33 -33 33 -88q0 -51 -30.5 -89t-84.5 -38 q-47 0 -76.5 31t-29.5 84q0 89 111.5 153t269.5 64q98 0 176 -15.5t124 -39t76 -55t41 -59.5t11 -56q0 -76 -74.5 -136.5t-228.5 -74.5v-9q166 -13 252 -76.5t86 -160.5q0 -117 -115.5 -197t-349.5 -80q-245 0 -402 109z" />
<glyph unicode="&#x438;" horiz-adv-x="1251" d="M51 0v27q0 34 35 45q55 16 70.5 37.5t15.5 89.5v493q0 68 -15.5 89.5t-70.5 37.5q-35 11 -35 45v29h520v-31q0 -31 -32 -41q-45 -14 -59.5 -35.5t-14.5 -83.5v-507h8l320 698h407v-29q0 -36 -31 -43q-55 -18 -70.5 -39.5t-15.5 -89.5v-493q0 -68 15.5 -89.5t70.5 -39.5 q31 -7 31 -43v-27h-514v31q0 29 35 41q46 15 59 36.5t13 86.5v501h-9l-319 -696h-414z" />
<glyph unicode="&#x439;" horiz-adv-x="1251" d="M51 0v27q0 34 35 45q55 16 70.5 37.5t15.5 89.5v493q0 68 -15.5 89.5t-70.5 37.5q-35 11 -35 45v29h520v-31q0 -31 -32 -41q-45 -14 -59.5 -35.5t-14.5 -83.5v-507h8l320 698h407v-29q0 -36 -31 -43q-55 -18 -70.5 -39.5t-15.5 -89.5v-493q0 -68 15.5 -89.5t70.5 -39.5 q31 -7 31 -43v-27h-514v31q0 29 35 41q46 15 59 36.5t13 86.5v501h-9l-319 -696h-414zM330 1270q0 58 39.5 96.5t99.5 38.5q98 0 129 -107q13 -50 10 -104q100 0 198 52.5t179 135.5l43 -30q-49 -83 -110 -141.5t-121.5 -87t-111 -40.5t-99.5 -12q-122 0 -189 59t-67 140z " />
<glyph unicode="&#x43a;" horiz-adv-x="1157" d="M53 0v29q0 31 35 43q55 18 70.5 39.5t15.5 89.5v497q0 68 -15.5 89.5t-68.5 37.5q-33 11 -33 45v25h531v-27q0 -34 -35 -45q-55 -16 -70.5 -37.5t-15.5 -91.5v-176h31q98 0 149.5 49t118.5 209q64 148 190 148q59 0 100.5 -31.5t41.5 -83.5q0 -54 -35.5 -84.5 t-85.5 -30.5q-77 0 -135 58q-8 -15 -29.5 -61.5t-37.5 -76t-45 -64t-62 -50.5v-8q50 -4 90 -20t68 -36.5t56 -58t46 -69.5t45 -87q46 -94 74.5 -123.5t82.5 -36.5v-65q-71 -23 -151 -23q-51 0 -90 12t-68 32.5t-57 61.5t-49.5 82.5t-52.5 112.5q-19 42 -28.5 61.5t-26 46 t-31.5 38t-37 20.5t-50 9h-22v-250q0 -68 15.5 -90.5t68.5 -38.5q33 -11 33 -43v-27h-531z" />
<glyph unicode="&#x43b;" horiz-adv-x="1204" d="M6 106q0 44 34.5 76.5t88.5 32.5q66 0 105.5 -40.5t44.5 -102.5q82 77 114.5 220t40.5 439q1 35 -20 54.5t-47 24.5t-48 16.5t-22 33.5v33h854v-27q0 -18 -7 -28.5t-26 -16.5q-53 -16 -69.5 -38.5t-16.5 -90.5v-491q0 -68 16.5 -90.5t69.5 -38.5q35 -10 35 -45v-27h-537 v31q0 32 41 45q48 14 64 36t16 85v626h-227q-2 -34 -5 -123t-6 -138.5t-10 -121t-18 -125.5q-68 -340 -305 -340q-70 0 -115 36.5t-45 94.5z" />
<glyph unicode="&#x43c;" horiz-adv-x="1576" d="M29 0v29q0 18 16 28.5t39.5 18t47 19t41.5 39.5t20 71l28 514q2 40 -16.5 61.5t-42 27t-43 18.5t-19.5 36v31h430l154 -322q7 -16 37 -77t49 -105.5t35 -93.5h10l252 598h422v-31q0 -32 -35 -43q-58 -20 -72.5 -37.5t-11.5 -72.5l27 -510q4 -70 22 -92.5t62 -36.5 q20 -7 26 -16t6 -27v-27h-505v29q0 18 17.5 31.5t38.5 22t37.5 33t14.5 62.5l-29 578h-8l-327 -752h-74l-303 604q-33 63 -76 180h-8l-29 -581q-2 -43 13.5 -71t39 -39.5t47.5 -19.5t41 -19.5t17 -30.5v-27h-391z" />
<glyph unicode="&#x43d;" horiz-adv-x="1245" d="M53 0v29q0 32 35 43q55 18 70.5 39.5t15.5 89.5v491q0 68 -15.5 89.5t-70.5 39.5q-35 11 -35 43v29h518v-29q0 -18 -6 -26.5t-24 -14.5q-46 -16 -60 -36.5t-14 -81.5v-193h319v186q0 66 -12.5 86.5t-58.5 34.5q-35 15 -35 43v31h516v-27q0 -35 -31 -45q-54 -15 -70 -37.5 t-16 -91.5v-491q0 -69 16 -91.5t70 -37.5q31 -10 31 -45v-27h-516v31q0 28 35 43q46 14 58.5 34.5t12.5 86.5v249h-319v-256q0 -61 14 -81.5t60 -36.5q18 -6 24 -14.5t6 -26.5v-29h-518z" />
<glyph unicode="&#x43e;" horiz-adv-x="1210" d="M68 453q0 98 36.5 184t103.5 151t168.5 102.5t225.5 37.5q133 0 238.5 -38.5t170.5 -105t98.5 -150.5t33.5 -179t-35.5 -181t-102 -153.5t-171 -107.5t-232.5 -40q-129 0 -232.5 38.5t-168.5 105.5t-99 153t-34 183zM387 453q0 -416 219 -416q61 0 105 34.5t67.5 95.5 t34 129.5t10.5 149.5q0 414 -219 414q-60 0 -104 -35.5t-68 -96t-34.5 -129t-10.5 -146.5z" />
<glyph unicode="&#x43f;" horiz-adv-x="1257" d="M49 870v25h1161v-27q0 -23 -12 -32.5t-41 -20.5q-40 -13 -56 -35t-16 -78v-501q0 -47 9 -71t25.5 -34.5t54.5 -23.5q32 -9 32 -45v-27h-518v31q0 28 35 43q47 15 59.5 35.5t12.5 85.5v626h-328v-633q0 -60 14.5 -81t61.5 -37q18 -6 24 -14.5t6 -26.5v-29h-520v29 q0 32 35 43q55 18 70.5 39.5t15.5 89.5v501q0 54 -16 76t-54 37q-29 11 -42 21.5t-13 33.5z" />
<glyph unicode="&#x440;" horiz-adv-x="1253" d="M25 821v33q191 34 381 72l16 -17q-2 -30 -8 -87.5t-8 -86.5h8q63 100 160 145.5t186 45.5q103 0 184.5 -36.5t133.5 -100t79 -148.5t27 -184q0 -117 -37 -210.5t-101 -152.5t-148 -90t-181 -31q-61 0 -135.5 17t-130.5 53q-2 0 -5.5 -1t-5.5 -1v-262q0 -66 18.5 -89.5 t71.5 -39.5q20 -6 26.5 -15t6.5 -28v-27h-534v29q0 34 37 43q55 18 70.5 39.5t15.5 89.5v893q0 47 -20 71.5t-43.5 28t-43.5 14t-20 33.5zM444 121q84 -55 187 -55q115 0 176 99t61 269q0 181 -61 265.5t-166 84.5q-57 0 -110 -29t-87 -77v-557z" />
<glyph unicode="&#x441;" horiz-adv-x="980" d="M68 432q0 212 145.5 354t384.5 142q93 0 162 -20.5t105.5 -54t53.5 -70t17 -74.5q0 -55 -35 -93t-86 -38q-65 0 -100 39t-35 98q0 56 37 112q-16 2 -45 2q-138 0 -214.5 -102t-76.5 -260q0 -173 81.5 -268t225.5 -95q118 0 242 52l26 -47q-157 -136 -397 -136 q-237 0 -364 126.5t-127 332.5z" />
<glyph unicode="&#x442;" horiz-adv-x="995" d="M14 573l33 322l21 12q146 -14 421 -14q279 0 437 14l20 -12l33 -322l-27 -4q-19 -3 -28.5 7.5t-18.5 33.5q-24 61 -44.5 99.5t-39 62t-44 34.5t-48 14t-63.5 3h-21v-635q0 -61 17.5 -83t64.5 -35q35 -11 35 -41v-29h-533v27q0 31 35 43q55 18 70.5 39.5t15.5 89.5v624 h-41q-81 0 -124.5 -41t-98.5 -172q-7 -17 -11 -23.5t-12.5 -11.5t-21.5 -4z" />
<glyph unicode="&#x443;" horiz-adv-x="1052" d="M-35 -303q0 53 40 91t95 38q70 0 112 -44.5t58 -98.5q47 16 101 83t94 173l22 59h-51q-253 581 -299 690q-20 47 -48 74.5t-49 34.5t-36.5 21.5t-15.5 41.5v31h553v-35q0 -18 -16 -30.5t-34.5 -18.5t-34.5 -21t-16 -38q0 -18 17 -64q108 -264 149 -416h12l158 406 q19 49 19 71q0 29 -19 44.5t-41.5 18.5t-41.5 14.5t-19 33.5v35h373v-33q0 -19 -12 -28.5t-33 -16.5t-45.5 -19t-53 -46t-51.5 -86l-324 -750q-157 -356 -385 -356q-86 0 -132 38t-46 103z" />
<glyph unicode="&#x444;" horiz-adv-x="1695" d="M61 440q0 227 130.5 356.5t328.5 129.5q93 0 182 -35v336q0 47 -20 71.5t-43.5 28t-43.5 14t-20 33.5v31q211 40 398 72l20 -17v-606q107 70 230 70q132 0 226.5 -65.5t138.5 -169t44 -232.5q0 -152 -63 -263.5t-165.5 -166t-229.5 -54.5q-84 0 -181 31v-225 q0 -47 9.5 -71t25.5 -34.5t55 -23.5q31 -7 31 -43v-27h-532v29q0 35 34 43q55 18 70.5 39.5t15.5 89.5v262q-106 -70 -231 -70q-199 0 -304.5 130t-105.5 337zM371 457q0 -184 59 -276.5t162 -92.5q54 0 110 27v704q-52 15 -90 15q-119 0 -180 -102.5t-61 -274.5zM993 72 q40 -13 88 -13q118 0 179 106t61 277q0 181 -61.5 272t-167.5 91q-43 0 -99 -27v-706z" />
<glyph unicode="&#x445;" horiz-adv-x="1107" d="M20 0v27q0 17 11.5 26t34.5 18.5t50.5 22.5t66 46t75.5 81l154 203l-187 268q-35 51 -72 82.5t-58.5 40t-35.5 19.5t-14 30v29h549v-27q0 -20 -13.5 -31.5t-29.5 -15.5t-29.5 -16t-13.5 -33q0 -26 39 -74l104 -151l103 149q34 52 34 78q0 19 -16 30t-36 15t-36 15t-16 30 v31h377v-29q0 -17 -11.5 -26t-34.5 -18.5t-50.5 -22.5t-66 -46t-75.5 -81l-135 -178l205 -291q37 -53 76.5 -85.5t63 -40t39 -18.5t15.5 -30v-27h-563v27q0 18 14 28.5t30 14.5t30 16t14 33q0 24 -41 78l-120 172l-123 -170q-35 -50 -35 -80q0 -20 16.5 -31.5t35.5 -15.5 t35.5 -14t16.5 -27v-31h-377z" />
<glyph unicode="&#x446;" horiz-adv-x="1306" d="M51 0v27q0 34 35 45q55 16 70.5 37.5t15.5 89.5v493q0 68 -15.5 89.5t-70.5 37.5q-35 11 -35 45v29h512v-31q0 -17 -5.5 -26t-22.5 -15q-46 -15 -58 -35t-12 -84v-630h334v628q0 63 -13 84t-55 35q-33 11 -33 41v33h512v-29q0 -19 -6 -28t-26 -15q-53 -16 -70.5 -39.5 t-17.5 -89.5v-618h157l17 -15l-39 -389q-4 0 -14 -1t-15 -1q-19 0 -27 8t-14 33l-39 182q-15 68 -42.5 88.5t-96.5 20.5h-926z" />
<glyph unicode="&#x447;" horiz-adv-x="1183" d="M2 866v27h516v-31q0 -29 -35 -41q-47 -19 -59 -41.5t-12 -81.5v-96q0 -86 30 -126t103 -40q103 0 172 60v209q0 60 -14.5 81t-61.5 37q-18 6 -24.5 14.5t-6.5 26.5v29h520v-29q0 -32 -34 -43q-55 -18 -70.5 -39.5t-15.5 -89.5v-493q0 -69 15 -91.5t69 -37.5q32 -8 32 -43 v-27h-516v31q0 32 35 41q44 12 58 36t14 87v202q-2 0 -10 4q-137 -96 -304 -96q-132 0 -207 68.5t-75 210.5v108q0 68 -16.5 90.5t-71.5 38.5q-31 10 -31 45z" />
<glyph unicode="&#x448;" horiz-adv-x="1769" d="M51 0v27q0 34 35 45q55 16 70.5 37.5t15.5 89.5v493q0 68 -15.5 89.5t-70.5 37.5q-35 11 -35 45v29h512v-31q0 -17 -5.5 -26t-22.5 -15q-46 -15 -58 -35t-12 -84v-630h276v628q0 65 -11 85.5t-54 33.5q-33 11 -33 41v33h487v-31q0 -17 -5.5 -26t-22.5 -15 q-46 -15 -58 -35t-12 -84v-630h277v630q0 62 -14 84t-56 35q-29 9 -29 41v31h510v-31q0 -35 -34 -43q-55 -18 -69.5 -39t-14.5 -90v-514q0 -53 15.5 -71.5t65.5 -32.5q37 -9 37 -43v-29h-1669z" />
<glyph unicode="&#x449;" horiz-adv-x="1816" d="M51 0v27q0 34 35 45q55 16 70.5 37.5t15.5 89.5v493q0 68 -15.5 89.5t-70.5 37.5q-35 11 -35 45v29h512v-31q0 -17 -5.5 -26t-22.5 -15q-46 -15 -58 -35t-12 -84v-630h276v628q0 65 -11 85.5t-54 33.5q-33 11 -33 41v33h487v-31q0 -17 -5.5 -26t-22.5 -15 q-46 -15 -58 -35t-12 -84v-630h277v628q0 64 -12.5 84.5t-55.5 34.5q-33 11 -33 41v33h512v-29q0 -36 -30 -43q-39 -13 -55.5 -23.5t-26 -34.5t-9.5 -71v-618h160l17 -15q-17 -186 -39 -389q-4 0 -15 -1t-16 -1q-17 0 -25 8t-14 33q-8 33 -16.5 75.5t-13 64t-12 49 t-14.5 40.5t-19 28t-28 20.5t-37.5 9.5t-51.5 4h-1424z" />
<glyph unicode="&#x44a;" horiz-adv-x="1372" d="M14 569l33 330l21 12q188 -18 446 -18h315v-25q0 -23 -19.5 -37t-42.5 -21t-42.5 -34.5t-19.5 -75.5v-112q122 14 178 14q110 0 192.5 -23t126.5 -55.5t71 -76.5t34.5 -77t7.5 -67q0 -43 -11.5 -83t-41.5 -81t-75.5 -71t-119 -49t-166.5 -19h-604v27q0 33 37 45 q53 15 67.5 36.5t14.5 90.5v622h-17q-51 0 -76.5 -1t-58.5 -8t-50.5 -19.5t-41 -37.5t-42.5 -61t-42 -90q-6 -13 -10.5 -20.5t-16 -14.5t-26.5 -4zM705 174q0 -55 19.5 -80.5t74.5 -25.5h22q80 0 132.5 59t52.5 158q0 108 -55 172.5t-169 64.5q-30 0 -77 -6v-342z" />
<glyph unicode="&#x44b;" horiz-adv-x="1671" d="M47 0v27q0 33 37 45q54 15 68 36.5t14 90.5v495q0 48 -7 71t-23 34t-54 24q-35 11 -35 43v29h533v-27q0 -33 -31 -43q-54 -16 -72 -39t-18 -90v-108q119 14 184 14q110 0 192.5 -23t126.5 -55.5t71 -76.5t34.5 -77t7.5 -67q0 -43 -11.5 -83t-41.5 -81t-75 -71t-118 -49 t-165 -19h-617zM459 174q0 -55 19.5 -80.5t74.5 -25.5h29q82 0 134 58.5t52 158.5q0 109 -59 172t-185 63q-15 0 -65 -4v-342zM1087 0v27q0 34 35 45q55 16 70.5 37.5t15.5 89.5v493q0 68 -15.5 89.5t-70.5 37.5q-35 11 -35 45v29h531v-27q0 -35 -33 -43q-54 -18 -70 -40 t-16 -89v-497q0 -67 16 -89t70 -40q33 -8 33 -43v-25h-531z" />
<glyph unicode="&#x44c;" horiz-adv-x="1130" d="M47 0v27q0 33 37 45q54 15 68 36.5t14 90.5v495q0 48 -7 71t-23 34t-54 24q-35 11 -35 43v29h528v-27q0 -33 -30 -43q-54 -16 -72 -39t-18 -90v-108q122 12 184 12q109 0 192 -23t127.5 -55.5t72 -76.5t35 -77t7.5 -65q0 -43 -11.5 -83t-41.5 -81t-75.5 -71t-119 -49 t-166.5 -19h-612zM455 174q0 -55 20 -80.5t74 -25.5h31q80 0 132 59t52 158q0 109 -58.5 172t-183.5 63q-17 0 -67 -4v-342z" />
<glyph unicode="&#x44d;" horiz-adv-x="1032" d="M59 76v266h25q23 0 32.5 -15.5t20.5 -58.5q1 -7 2 -10q28 -111 98 -166t164 -55q243 0 250 381q-295 -15 -350 -17v111l348 -12q-12 165 -86.5 253.5t-185.5 88.5q-58 0 -117 -27q41 -48 41 -96q0 -52 -33.5 -94.5t-93.5 -42.5q-47 0 -77.5 29t-30.5 85q0 97 108.5 163.5 t274.5 66.5q238 0 378 -126.5t140 -338.5q0 -81 -21 -154t-65 -134.5t-106.5 -106.5t-150.5 -70t-192 -25q-220 0 -373 105z" />
<glyph unicode="&#x44e;" horiz-adv-x="1757" d="M61 0v27q0 34 35 45q55 16 70.5 37.5t15.5 89.5v493q0 68 -15.5 89.5t-70.5 37.5q-35 11 -35 45v29h533v-27q0 -19 -6.5 -28t-26.5 -15q-53 -16 -69.5 -39t-16.5 -90v-182h172q20 181 156 297.5t362 116.5q132 0 235 -38.5t165 -104.5t93.5 -149.5t31.5 -178.5 t-33.5 -180.5t-97 -153t-166 -107t-230.5 -39.5q-127 0 -227 36.5t-162.5 101t-95.5 147.5t-35 180h-168v-243q0 -67 16.5 -90t69.5 -39q20 -6 26.5 -15t6.5 -28v-25h-533zM958 453q0 -91 9 -161t31.5 -130.5t65.5 -92.5t105 -32q207 0 207 409q0 91 -9 160t-31.5 128.5 t-65.5 91.5t-105 32q-59 0 -101 -34t-64.5 -94t-32 -128t-9.5 -149z" />
<glyph unicode="&#x44f;" horiz-adv-x="1148" d="M2 -4v67q55 6 82 30.5t74 109.5q60 111 109 160.5t134 60.5v8q-130 7 -198 71.5t-68 147.5q0 119 92 180.5t252 61.5h617v-27q0 -33 -31 -43q-53 -17 -71.5 -37t-18.5 -79v-508q0 -67 18 -90t72 -39q31 -10 31 -43v-27h-533v29q0 31 35 43q38 13 54 24t23 34t7 71v198 h-37q-53 0 -83.5 -21t-61.5 -91q-36 -80 -60.5 -127.5t-53 -88.5t-57.5 -60t-66 -29.5t-87 -10.5q-72 0 -174 25zM428 641q0 -83 51 -128.5t142 -45.5h61v356h-57q-88 0 -142.5 -45.5t-54.5 -136.5z" />
<glyph unicode="&#x451;" horiz-adv-x="1071" d="M66 446q0 135 58 242.5t174.5 172.5t272.5 65q208 0 323.5 -124t115.5 -313l-13 -18h-626q0 -360 303 -360q67 0 150 23.5t139 55.5l34 -38q-71 -81 -178 -129t-237 -48q-249 0 -382.5 130.5t-133.5 340.5zM209 1249q0 58 41 100t100 42q58 0 100 -42.5t42 -99.5 q0 -59 -42 -101t-100 -42q-59 0 -100 42t-41 101zM373 543q239 11 370 20v51q0 61 -16.5 113.5t-57.5 90.5t-100 38q-61 0 -106 -47t-66 -115.5t-24 -150.5zM618 1249q0 58 41.5 100t100.5 42q58 0 99.5 -42.5t41.5 -99.5q0 -59 -41.5 -101t-99.5 -42q-60 0 -101 42t-41 101 z" />
<glyph unicode="&#x452;" horiz-adv-x="1214" d="M25 1397v33l403 61l16 -14v-299h381v-72h-381v-47q0 -199 -34 -324q2 0 4.5 -1t3.5 -1q64 85 150.5 128.5t176.5 43.5t161.5 -37t115.5 -96.5t73 -141.5t40.5 -164.5t11.5 -172.5q0 -131 -37 -253.5t-102.5 -217.5t-163.5 -152t-213 -57q-39 0 -74 6.5t-69.5 21t-55 45 t-20.5 72.5q0 51 26.5 84t79.5 33q56 0 85.5 -40.5t29.5 -100.5q0 -27 -6 -51q94 30 150.5 181t56.5 441q0 105 -8 182.5t-29.5 146.5t-63.5 105.5t-104 36.5q-46 0 -100 -32t-85 -82v-474q0 -62 14.5 -83t61.5 -35q31 -10 31 -41v-29h-520v27q0 34 35 45q55 16 70.5 37.5 t15.5 89.5v907h-123v72h123v71q0 47 -20 71.5t-43.5 28.5t-43.5 14.5t-20 33.5z" />
<glyph unicode="&#x453;" horiz-adv-x="927" d="M47 868v25h367q234 0 446 20l21 -12l32 -332l-20 -4q-19 -3 -30.5 6.5t-22.5 34.5q-31 72 -57.5 114t-61 65.5t-70 30.5t-94.5 7h-90v-635q0 -59 18.5 -81t67.5 -37q35 -9 35 -41v-29h-535v29q0 32 35 43q54 15 69 37.5t15 91.5v501q0 40 -11 64t-25 33t-42 20 q-25 8 -36 18.5t-11 30.5zM274 1083q69 52 121 109t77 98t47 76t47 52.5t61 17.5q49 0 76.5 -28.5t27.5 -66.5q0 -27 -23.5 -65t-71.5 -82.5t-136.5 -88t-202.5 -71.5q-3 8 -11.5 24.5t-11.5 24.5z" />
<glyph unicode="&#x454;" horiz-adv-x="980" d="M66 432q0 102 37.5 192.5t104.5 157.5t167 105.5t219 38.5q93 0 162.5 -20t106.5 -53t54 -68t17 -72q0 -47 -36 -87t-81 -40q-61 0 -94 37.5t-33 93.5q0 57 35 110q-30 9 -63 9q-124 0 -200.5 -94.5t-82.5 -256.5q187 13 354 21v-115l-352 12q7 -155 88 -227t219 -72 q111 0 240 50l26 -48q-151 -131 -397 -131q-237 0 -364 125t-127 332z" />
<glyph unicode="&#x455;" horiz-adv-x="960" d="M55 178q0 47 35.5 80t77.5 33q63 0 100 -45.5t37 -112.5q0 -47 -10 -72q61 -22 121 -22q39 0 80.5 14t74.5 46t33 75q0 37 -28 69t-73.5 56t-100 48t-109 51.5t-100 59.5t-73.5 79t-28 104q0 132 108.5 208.5t284.5 76.5q170 0 269.5 -55t99.5 -144q0 -49 -32 -79 t-72 -30q-59 0 -98.5 40.5t-39.5 101.5q0 45 17 80q-41 16 -101 16q-59 0 -107 -33t-48 -92q0 -37 29 -69t76 -56.5t103.5 -49t113 -53.5t103.5 -62.5t76 -83t29 -109.5q0 -91 -63.5 -154.5t-162 -91t-222.5 -27.5q-188 0 -294 57t-106 146z" />
<glyph unicode="&#x456;" horiz-adv-x="647" d="M61 831v31q214 40 404 72q3 -2 8 -8t8 -8v-721q0 -67 16.5 -89t71.5 -40q31 -7 31 -43v-25h-532v27q0 34 34 45q55 16 70.5 37.5t15.5 89.5v485q0 47 -20 71.5t-43.5 28t-43.5 14t-20 33.5zM156 1272q0 67 49 116.5t117 49.5q71 0 120.5 -49.5t49.5 -116.5 q0 -72 -49 -123t-121 -51q-69 0 -117.5 51t-48.5 123z" />
<glyph unicode="&#x457;" horiz-adv-x="647" d="M-20 1235q0 58 41 99.5t100 41.5q58 0 99.5 -42t41.5 -99q0 -59 -41.5 -101t-99.5 -42q-59 0 -100 42t-41 101zM66 842v26l405 62q2 -1 6 -5t6 -5v-740q0 -37 8 -62.5t20 -37t25.5 -19.5t25.5 -11.5t20 -11t8 -20.5v-18h-516v25q0 24 32 32q48 13 66 37t18 92v514 q0 48 -19.5 73t-42.5 29t-42.5 12.5t-19.5 27.5zM389 1235q0 58 41 99.5t100 41.5q58 0 100 -42t42 -99q0 -59 -42 -101t-100 -42q-59 0 -100 42t-41 101z" />
<glyph unicode="&#x458;" horiz-adv-x="612" d="M-174 -309q0 47 36.5 84t90.5 37q69 0 110 -53t46 -130q71 38 71 156v897q0 39 -13 62.5t-31 31.5t-36.5 12.5t-31.5 14t-13 28.5v31q199 38 402 72q3 -2 8 -8t8 -8v-824q0 -241 -92 -358q-61 -77 -156 -128.5t-213 -51.5q-71 0 -128.5 33t-57.5 102zM145 1272 q0 67 48 116.5t116 49.5q72 0 121 -49.5t49 -116.5q0 -73 -48.5 -123.5t-121.5 -50.5q-69 0 -116.5 51t-47.5 123z" />
<glyph unicode="&#x459;" horiz-adv-x="1679" d="M6 106q0 44 34.5 76.5t88.5 32.5q66 0 105.5 -40.5t44.5 -102.5q81 76 113.5 218.5t41.5 440.5q1 35 -20 54.5t-47 24.5t-48 16.5t-22 33.5v35h827v-27q0 -33 -30 -43q-54 -16 -72 -39t-18 -90v-108q105 12 184 12q109 0 192 -23t127.5 -55.5t72 -76.5t35 -77t7.5 -65 q0 -43 -11.5 -83t-41.5 -81t-75.5 -71t-119 -49t-166.5 -19h-612v27q0 33 37 45q54 15 68 36.5t14 90.5v622h-205q-2 -33 -5 -122.5t-6 -138.5t-10 -120t-18 -125q-68 -340 -305 -340q-70 0 -115 36.5t-45 94.5zM1004 174q0 -55 20 -80.5t74 -25.5h30q80 0 132.5 59 t52.5 158q0 109 -58.5 172t-183.5 63q-17 0 -67 -4v-342z" />
<glyph unicode="&#x45a;" horiz-adv-x="1724" d="M47 0v27q0 34 35 45q55 16 70.5 37.5t15.5 89.5v493q0 68 -15.5 89.5t-70.5 37.5q-35 11 -35 45v29h518v-31q0 -31 -30 -41q-45 -14 -59.5 -35.5t-14.5 -83.5v-163h309v157q0 65 -13 86.5t-59 36.5q-34 12 -34 41v33h516v-29q0 -19 -6.5 -28t-26.5 -15q-52 -15 -68 -38.5 t-16 -90.5v-139q81 8 176 8q101 0 179 -18t122.5 -44.5t74 -63t39.5 -67t13 -63.5q0 -37 -7 -70t-23 -69t-47 -64.5t-74 -52t-108.5 -36.5t-147.5 -13h-596v31q0 29 34 41q46 15 59 36.5t13 86.5v274h-309v-281q0 -62 14.5 -83t59.5 -35q30 -10 30 -41v-29h-518zM1063 174 q0 -55 20 -80.5t72 -25.5h31q76 0 125 53t49 147q0 103 -61.5 160t-188.5 57q-31 0 -47 -2v-309z" />
<glyph unicode="&#x45b;" horiz-adv-x="1216" d="M25 1397v33l403 61l16 -14v-299h355v-72h-355v-53q0 -62 -1 -93.5t-9 -91t-24 -116.5q2 0 4.5 -1t3.5 -1q64 87 158.5 128.5t187.5 41.5q58 0 109 -14.5t95 -45t69.5 -86t25.5 -129.5v-446q0 -68 16.5 -89.5t71.5 -39.5q31 -7 31 -43v-27h-516v31q0 17 7.5 26t26.5 15 q46 15 59 36.5t13 86.5v448q0 74 -38.5 113t-96.5 39q-54 0 -108.5 -32t-84.5 -85v-490q0 -62 14.5 -83t61.5 -35q31 -10 31 -41v-29h-520v27q0 34 35 45q55 16 70.5 37.5t15.5 89.5v907h-123v72h123v71q0 47 -20 71.5t-43.5 28.5t-43.5 14.5t-20 33.5z" />
<glyph unicode="&#x45c;" horiz-adv-x="1153" d="M37 0v29q0 31 35 43q55 18 70.5 39.5t15.5 89.5v497q0 68 -15.5 89.5t-68.5 37.5q-33 11 -33 45v25h530v-27q0 -34 -34 -45q-55 -16 -70.5 -37.5t-15.5 -91.5v-176h30q98 0 150 49.5t119 208.5q64 148 190 148q59 0 100 -31.5t41 -83.5q0 -54 -35 -84.5t-85 -30.5 q-78 0 -136 58q-8 -15 -29.5 -61.5t-37.5 -76t-45 -64t-62 -50.5v-8q50 -4 90 -20t68 -36.5t56 -58t46 -69.5t45 -87q46 -94 75 -123t83 -37v-65q-71 -23 -151 -23q-63 0 -107.5 16t-81.5 58t-63.5 90.5t-65.5 136.5q-19 43 -28 61.5t-26 46t-31.5 38.5t-36.5 20t-50 9h-22 v-250q0 -68 15.5 -90.5t68.5 -38.5q32 -10 32 -43v-27h-530zM403 1083q69 52 121 109t77 98t47 76t47 52.5t61 17.5q49 0 76.5 -28.5t27.5 -66.5q0 -27 -23.5 -65t-71.5 -82.5t-136.5 -88t-202.5 -71.5q-3 8 -11.5 24.5t-11.5 24.5z" />
<glyph unicode="&#x45e;" horiz-adv-x="1052" d="M-35 -303q0 53 40 91t95 38q70 0 112 -44.5t58 -98.5q47 16 101 83t94 173l22 59h-51q-253 581 -299 690q-20 47 -48 74.5t-49 34.5t-36.5 21.5t-15.5 41.5v31h553v-35q0 -18 -16 -30.5t-34.5 -18.5t-34.5 -21t-16 -38q0 -18 17 -64q108 -264 149 -416h12l158 406 q19 49 19 71q0 29 -19 44.5t-41.5 18.5t-41.5 14.5t-19 33.5v35h373v-33q0 -19 -12 -28.5t-33 -16.5t-45.5 -19t-53 -46t-51.5 -86l-324 -750q-157 -356 -385 -356q-86 0 -132 38t-46 103zM266 1270q0 58 40 96.5t100 38.5q98 0 129 -107q13 -50 10 -104q100 0 198 52.5 t179 135.5l43 -30q-49 -83 -110 -141.5t-122 -87t-111.5 -40.5t-99.5 -12q-122 0 -189 59t-67 140z" />
<glyph unicode="&#x45f;" horiz-adv-x="1263" d="M47 0v29q0 31 37 43q53 18 68.5 39.5t15.5 89.5v491q0 68 -15.5 89.5t-68.5 39.5q-37 12 -37 43v29h514v-29q0 -31 -29 -41q-43 -14 -57 -35.5t-14 -82.5v-631h336v631q0 61 -14.5 82.5t-57.5 35.5q-29 10 -29 41v29h512v-31q0 -31 -34 -43q-56 -18 -71.5 -39.5 t-15.5 -89.5v-489q0 -68 16 -89.5t71 -39.5q34 -11 34 -43v-29h-387q-58 0 -78 -16t-30 -72l-47 -250h-66l-53 248q-12 58 -34.5 74t-88.5 16h-377z" />
<glyph unicode="&#x490;" horiz-adv-x="1243" d="M74 1348v32h714q78 0 126.5 10t90 43t71 82.5t69.5 139.5q13 30 27 39.5t36 7.5l21 -2l-41 -391l-17 -15q-234 13 -444 13h-166v-1119q0 -39 16.5 -62t40 -32t47 -15t40 -17.5t16.5 -32.5v-29h-637v29q0 21 15 33t36 18.5t42.5 16t36.5 33.5t15 63v983q0 44 -16 70.5 t-38.5 36.5t-45.5 16t-39 17t-16 32z" />
<glyph unicode="&#x491;" horiz-adv-x="921" d="M51 868v25h488q44 0 69.5 1.5t54.5 8.5t47 20t39.5 36.5t39.5 57.5t40 85q17 39 45 39q5 0 14.5 -1t14.5 -1q-4 -54 -14.5 -159.5t-14.5 -156.5q-5 -3 -11.5 -7t-8.5 -5q-117 10 -326 10h-57v-633q0 -60 18.5 -82.5t65.5 -35.5q37 -12 37 -41v-29h-537v27q0 31 35 43 q55 18 70.5 39.5t15.5 89.5v503q0 40 -11 64t-25 33t-42 20q-25 8 -36 18.5t-11 30.5z" />
<glyph unicode="&#x4d9;" horiz-adv-x="1085" d="M61 399l11 13h641q0 193 -81.5 286t-244.5 93q-69 0 -145 -21.5t-136 -56.5l-26 28q70 86 182.5 135.5t245.5 49.5q249 0 381.5 -129t132.5 -338q0 -134 -61 -243t-179.5 -175t-275.5 -66q-138 0 -240.5 58t-153.5 153t-51 213zM338 274q0 -101 44 -174t132 -73 q61 0 105.5 49t66 121t23.5 157l-371 -18v-62z" />
<glyph unicode="&#x2000;" horiz-adv-x="923" />
<glyph unicode="&#x2001;" horiz-adv-x="1847" />
<glyph unicode="&#x2002;" horiz-adv-x="923" />
<glyph unicode="&#x2003;" horiz-adv-x="1847" />
<glyph unicode="&#x2004;" horiz-adv-x="615" />
<glyph unicode="&#x2005;" horiz-adv-x="461" />
<glyph unicode="&#x2006;" horiz-adv-x="307" />
<glyph unicode="&#x2007;" horiz-adv-x="307" />
<glyph unicode="&#x2008;" horiz-adv-x="230" />
<glyph unicode="&#x2009;" horiz-adv-x="369" />
<glyph unicode="&#x200a;" horiz-adv-x="102" />
<glyph unicode="&#x2010;" horiz-adv-x="696" d="M82 418v143h532v-143h-532z" />
<glyph unicode="&#x2011;" horiz-adv-x="696" d="M82 418v143h532v-143h-532z" />
<glyph unicode="&#x2012;" horiz-adv-x="696" d="M82 418v143h532v-143h-532z" />
<glyph unicode="&#x2013;" horiz-adv-x="1167" d="M80 459v116h1010v-116h-1010z" />
<glyph unicode="&#x2014;" horiz-adv-x="1785" d="M80 459v119h1624v-119h-1624z" />
<glyph unicode="&#x2018;" horiz-adv-x="495" d="M88 1092q0 108 72.5 226t191.5 191l37 -45q-55 -52 -97.5 -126.5t-45.5 -137.5q58 -7 90.5 -42.5t32.5 -88.5q0 -55 -39 -96t-99 -41q-66 0 -104.5 46t-38.5 114z" />
<glyph unicode="&#x2019;" horiz-adv-x="507" d="M111 944q55 53 97.5 126.5t45.5 137.5q-58 7 -90.5 42.5t-32.5 88.5q0 55 38.5 95.5t98.5 40.5q66 0 105 -45.5t39 -112.5q0 -108 -73.5 -226t-191.5 -192z" />
<glyph unicode="&#x201a;" horiz-adv-x="507" d="M111 -276q55 52 97.5 126.5t45.5 139.5q-57 6 -90 41.5t-33 87.5q0 56 38.5 96.5t98.5 40.5q65 0 104.5 -46.5t39.5 -113.5q0 -107 -73.5 -225t-191.5 -193z" />
<glyph unicode="&#x201c;" horiz-adv-x="815" d="M88 1092q0 108 72.5 226t191.5 191l37 -45q-55 -52 -97.5 -126.5t-45.5 -137.5q58 -7 90.5 -42.5t32.5 -88.5q0 -55 -39 -96t-99 -41q-66 0 -104.5 46t-38.5 114zM410 1092q0 108 73.5 225.5t192.5 191.5l35 -45q-54 -52 -97 -126t-47 -138q58 -7 91.5 -42.5t33.5 -88.5 q0 -54 -39.5 -95.5t-97.5 -41.5q-67 0 -106 46.5t-39 113.5z" />
<glyph unicode="&#x201d;" horiz-adv-x="827" d="M111 944q54 54 96 127t45 137q-58 7 -90.5 42.5t-32.5 88.5q0 55 38.5 95.5t98.5 40.5q67 0 106.5 -45.5t39.5 -112.5q0 -108 -74 -226t-193 -192zM428 944q55 53 97.5 126.5t45.5 137.5q-58 7 -90 42.5t-32 88.5q0 55 38.5 95.5t98.5 40.5q67 0 105 -45.5t38 -112.5 q0 -109 -72.5 -227t-191.5 -191z" />
<glyph unicode="&#x201e;" horiz-adv-x="827" d="M111 -276q55 52 97.5 126.5t45.5 139.5q-57 6 -90 41.5t-33 87.5q0 56 38.5 96.5t98.5 40.5q65 0 104.5 -46.5t39.5 -113.5q0 -107 -73.5 -225t-191.5 -193zM430 -276q53 53 95.5 127.5t45.5 138.5q-56 6 -89 41.5t-33 87.5q0 55 39 96t98 41q67 0 106 -46.5t39 -113.5 q0 -108 -73.5 -225.5t-192.5 -192.5z" />
<glyph unicode="&#x2022;" horiz-adv-x="931" d="M164 479q0 126 88 213.5t213 87.5q126 0 214.5 -87.5t88.5 -213.5t-88.5 -213.5t-214.5 -87.5q-125 0 -213 87.5t-88 213.5z" />
<glyph unicode="&#x2026;" horiz-adv-x="1445" d="M94 135q0 64 44.5 109t107.5 45q64 0 108.5 -44.5t44.5 -109.5q0 -63 -44.5 -107t-108.5 -44q-63 0 -107.5 44t-44.5 107zM565 135q0 64 44.5 109t107.5 45q64 0 108.5 -44.5t44.5 -109.5q0 -63 -44.5 -107t-108.5 -44q-63 0 -107.5 44t-44.5 107zM1047 135 q0 65 44.5 109.5t108.5 44.5q63 0 108.5 -45t45.5 -109q0 -63 -45.5 -107t-108.5 -44q-64 0 -108.5 44t-44.5 107z" />
<glyph unicode="&#x202f;" horiz-adv-x="369" />
<glyph unicode="&#x2039;" horiz-adv-x="653" d="M96 422q0 34 51 82l373 344l43 -31l-233 -393l229 -391q-5 -4 -20.5 -16.5t-24.5 -18.5l-364 346q-29 27 -41.5 44t-12.5 34z" />
<glyph unicode="&#x203a;" horiz-adv-x="653" d="M96 817l41 31l373 -344q53 -50 53 -82q0 -28 -53 -78l-367 -346q-13 9 -43 35l228 391q-76 131 -232 393z" />
<glyph unicode="&#x205f;" horiz-adv-x="461" />
<glyph unicode="&#x20ac;" d="M37 571v66h946v-66h-516q0 -229 94 -368.5t266 -139.5q74 0 131 23q-22 45 -22 104q0 72 40 120t99 48q48 0 82.5 -35t34.5 -94q0 -102 -116 -174.5t-318 -72.5q-272 0 -437 155.5t-184 433.5h-100zM37 727v68h108q32 264 203.5 419.5t423.5 155.5q184 0 293 -73.5 t109 -174.5q0 -59 -34.5 -94t-82.5 -35q-64 0 -101.5 46.5t-37.5 117.5q0 62 26 113q-56 22 -129 22q-86 0 -153.5 -42.5t-108 -114.5t-61.5 -158t-23 -182h514v-68h-946z" />
<glyph unicode="&#x2122;" horiz-adv-x="1732" d="M45 1165l27 217q2 2 7 5t7 4q120 -13 305 -13q173 0 297 13l14 -11l25 -213l-18 -4q-18 -5 -29 23q-34 91 -73 121t-107 30h-27v-540q0 -21 12 -32t27 -13t27 -10.5t12 -24.5v-17h-326v19q0 13 11.5 21t25.5 12t25.5 16t11.5 33v536h-27q-73 0 -106 -27.5t-74 -123.5 q-11 -30 -29 -25zM715 700v17q0 16 14.5 23.5t32 10t33 16.5t16.5 42l23 459q1 26 -10.5 40.5t-26 18.5t-27 12t-12.5 21v20h254l200 -481q33 85 93.5 246t89.5 235h252v-20q0 -13 -12 -20.5t-27 -11.5t-27 -18t-12 -38q0 -70 3.5 -146.5t10 -178t8.5 -146.5q1 -26 13.5 -39 t26 -14.5t25 -8.5t11.5 -24v-15h-313v15q0 15 11 23t24 11t24 15t10 33l-20 467q-1 0 -3 1t-3 1q-28 -75 -213 -576h-49l-252 588h-6l-23 -469q-1 -28 14 -42.5t33.5 -16t34.5 -9t16 -24.5v-17h-237z" />
<glyph unicode="&#x25fc;" horiz-adv-x="890" d="M0 0v891h891v-891h-891z" />
</font>
</defs>
</svg>
