<svg xmlns="http://www.w3.org/2000/svg" viewBox="0 0 83 78">
  <path d="M74.11,56a39,39,0,1,1,0-33.92l-.9.43a38,38,0,1,0,0,33.06Z" fill="#fff" fill-opacity="0.3"/>
  <path d="M50.31,47.89a8.39,8.39,0,0,1-.24,2.39A22.62,22.62,0,0,1,38.68,53v0a22.63,22.63,0,0,1-11.4-2.72,9,9,0,0,1-.25-2.4c-.09-1.22,0-3.7,2.2-4.24a58.76,58.76,0,0,0,5.7-1.78,5.09,5.09,0,0,0,.58-2.08,6.86,6.86,0,0,1-1.86-3.21c-.06,0-.49-.66-.71-2.29-.14-1-.11-1.6.1-1.81,0,0-1.34-4.41,1.89-6.36A1.42,1.42,0,0,1,34.4,25s1.48.16,2.9.17a9.23,9.23,0,0,0,1.76-.13,2.75,2.75,0,0,1,.57-.05,3.14,3.14,0,0,1,2.84,2c.47,0,3.12.2,1.85,5.45,0,0,.47,0,.09,1.93-.29,1.5-.69,2.18-.76,2.12a7.06,7.06,0,0,1-1.89,3.24,7.7,7.7,0,0,0,.54,2.08s2.9,1,5.82,1.78C50.3,44.18,50.4,46.66,50.31,47.89Z" fill="#fff"/>
  <path d="M74,37V31a1,1,0,0,1,2,0v6h6a1,1,0,0,1,0,2H76v6a1,1,0,0,1-2,0V39H68a1,1,0,0,1,0-2Z" fill="#fff"/>
</svg>
