<svg xmlns="http://www.w3.org/2000/svg"><symbol id="icon_arrow-large" viewBox="0 0 11.12 19.41"><path d="M8.29 9.71L0 1.41 1.41 0l9.71 9.71-9.71 9.7L0 18l8.29-8.29z"/></symbol><symbol id="icon_arrow-small" viewBox="0 0 7.12 11.41"><path d="M0 1.41L1.41 0l5.71 5.71-5.71 5.7L0 10l4.29-4.29L0 1.41z"/></symbol><symbol id="icon_download" viewBox="0 0 18 19"><path d="M2 17h14v-3h2v5H0v-5h2zm8-6.41l1.29-1.3 1.42 1.42L9 14.41l-3.71-3.7 1.42-1.42L8 10.59V0h2z"/></symbol><symbol id="icon_play" viewBox="0 0 16 20"><path d="M0 0l16 10L0 20V0z"/></symbol><symbol id="icon_plus" viewBox="0 0 18 18"><path d="M10 8h8v2h-8v8H8v-8H0V8h8V0h2z"/></symbol><symbol id="icon_refresh" viewBox="0 0 612.035 612.035"><path d="M323.128 56.236l5.646-9.57 40.17-40.169C271.247-13.921 165.482 13.786 89.65 89.646-16.421 195.717-28.355 360.261 53.875 479.49L10.98 522.386l137.7 19.667-19.667-137.7-34.968 34.967c-60.978-96.724-49.322-226.078 34.94-310.34 53.244-53.243 124.486-77.501 194.143-72.744zm258.264 13.743l-137.7-19.667 19.668 137.7 38.25-38.25c78.726 98.31 72.521 242.186-18.583 333.317-61.116 61.117-145.989 84.039-224.882 68.739l-45.65 45.649c105.654 33.799 226.05 8.791 309.895-75.054 112.858-112.858 119.146-291.979 18.805-412.209l40.197-40.225z"/></symbol><symbol id="icon_registration" viewBox="0 0 83 78"><path d="M74.11 56a39 39 0 1 1 0-33.92l-.9.43a38 38 0 1 0 0 33.06z" fill-opacity=".4"/><path d="M50.31 47.89a8.39 8.39 0 0 1-.24 2.39A22.62 22.62 0 0 1 38.68 53a22.63 22.63 0 0 1-11.4-2.72 9 9 0 0 1-.25-2.4c-.09-1.22 0-3.7 2.2-4.24a58.76 58.76 0 0 0 5.7-1.78 5.09 5.09 0 0 0 .58-2.08 6.86 6.86 0 0 1-1.86-3.21c-.06 0-.49-.66-.71-2.29-.14-1-.11-1.6.1-1.81 0 0-1.34-4.41 1.89-6.36A1.42 1.42 0 0 1 34.4 25s1.48.16 2.9.17a9.23 9.23 0 0 0 1.76-.13 2.75 2.75 0 0 1 .57-.05 3.14 3.14 0 0 1 2.84 2c.47 0 3.12.2 1.85 5.45 0 0 .47 0 .09 1.93-.29 1.5-.69 2.18-.76 2.12a7.06 7.06 0 0 1-1.89 3.24 7.7 7.7 0 0 0 .54 2.08s2.9 1 5.82 1.78c2.18.59 2.28 3.07 2.19 4.3zM74 37v-6a1 1 0 0 1 2 0v6h6a1 1 0 0 1 0 2h-6v6a1 1 0 0 1-2 0v-6h-6a1 1 0 0 1 0-2z"/></symbol><symbol id="icon_star" viewBox="0 0 39 37"><path fill-rule="evenodd" d="M19.5 2.501l5.603 10.056 11.395 2.166-7.933 8.382 1.44 11.394L19.5 29.623 8.995 34.499l1.439-11.394-7.932-8.382 11.395-2.166L19.5 2.501"/></symbol></svg>