<svg width="46" height="46" viewBox="0 0 46 46" xmlns="http://www.w3.org/2000/svg"><title>logo</title><g fill="none"><path d="M13.039 15.083c.441.226 3.007 2.522 7.237 1.164 5.245-1.684 10.86-9.938 18.195-8.456 3.52.72 6.073 3.988 6.702 7.58C48.06 31.874 24.728 44.106 19.27 45.377c0 0 8.343-5.522 13.904-12.003 6.093-7.102 9.241-15.304 3.814-17.351-4.647-1.75-16.825 12.4-23.95-.94zm27.384-11.57c0 1.941-1.596 3.512-3.566 3.512-1.97 0-3.567-1.57-3.567-3.512C33.29 1.573 34.888 0 36.857 0c1.968 0 3.566 1.573 3.566 3.513z" fill="#E4953D"/><path d="M24.322 11.544c-.205.25-2.095 2.306-5.41 1.047-3.847-1.457-8.163-7.687-13.61-6.58C2.687 6.54.784 8.977.316 11.65c-2.15 12.284 15.215 21.386 19.277 22.33 0 0-6.21-4.108-10.347-8.931-4.536-5.287-6.876-11.39-2.837-12.914 3.448-1.299 12.272 9.348 17.913-.591zM3.567 2.635c0 1.454 1.198 2.634 2.675 2.634 1.477 0 2.675-1.18 2.675-2.634C8.917 1.18 7.72 0 6.242 0 4.763 0 3.567 1.174 3.567 2.635z" fill="#927649"/></g></svg>