<?xml version="1.0" standalone="no"?>
<!DOCTYPE svg PUBLIC "-//W3C//DTD SVG 1.1//EN" "http://www.w3.org/Graphics/SVG/1.1/DTD/svg11.dtd" >
<svg xmlns="http://www.w3.org/2000/svg" xmlns:xlink="http://www.w3.org/1999/xlink" version="1.1">
<metadata></metadata>
<defs>
<font id="pf_regal_display_probold" horiz-adv-x="1204" >
<font-face units-per-em="2048" ascent="1536" descent="-512" />
<missing-glyph horiz-adv-x="540" />
<glyph horiz-adv-x="0" />
<glyph horiz-adv-x="682" />
<glyph unicode=" "  horiz-adv-x="540" />
<glyph unicode="&#x09;" horiz-adv-x="540" />
<glyph unicode="&#xa0;" horiz-adv-x="540" />
<glyph unicode="!" horiz-adv-x="667" d="M161.5 1309.5q8.5 35.5 25.5 65.5t56 49.5t91 19.5q71 0 113 -33t53 -78t2 -96l-148 -840h-35l-157 846q-9 31 -0.5 66.5zM190 123q0 61 43 104t103 43q62 0 104.5 -43t42.5 -104q0 -60 -43 -103t-104 -43q-60 0 -103 43t-43 103z" />
<glyph unicode="&#x22;" horiz-adv-x="724" d="M106 1315q-11 54 18.5 96.5t88.5 42.5q58 0 89.5 -35.5t21.5 -91.5l-93 -448h-30zM399 1315q-11 54 18.5 96.5t88.5 42.5q58 0 89 -35.5t21 -91.5l-92 -448h-30z" />
<glyph unicode="#" d="M109 457v61h227l57 328h-225v61h235l66 371h63l-65 -371h334l65 371h66l-66 -371h217v-61h-227l-57 -328h225v-61h-236l-69 -398h-66l70 398h-334l-70 -398h-63l70 398h-217zM399 518h334l58 328h-334z" />
<glyph unicode="$" d="M94 268q0 63 39 101.5t90 38.5q77 0 117.5 -54t40.5 -135q0 -94 -43 -158q71 -38 176 -41v578q-49 24 -79.5 39.5t-75.5 41.5t-72.5 47t-59.5 51.5t-50 60t-30 67t-12 78.5q0 155 105 251t274 120v155h37v-1673h-37v152q-197 11 -308.5 92t-111.5 188zM383 1112 q0 -98 131 -170v367q-59 -19 -95 -71.5t-36 -125.5zM647 -164v1673h37v-151q177 -12 276 -81t99 -167q0 -60 -36.5 -95.5t-86.5 -35.5q-66 0 -109 47.5t-43 124.5t29 149q-55 17 -129 25v-471q55 -26 90 -44t86 -47.5t84 -54.5t70.5 -61.5t59 -73t36 -83t14.5 -97.5 q0 -167 -119.5 -271t-320.5 -128v-158h-37zM684 35q89 20 136.5 85t47.5 156q0 133 -184 236v-477z" />
<glyph unicode="%" horiz-adv-x="1665" d="M70 1001q0 62 12.5 119.5t40 109.5t68 90.5t100 61.5t131.5 23q76 0 136.5 -22.5t100 -60.5t65.5 -90.5t37 -108.5t11 -119q0 -76 -20 -145t-60 -128.5t-110.5 -95t-161.5 -35.5q-92 0 -161.5 33.5t-109.5 91t-59.5 127t-19.5 149.5zM295 1001q0 -372 129 -372 q125 0 125 372q0 180 -28.5 276.5t-98.5 96.5q-127 0 -127 -373zM434 -80l727 1555h49l-725 -1555h-51zM889 387q0 62 12.5 119.5t40 109.5t68 90.5t100 61.5t131.5 23q94 0 164.5 -34t109.5 -92.5t57.5 -127t18.5 -148.5q0 -76 -20 -145t-60 -128t-110.5 -94.5 t-161.5 -35.5q-92 0 -161.5 33.5t-109.5 91t-59.5 127t-19.5 149.5zM1114 387q0 -373 129 -373q125 0 125 373q0 180 -28.5 276.5t-98.5 96.5q-127 0 -127 -373z" />
<glyph unicode="&#x26;" horiz-adv-x="1708" d="M102 397q0 57 18.5 114.5t63.5 117.5t111.5 106.5t172.5 78.5t237 38v8q-112 1 -199 18.5t-140 45.5t-87 66t-47 75.5t-13 77.5q0 140 141.5 225.5t376.5 85.5q192 0 310 -65.5t118 -163.5q0 -64 -37.5 -98.5t-91.5 -34.5q-73 0 -111 51t-38 125q0 62 28 127 q-59 18 -112 18q-110 -2 -185 -78t-75 -198q0 -247 313 -265l-4 -32q-72 -5 -140.5 -34.5t-125.5 -81.5t-92 -135t-35 -183q0 -65 11.5 -124t40.5 -117t74 -100t116.5 -68t162.5 -26q120 0 221 28t171.5 75.5t120 110.5t73 132.5t23.5 141.5q0 125 -87 217t-225 92t-209 -61 t-71 -142q0 -75 58.5 -124.5t158.5 -49.5q-8 32 -8 60q0 50 27 86t77 36q38 0 61 -23.5t23 -57.5q0 -62 -50.5 -96t-121.5 -34q-120 0 -196 58t-76 155q0 86 42.5 149.5t110 99t149.5 60t164 41t149.5 34.5t110 48t42.5 74q0 43 -39 64.5t-95 21.5q-19 0 -43 -4 q11 -33 11 -59q0 -45 -25.5 -78t-73.5 -33q-32 0 -53.5 18.5t-21.5 53.5q0 64 61.5 98.5t136.5 34.5q100 0 160.5 -45.5t60.5 -122.5q0 -33 -13.5 -65.5t-45.5 -69t-96 -68t-154 -51.5q135 -132 135 -311q0 -78 -25.5 -154t-80 -145t-132.5 -121.5t-191 -83.5t-247 -31 q-181 0 -322.5 36.5t-229 101t-132.5 148t-45 181.5z" />
<glyph unicode="'" horiz-adv-x="446" d="M115 1323q-11 51 19.5 91t86.5 40q58 0 89.5 -35.5t21.5 -91.5l-92 -448h-31z" />
<glyph unicode="(" horiz-adv-x="741" d="M115 535q0 275 140 538t398 440l17 -22q-158 -161 -237 -413t-79 -527q0 -274 78.5 -522t235.5 -414l-19 -25q-260 167 -397 418.5t-137 526.5z" />
<glyph unicode=")" horiz-adv-x="741" d="M70 1491l16 22q259 -177 399 -440t140 -538t-137.5 -526.5t-397.5 -418.5l-18 25q157 166 235 414t78 522q0 275 -78.5 527t-236.5 413z" />
<glyph unicode="*" horiz-adv-x="864" d="M111 1178q0 57 38.5 89.5t73.5 4.5l174 -137l-10 -27l-203 -4q-36 0 -54.5 19.5t-18.5 54.5zM205 907q0 38 26 54l172 124l25 -16l-51 -192q-17 -64 -68 -64q-39 0 -71.5 30t-32.5 64zM358 1343q-17 43 6.5 76t75.5 33q48 0 72.5 -31t9.5 -75l-65 -185h-31zM459 1069 l24 16l172 -124q27 -17 27 -54q0 -34 -32.5 -64t-71.5 -30q-51 0 -68 64zM483 1135l174 137q35 28 74 -4.5t39 -89.5q0 -34 -19 -54t-55 -20l-202 4z" />
<glyph unicode="+" d="M174 567v82h395v387h82v-387h391v-82h-391v-399h-82v399h-395z" />
<glyph unicode="," horiz-adv-x="514" d="M109 133q0 60 39.5 104t103.5 44q76 0 118 -53.5t42 -131.5q0 -110 -71 -249.5t-173 -223.5l-18 23q80 72 138 181t64 189q-40 -30 -96 -30q-65 0 -106 40.5t-41 106.5z" />
<glyph unicode="-" horiz-adv-x="667" d="M70 459v92h528v-92h-528z" />
<glyph unicode="." horiz-adv-x="485" d="M94 131q0 63 43 106.5t105 43.5q63 0 106 -43.5t43 -106.5q0 -62 -43 -104.5t-106 -42.5q-62 0 -105 43t-43 104z" />
<glyph unicode="/" horiz-adv-x="636" d="M0 -119l555 1608h78l-553 -1608h-80z" />
<glyph unicode="0" d="M70 680q0 106 19 205t61 189t103 156.5t151 106t198 39.5q116 0 208 -39.5t151.5 -105.5t99 -157t56 -188t16.5 -204q0 -104 -18 -202.5t-59 -191.5t-101.5 -162t-152 -111t-202.5 -42q-112 0 -202.5 40t-150.5 107t-100.5 158.5t-58.5 191.5t-18 210zM389 678 q0 -676 215 -676q60 0 102.5 49.5t65.5 144.5t33 211t10 269q0 159 -9.5 275t-33 208.5t-66 139.5t-104.5 47q-59 0 -102 -54t-66.5 -150t-34 -210.5t-10.5 -253.5z" />
<glyph unicode="1" d="M246 1260l497 122q1 -2 5 -5l4 -3v-1212q0 -43 17.5 -70t42 -36.5t49 -13.5t42 -10t17.5 -18v-14h-629v14q0 14 26.5 22t58.5 14t58.5 37t26.5 87v916q0 40 -9 67t-20.5 40.5t-34.5 20.5t-38 8t-44 1h-30q-39 0 -39 33z" />
<glyph unicode="2" d="M25 16q78 111 183 223.5t184 190t152 165t112.5 189.5t39.5 224q0 138 -71 226.5t-181 88.5q-92 0 -163 -51q39 -26 61.5 -72.5t22.5 -95.5q0 -55 -35.5 -99t-98.5 -44q-61 0 -94 38.5t-33 90.5q0 26 12 59.5t43 74.5t77.5 74t124.5 55.5t174 22.5q102 0 184 -20 t135.5 -53.5t89.5 -79t51 -93.5t15 -100q0 -81 -44 -161t-112.5 -144.5t-158 -134t-172.5 -126t-165.5 -124t-128.5 -125.5q4 -4 4 -6h443q69 0 116 3t84.5 14t59.5 21.5t45.5 37t37.5 48.5t40 68q1 2 3.5 6t3.5 5.5t3.5 5t4 5l3.5 3.5t4.5 2.5l5 1t5.5 0.5l16 -2 q-25 -82 -67 -231.5t-56 -196.5h-954z" />
<glyph unicode="3" d="M66 283q0 90 72.5 149.5t176.5 65.5l19 -23q-14 -29 -23.5 -80t-9.5 -90q0 -60 12.5 -112.5t38 -96t69.5 -69t101 -25.5q64 0 111 30t73 81t38 110t12 127q0 176 -97 264t-260 88q-10 0 -84 -4l-8 31q198 47 291.5 134t93.5 222q0 115 -61.5 182.5t-155.5 67.5 q-76 0 -129 -39q60 -63 60 -153q0 -63 -38 -108.5t-104 -45.5q-58 0 -91.5 36t-33.5 89q0 30 11 62t40.5 68.5t74.5 65t119.5 47.5t168.5 19q101 0 181.5 -20t130.5 -51.5t83.5 -73.5t46.5 -82t13 -80q0 -56 -26.5 -108.5t-79 -99t-140.5 -78.5t-201 -40v-8q139 0 253 -40.5 t185.5 -125t71.5 -200.5q0 -115 -68 -205t-188 -139.5t-270 -49.5q-218 0 -348.5 87t-130.5 221z" />
<glyph unicode="4" d="M45 373v33q311 454 559 944h354l-38 -76q-183 -258 -425.5 -500t-412.5 -366h582v325q171 42 284 135q1 -1 4.5 -2t5.5 -2v-456h187v-35h-187v-197q0 -40 14 -68.5t34.5 -40.5t45 -20t45 -11t34.5 -9.5t14 -18.5v-8h-666v8q0 12 13.5 19t34.5 9.5t44.5 10.5t44.5 20.5 t34.5 41t13.5 69.5v195h-619z" />
<glyph unicode="5" d="M74 270q0 95 72 159t180 67l16 -21q-14 -31 -23.5 -81t-9.5 -89q0 -140 52.5 -221.5t164.5 -81.5q68 0 116.5 34t73.5 92t35.5 120t10.5 133q0 176 -87.5 268t-228.5 92q-104 0 -210 -53q-11 4 -29 8l88 631h422q120 0 179 11.5t82.5 32.5t51.5 73q14 31 31 29l14 -3 q-15 -59 -44 -186.5t-44 -185.5q-176 20 -395 20h-295l-55 -397q160 96 364 96q202 0 333.5 -112.5t131.5 -294.5q0 -89 -34.5 -166.5t-100 -138t-169 -95.5t-232.5 -35q-207 0 -334 83t-127 212z" />
<glyph unicode="6" d="M86 471q0 157 67 303.5t184 262t272.5 204t334.5 137.5l8 -24q-277 -111 -418 -337t-141 -546q0 -90 5.5 -158t19.5 -128.5t37.5 -99.5t61.5 -61t89 -22q58 0 99 34.5t63 96.5t31.5 133t9.5 158q0 65 -14.5 123.5t-46 112.5t-91 86t-139.5 32q-4 20 -4 25q82 35 188 35 q177 0 293.5 -109.5t116.5 -296.5q0 -92 -34.5 -174t-98.5 -145.5t-164 -100.5t-223 -37q-134 0 -234 38.5t-158 108t-86 156.5t-28 193z" />
<glyph unicode="7" d="M143 967l113 407q188 -20 522 -20l326 -2l10 -11q-291 -530 -514 -1341h-364q283 565 735 1135h-461q-105 0 -157 -10.5t-83.5 -36.5t-68.5 -87q-15 -25 -24 -32.5t-23 -3.5z" />
<glyph unicode="8" d="M102 319q0 112 78 212t211 153q-112 76 -172.5 153t-60.5 177q0 166 127.5 265t322.5 99q113 0 206 -33.5t153.5 -107t60.5 -174.5q0 -94 -68.5 -173.5t-177.5 -115.5q76 -44 126 -79t102.5 -85.5t79 -111t26.5 -131.5q0 -122 -69.5 -212.5t-186 -136t-262.5 -45.5 q-93 0 -179 20.5t-158.5 61t-115.5 109t-43 155.5zM307 352q0 -161 78 -255.5t233 -94.5q107 0 177.5 63.5t70.5 161.5q0 42 -13 80t-40.5 72.5t-56 62.5t-75 60t-81 53.5t-89.5 55t-87 53.5q-64 -60 -90.5 -147t-26.5 -165zM395 1130q0 -32 11.5 -62.5t25.5 -53.5t46 -51 t53 -44t67.5 -43.5t68.5 -39.5t76 -41q47 50 67.5 123t20.5 137q0 129 -60.5 211t-176.5 82q-90 0 -144.5 -58t-54.5 -160z" />
<glyph unicode="9" d="M84 924q0 92 34.5 173.5t99 144t164 98.5t222.5 36q106 0 191.5 -26.5t143.5 -72.5t97 -110.5t56.5 -137.5t17.5 -155q0 -207 -108 -386.5t-300 -307.5t-448 -198q-2 3 -5 11t-5 11q283 122 423 347t140 526q0 471 -217 471q-57 0 -98 -33.5t-63 -94t-32 -131t-10 -157.5 q0 -50 9 -97t30.5 -93t53.5 -80t83 -55t115 -21l6 -23q-84 -35 -190 -35q-180 0 -295 105t-115 291z" />
<glyph unicode=":" horiz-adv-x="485" d="M94 131q0 63 43 106.5t105 43.5q63 0 106 -43.5t43 -106.5q0 -62 -43 -104.5t-106 -42.5q-62 0 -105 43t-43 104zM94 702q0 63 43 106.5t105 43.5q63 0 106 -43.5t43 -106.5q0 -62 -43 -104.5t-106 -42.5q-62 0 -105 43t-43 104z" />
<glyph unicode=";" horiz-adv-x="485" d="M90 133q0 59 40.5 103.5t102.5 44.5q76 0 119 -53.5t43 -131.5q0 -110 -71.5 -249.5t-173.5 -223.5l-19 23q81 73 139 181.5t64 188.5q-40 -30 -96 -30q-64 0 -106 41t-42 106zM94 702q0 63 43 106.5t105 43.5q63 0 106 -43.5t43 -106.5q0 -62 -43 -104.5t-106 -42.5 q-62 0 -105 43t-43 104z" />
<glyph unicode="&#x3c;" d="M113 567v64q174 81 499 229.5t467 214.5v-92l-841 -383l841 -385v-96z" />
<glyph unicode="=" d="M178 387v80h864v-80h-864zM178 725v80h864v-80h-864z" />
<glyph unicode="&#x3e;" d="M113 119v96q158 73 450 206.5t391 178.5l-841 383v92q174 -81 499 -229.5t467 -214.5v-64z" />
<glyph unicode="?" horiz-adv-x="1122" d="M139 1190q0 108 111.5 178t314.5 70q87 0 162.5 -14.5t141.5 -45.5t104.5 -88t38.5 -135q0 -60 -28.5 -117.5t-74 -102.5t-100.5 -87.5t-110 -80.5t-100.5 -73.5t-74 -74t-28.5 -74.5q0 -76 98 -158l-14 -29q-171 26 -268 105t-97 182q0 60 51.5 123t124.5 118t146 109 t124.5 116.5t51.5 121.5q0 84 -60.5 125t-146.5 41q-64 0 -129 -21q37 -58 37 -133t-41 -127.5t-115 -52.5q-46 0 -82.5 33t-36.5 92zM358 113q0 62 43.5 105.5t104.5 43.5q62 0 104.5 -43t42.5 -106q0 -60 -43 -102t-104 -42q-60 0 -104 42t-44 102z" />
<glyph unicode="@" horiz-adv-x="2019" d="M113 616q0 185 70.5 350t193 284.5t298.5 189t378 69.5q178 0 332.5 -49t270.5 -140.5t182.5 -232t66.5 -313.5q0 -235 -143 -388t-371 -153q-84 0 -154.5 33.5t-91.5 102.5h-8q-65 -71 -139 -96t-160 -25q-99 0 -163.5 50t-64.5 144q0 77 38.5 134t103 87.5t136 45 t150.5 14.5q54 0 97 -6v117q0 213 -154 213q-64 0 -117 -33q47 -47 47 -113q0 -57 -34.5 -95t-96.5 -38q-47 0 -73.5 27.5t-26.5 68.5q0 35 19 70.5t59 69t114.5 54.5t171.5 21q70 0 125 -12t91 -30.5t61.5 -49.5t39 -59t20.5 -70t8.5 -70.5t1.5 -72.5v-279q0 -69 21 -102 t75 -33q151 0 261 138.5t110 332.5q0 162 -63 294.5t-172.5 219t-255.5 133.5t-314 47q-189 0 -355 -65.5t-284 -177.5t-186 -268t-68 -332q0 -246 105.5 -441.5t294.5 -305t427 -109.5q178 0 299 36l12 -43q-125 -41 -321 -41q-247 0 -445 117.5t-308.5 322.5t-110.5 457z M868 489q0 -75 29.5 -117t83.5 -42q42 0 84 22t70 58v280h-58q-109 -6 -159 -61.5t-50 -139.5z" />
<glyph unicode="A" horiz-adv-x="1552" d="M10 0v12q0 13 20 19t52.5 14t68.5 24.5t75 61.5t65 115q56 149 168.5 444t167.5 443q18 49 18 81q0 48 -30 76t-66 34.5t-66 15.5t-30 24v16h444l444 -1181q24 -64 60 -102t64 -47t48.5 -17.5t20.5 -20.5v-12h-655v12q0 12 22 20t48.5 13t48.5 26t22 56q0 21 -31 109 l-74 196h-512l-63 -176q-23 -58 -23 -94q0 -49 31 -77.5t67.5 -35t67.5 -15t31 -22.5v-12h-504zM416 467h487l-237 645h-13z" />
<glyph unicode="B" horiz-adv-x="1495" d="M63 0v14q0 10 14.5 16t36.5 8.5t47.5 12.5t47.5 26t36.5 51.5t14.5 86.5v967q0 46 -14.5 78t-36 45.5t-46.5 22t-46.5 11t-36 9t-14.5 18.5v14h759q115 0 205 -18.5t146.5 -49t93.5 -72.5t52 -86.5t15 -94.5q0 -120 -110.5 -205t-296.5 -94v-8q103 -5 186.5 -29.5 t137.5 -60.5t91 -83.5t52.5 -96t15.5 -99.5q0 -55 -16 -106.5t-56 -102.5t-100.5 -89t-157.5 -61.5t-219 -23.5h-801zM590 246q0 -44 2 -70.5t11 -57t25.5 -47t47.5 -27.5t76 -11h20q131 0 211 90t80 252q0 83 -24.5 148.5t-61.5 104t-86.5 63t-94 33.5t-89.5 9h-117v-487z M590 768h123q52 0 100.5 17t90 49.5t66.5 88.5t25 128q0 79 -24 136.5t-67.5 90.5t-97 48t-120.5 15h-96v-573z" />
<glyph unicode="C" horiz-adv-x="1421" d="M88 670q0 151 50.5 284t141.5 233t229 158t304 58q113 0 218 -17.5t173 -42.5l60 95h30l19 -520h-10q-14 0 -24 17t-24 62q-122 369 -403 369q-102 0 -178.5 -51.5t-122 -146.5t-68 -220t-22.5 -282q0 -321 100.5 -486.5t296.5 -165.5q324 0 438 414q25 94 34 109 q8 14 20 14h12l-23 -590h-32l-54 96q-111 -40 -212.5 -61t-231.5 -21q-224 0 -389 90.5t-248.5 246.5t-83.5 358z" />
<glyph unicode="D" horiz-adv-x="1665" d="M63 0v14q0 10 14.5 16t36.5 9t47.5 13t47.5 25.5t36.5 51t14.5 86.5v967q0 46 -14 78t-35.5 45.5t-46.5 22t-46.5 11t-35.5 9t-14 18.5v14h639q145 0 272.5 -25t237 -79t187.5 -133.5t122.5 -194.5t44.5 -256q0 -59 -10 -119.5t-36 -130t-66 -131.5t-105 -120t-148 -99.5 t-200 -66.5t-256 -25h-687zM592 195q0 -80 37 -121t123 -41h36q197 0 305.5 159.5t108.5 471.5q0 346 -116.5 511.5t-391.5 165.5h-102v-1146z" />
<glyph unicode="E" horiz-adv-x="1433" d="M63 0v14q0 11 14.5 16.5t37 8.5t48 13t48 25.5t37 51t14.5 86.5v969q0 46 -14.5 77.5t-36.5 45t-47 22t-47 10.5t-36.5 8.5t-14.5 18.5v14h657q385 0 514 58q9 -73 55 -494q-8 -4 -16 -4q-16 0 -33 39q-46 109 -84.5 173.5t-90.5 110t-117 63t-160 17.5h-197v-604h170 q63 0 104.5 25.5t58.5 62.5t26.5 74t20 62.5t27.5 25.5h11v-553h-13q-16 0 -26 19.5t-14 49.5t-14.5 64t-26.5 64t-52.5 49.5t-89.5 19.5h-182v-505q0 -79 38 -120.5t132 -41.5h86q173 0 288.5 105.5t217.5 353.5q14 38 35 38q1 0 6.5 -1t7.5 -1l-119 -573q-153 43 -401 43 h-822z" />
<glyph unicode="F" horiz-adv-x="1323" d="M70 0v12q0 11 14.5 17.5t36.5 9.5t47 12.5t47 25t36.5 50t14.5 84.5v973q0 46 -14.5 77.5t-36.5 45t-47 22t-47 10.5t-36.5 8.5t-14.5 18.5v14h665q385 0 514 58q20 -166 56 -494q-8 -4 -17 -4q-16 0 -33 39q-46 109 -84.5 173.5t-90.5 110t-117 63t-160 17.5h-205v-628 h188q53 0 91.5 18.5t56.5 46.5t31 60t18.5 60t15.5 46.5t25 18.5h10v-553h-12q-16 0 -26 19.5t-14 49.5t-14.5 64t-26.5 64t-52.5 49.5t-89.5 19.5h-201v-469q0 -58 20.5 -95t50 -50.5t59.5 -19.5t50.5 -12.5t20.5 -19.5v-12h-729z" />
<glyph unicode="G" horiz-adv-x="1593" d="M86 672q0 150 52.5 283t146.5 232.5t235.5 157.5t310.5 58q156 0 381 -64l99 97h37q12 -360 20 -537h-10q-16 0 -25 16.5t-24 65.5q-18 61 -42 113.5t-61 104t-82 87.5t-108 58t-137 22q-142 0 -237 -89.5t-138 -243t-43 -365.5q0 -329 85 -494.5t283 -165.5 q91 0 166.5 42t120.5 104v329q0 50 -20.5 81t-49.5 42.5t-58 17t-49.5 12.5t-20.5 21v15h661v-15q0 -10 -12 -15.5t-30.5 -8t-39.5 -11t-39.5 -22t-30.5 -44.5t-12 -75v-465l-33 -10l-106 82q-275 -111 -469 -111q-221 0 -385 88.5t-250 245t-86 361.5z" />
<glyph unicode="H" horiz-adv-x="1751" d="M63 0v12q0 11 14.5 17.5t36 9.5t47 12.5t47 25t36 50t14.5 84.5v977q0 44 -14.5 74.5t-36 44t-47 22t-47 11t-36 9t-14.5 17.5v14h717v-14q0 -11 -14 -17.5t-35 -9.5t-46 -11.5t-46 -22t-35 -44t-14 -73.5v-443h563v443q0 44 -13.5 74.5t-33.5 44t-44 22t-44 11t-33.5 9 t-13.5 17.5v14h708v-14q0 -11 -14.5 -17.5t-36.5 -9.5t-47 -11.5t-47 -22t-36.5 -44t-14.5 -73.5v-973q0 -51 15 -86t37 -51t48 -26t48 -12.5t37 -9.5t15 -18v-12h-712v12q0 10 13.5 16.5t33.5 10t44 15t44 29t33.5 56t13.5 92.5v480h-563v-500q0 -50 14 -84.5t34.5 -50 t44.5 -25t44.5 -12.5t34.5 -9.5t14 -17.5v-12h-713z" />
<glyph unicode="I" horiz-adv-x="886" d="M78 0v12q0 11 14.5 17.5t36.5 9.5t47 12.5t47 25t36.5 50t14.5 84.5v977q0 43 -14.5 73t-36.5 43.5t-47 22.5t-47 12t-36.5 9.5t-14.5 17.5v14h729v-14q0 -11 -15 -17.5t-37 -9.5t-48.5 -11.5t-48.5 -22t-37 -44t-15 -73.5v-977q0 -50 15 -84.5t37 -50t48.5 -25 t48.5 -12.5t37 -9.5t15 -17.5v-12h-729z" />
<glyph unicode="J" horiz-adv-x="821" d="M-244 -297q0 64 44 104.5t112 40.5q84 0 132 -67q46 -63 46 -167v-13q58 26 92 63.5t53 107.5t19 177v1239q0 52 -20.5 85t-49 45t-57.5 17.5t-49.5 11.5t-20.5 19v14h734v-14q0 -10 -11.5 -15.5t-29.5 -9t-40 -8t-43.5 -14t-39.5 -24t-29.5 -42.5t-11.5 -65 q0 -107 1 -429.5t1 -385.5q0 -412 -178 -598q-218 -230 -453 -230q-31 0 -64 8.5t-64.5 25.5t-52 49.5t-20.5 74.5z" />
<glyph unicode="K" horiz-adv-x="1601" d="M61 0v12q0 13 19.5 19t46.5 12.5t54.5 20t47 51t19.5 96.5v975q0 51 -19.5 84t-47 45t-54.5 18.5t-46.5 12.5t-19.5 18v14h709v-14q0 -11 -14 -17t-35 -9t-46 -11.5t-46 -22t-35 -43.5t-14 -73v-475h139l358 413q76 87 76 134q0 30 -26.5 48t-57.5 22t-57.5 12.5 t-26.5 23.5v14h565v-12q0 -14 -15 -22t-40 -11.5t-64 -15.5t-81.5 -30.5t-97.5 -59.5t-107 -99l-234 -260l416 -643q39 -60 81.5 -100.5t74 -56.5t58 -25t40.5 -16t14 -19v-10h-669v12q0 12 17 19.5t38 11t38 17t17 36.5q0 31 -32 80l-326 498h-98v-465q0 -49 14 -83.5 t35 -49.5t46 -24.5t46 -12.5t35 -9.5t14 -17.5v-12h-709z" />
<glyph unicode="L" horiz-adv-x="1425" d="M76 0v14q0 10 15 16t37 8.5t48 12.5t48 26t37 51.5t15 86.5v971q0 51 -20 84t-49 45t-58 18.5t-49 12.5t-20 18v14h729v-14q0 -11 -15 -17t-37 -9t-48.5 -11.5t-48.5 -22t-37 -43.5t-15 -73q0 -165 -1 -495.5t-1 -495.5q0 -79 38 -120.5t134 -41.5h74q92 0 162 25 t129.5 84.5t108.5 143t106 214.5q10 24 18 32.5t19 6.5q3 0 6.5 -1t5.5 -1l-111 -572q-111 33 -415 33h-805z" />
<glyph unicode="M" horiz-adv-x="2002" d="M41 0v12q0 10 18 16.5t44 10.5t56.5 19t57 38t45 71t19.5 114l20 897v6q0 42 -14 72q-15 32 -37.5 46.5t-49.5 24t-50 12t-38.5 8.5t-15.5 17v16h510l436 -936q84 199 213.5 513.5t174.5 422.5h518v-18q0 -12 -21.5 -18t-52 -11.5t-61 -18.5t-51 -47.5t-19.5 -88.5 l18 -967q1 -50 16.5 -85t37.5 -50t48 -25t48 -12.5t36.5 -9t14.5 -17.5v-12h-713v12q0 13 14 19.5t34.5 8.5t45 12.5t45 27t34.5 55t14 94.5q0 276 -19 1012h-6l-344 -835l119 -261l-35 -18q-118 144 -358 147q-113 243 -200 426.5t-126.5 266t-66 136.5t-36.5 75t-20 45h-6 l-19 -961v-7q1 -59 17 -99q18 -44 44 -64t57.5 -33t58.5 -17t45 -11t18 -19v-12h-518z" />
<glyph unicode="N" horiz-adv-x="1669" d="M49 0v12q0 10 18 16t45 11.5t58 22t58 40.5t45 74t18 119v881q0 54 -20.5 89t-49.5 48t-58.5 19.5t-50 12.5t-20.5 19v16h510l737 -927l2 2v624q0 116 -40 172.5t-113 75.5q-8 2 -21 5t-20 4.5t-16.5 4t-14.5 4.5t-10.5 5t-7.5 6.5t-2 7.5v14h526v-14q0 -6 -4 -10 t-13 -7.5t-17.5 -5.5t-24 -5.5t-25.5 -6.5q-37 -10 -63.5 -25t-50 -42.5t-35 -73t-11.5 -109.5v-1120l-43 -12l-1007 1261v-913q0 -109 33.5 -162.5t105.5 -79.5q18 -6 49 -13.5t44 -13t13 -14.5v-12h-524z" />
<glyph unicode="O" horiz-adv-x="1654" d="M88 690q0 117 32 224.5t95 196.5t150.5 155t205 102.5t252.5 36.5q179 0 323.5 -58.5t234.5 -157.5t138 -226t48 -269q0 -143 -50.5 -272t-143 -229t-235.5 -159t-317 -59q-143 0 -263.5 37.5t-206 103.5t-145.5 156t-89 195.5t-29 222.5zM465 690q0 -114 10.5 -210.5 t36.5 -185.5t67 -151t105 -98.5t147 -36.5q99 0 171 53.5t112 150t58 212.5t18 258q0 688 -367 688q-78 0 -140.5 -39t-102.5 -103.5t-66.5 -154t-37.5 -184t-11 -199.5z" />
<glyph unicode="P" horiz-adv-x="1394" d="M63 0v12q0 12 20.5 18t49.5 13t57.5 21t49 51.5t20.5 95.5v971q0 46 -14.5 78t-36 45.5t-46.5 22t-46.5 11t-36 9t-14.5 18.5v14h696q172 0 302.5 -41.5t210 -134.5t79.5 -229q0 -108 -47.5 -191.5t-129 -133t-181 -74.5t-212.5 -25q-109 0 -192 14q0 -59 1 -178t1 -178 q0 -49 14.5 -83.5t36 -49.5t46.5 -24.5t46.5 -12.5t36 -9.5t14.5 -17.5v-12h-725zM592 600q24 -6 53 -6q166 0 259 101t93 276q0 173 -89.5 272.5t-229.5 99.5h-86v-743z" />
<glyph unicode="Q" horiz-adv-x="1654" d="M88 690q0 117 32 224.5t95 196.5t150.5 155t205 102.5t252.5 36.5q179 0 323.5 -58.5t234.5 -157.5t138 -226t48 -269q0 -139 -48 -265.5t-136 -225t-224.5 -159.5t-302.5 -67q48 -39 132 -51q46 -6 90 -6q33 0 65 4q20 -14 71 -51t80 -55.5t72.5 -43.5t82 -36.5 t75.5 -11.5q66 0 143 59l21 -21q-68 -89 -161 -148.5t-171 -59.5q-58 0 -126.5 30.5t-130.5 77.5t-120.5 104.5t-101.5 110.5t-70 96q-175 2 -314 60t-226 156.5t-133 225.5t-46 273zM465 690q0 -114 10.5 -210.5t36.5 -185.5t67 -151t105 -98.5t147 -36.5q99 0 171 53.5 t112 150t58 212.5t18 258q0 688 -367 688q-78 0 -140.5 -39t-102.5 -103.5t-66.5 -154t-37.5 -184t-11 -199.5z" />
<glyph unicode="R" horiz-adv-x="1570" d="M70 0v12q0 11 14.5 17t36.5 9t47 13.5t47 26t36.5 50t14.5 83.5v975q0 53 -20 86t-48.5 44.5t-57 17t-48.5 12t-20 20.5v14h635q140 0 247.5 -17t197 -56.5t137.5 -112.5t48 -176q0 -167 -151.5 -268t-421.5 -101q-26 0 -84 4q50 -61 144 -81q82 -18 206 -17h37l252 -373 q37 -55 74.5 -88t63.5 -42.5t47 -13t31.5 -8.5t10.5 -20v-10h-463l-448 657h-37v-448q0 -49 14.5 -83.5t36.5 -49.5t47.5 -24.5t47.5 -12.5t36.5 -9.5t14.5 -17.5v-12h-725zM598 690h70q150 0 234.5 90.5t84.5 235.5q0 144 -87 235.5t-232 91.5h-70v-653z" />
<glyph unicode="S" horiz-adv-x="1269" d="M63 260q0 66 41 104.5t97 38.5q82 0 127 -56.5t45 -139.5q0 -87 -39 -152q92 -43 217 -43q141 0 239.5 72t98.5 195q0 67 -42.5 124t-111 99t-151 82t-165 82t-151 88.5t-111 112t-42.5 143.5q0 97 42.5 174t117 124.5t169.5 72t205 24.5q214 0 343.5 -75.5t129.5 -186.5 q0 -63 -38 -99t-93 -36q-71 0 -118.5 48.5t-47.5 129.5q0 80 31 153q-79 27 -180 27q-106 0 -179 -60t-73 -161q0 -50 33.5 -94t88.5 -77.5t125.5 -70t143.5 -68.5t143.5 -76t125.5 -91t88.5 -114t33.5 -144q0 -140 -84.5 -240t-223 -147.5t-316.5 -47.5q-234 0 -376.5 84.5 t-142.5 200.5z" />
<glyph unicode="T" horiz-adv-x="1400" d="M18 922l56 503q118 -27 255 -36t369 -9t369.5 9t255.5 36l55 -503q-4 -2 -10 -2q-23 0 -35 36q-75 216 -165 301.5t-253 85.5h-53q0 -189 1 -567t1 -567q0 -58 20.5 -95t50 -50.5t59.5 -19.5t50.5 -12t20.5 -20v-12h-729v12q0 11 14.5 17.5t36.5 9t47 12.5t47 25.5 t36.5 50t14.5 84.5v1132h-51q-163 0 -253 -85.5t-165 -301.5q-12 -36 -34 -36q-7 0 -11 2z" />
<glyph unicode="U" horiz-adv-x="1699" d="M55 1364v14h717v-14q0 -12 -14.5 -19t-37 -10.5t-48 -15t-48 -30t-37 -58t-14.5 -96.5v-658q0 -107 17.5 -184t59.5 -139t120.5 -93.5t192.5 -31.5q195 0 308 137.5t113 390.5v557q0 53 -13.5 93t-35 62.5t-47.5 37t-52.5 20.5t-48 10.5t-35 10.5t-13.5 16v14h526v-14 q0 -11 -18 -18t-45 -10.5t-58 -17t-58 -33.5t-45 -64.5t-18 -106.5v-512q0 -150 -29 -262t-93.5 -196t-174 -126.5t-264.5 -42.5q-298 0 -459 129t-161 394v688q0 51 -19.5 84t-47 45t-54.5 18.5t-46.5 12.5t-19.5 18z" />
<glyph unicode="V" horiz-adv-x="1517" d="M18 1368v12h674v-14q0 -14 -24 -22t-52.5 -13t-52.5 -24.5t-24 -53.5q0 -29 26 -90l316 -782l6 -2l270 719q27 68 27 119q0 40 -19.5 65t-47 34.5t-54.5 15t-46.5 12.5t-19.5 20v16h504v-16q0 -12 -19.5 -18t-52.5 -17t-71 -33.5t-82.5 -81.5t-79.5 -147l-424 -1081 q-9 -2 -27 -4.5t-26 -4.5l-504 1219q-19 47 -47 77t-53 42t-47.5 18.5t-36 13.5t-13.5 21z" />
<glyph unicode="W" horiz-adv-x="2207" d="M10 1366v14h668v-14q0 -14 -24.5 -21.5t-53.5 -12t-53.5 -24.5t-24.5 -55q4 -44 13 -69l270 -762h4l256 752q12 40 12 65q0 36 -27 57t-59 26.5t-59 16t-27 27.5v14h590v-12q0 -18 -23.5 -26.5t-51 -11.5t-51 -22.5t-23.5 -56.5q0 -22 16 -65l285 -752h4l225 711 q20 70 20 90q0 34 -20 56t-48 30.5t-56 13.5t-48 11.5t-20 17.5v16h487v-14q0 -14 -19.5 -19.5t-51.5 -11.5t-66.5 -20t-70.5 -56t-58 -108l-391 -1169q-9 0 -49 -5l-408 1098h-6l-379 -1093q-40 -5 -49 -5l-440 1217q-17 48 -43.5 79.5t-51.5 43.5t-47.5 18.5t-36.5 12.5 t-14 18z" />
<glyph unicode="X" horiz-adv-x="1538" d="M14 0v12q0 12 14 18.5t37.5 11t59.5 19.5t75.5 38t90 72t98.5 116l240 334l-328 520q-46 73 -95.5 120t-81 60t-52.5 23.5t-21 21.5v12h721v-12q0 -14 -23.5 -23.5t-52 -14.5t-52 -24t-23.5 -51q0 -39 61 -133l184 -286l164 247q76 115 76 168q0 34 -24 53t-52 23.5 t-52 13.5t-24 25v14h519v-12q1 -14 -19.5 -21.5t-60 -20t-87.5 -36.5t-114.5 -84t-128.5 -149l-176 -252l383 -598q34 -53 73 -89t69.5 -50t56 -21.5t39.5 -14t14 -18.5v-12h-756v12q0 12 23.5 22t51 17.5t51 28.5t23.5 53q0 38 -32 88l-234 369l-174 -252 q-106 -149 -106 -203q0 -38 27 -59t59 -26t59 -13.5t27 -24.5v-12h-527z" />
<glyph unicode="Y" horiz-adv-x="1441" d="M4 1366v12h701v-14q0 -13 -25 -21.5t-55 -13.5t-55 -24t-25 -52q0 -25 20 -61l291 -524l8 2l211 432q39 76 39 121t-29.5 71t-64.5 32.5t-64.5 15.5t-29.5 22v14h506v-14q1 -13 -17 -19.5t-50.5 -15t-69.5 -26t-81.5 -63.5t-80.5 -116l-256 -499v-416q0 -58 21 -95 t50.5 -50.5t59 -19.5t50.5 -12.5t21 -19.5v-12h-729v12q0 11 14.5 17.5t36 9t47 12.5t47 25.5t36 50t14.5 84.5v360l-338 623q-25 45 -55.5 75.5t-55.5 42.5t-46.5 19.5t-33.5 14.5t-12 20z" />
<glyph unicode="Z" horiz-adv-x="1415" d="M41 0v31l860 1310h-266q-134 0 -216 -35.5t-137.5 -114.5t-109.5 -230q-12 -35 -35 -35h-10l72 510q175 -56 440 -56h657v-34q-162 -249 -456.5 -708.5t-386.5 -602.5h327q105 0 177 20t135.5 75.5t114.5 143.5t110 234q7 15 10 21t10.5 12t18.5 6h10l-117 -594 q-157 47 -411 47h-797z" />
<glyph unicode="[" horiz-adv-x="624" d="M143 -381v1874h420v-35h-180v-1806h180v-33h-420z" />
<glyph unicode="\" horiz-adv-x="636" d="M0 1489h78l555 -1608h-80z" />
<glyph unicode="]" horiz-adv-x="624" d="M61 -348h181v1806h-181v35h420v-1874h-420v33z" />
<glyph unicode="^" horiz-adv-x="1144" d="M119 735q27 44 422 686h61l424 -686h-94l-363 592l-360 -592h-90z" />
<glyph unicode="_" horiz-adv-x="1024" d="M0 -143h1024v-70h-1024v70z" />
<glyph unicode="`" horiz-adv-x="1099" d="M283 1339q0 38 27 65.5t75 27.5q36 0 59 -19.5t43 -56.5t43 -80.5t74 -101.5t121 -109l-10 -25q-111 28 -198.5 70t-136 84.5t-73 80t-24.5 64.5z" />
<glyph unicode="a" horiz-adv-x="1103" d="M61 195q0 88 44 153t118 100t156.5 51.5t173.5 16.5q59 0 111 -6v133q0 244 -179 244q-74 0 -135 -37q53 -53 53 -133q0 -61 -42.5 -103.5t-110.5 -42.5q-51 0 -80 30.5t-29 76.5q0 31 11.5 62.5t41.5 65.5t74.5 59.5t116.5 42t162 16.5q101 0 176.5 -22.5t118.5 -58 t69 -87.5t34.5 -102t8.5 -111v-367q0 -75 20.5 -99.5t88.5 -25.5q0 -4 1 -13t1 -13q-34 -20 -91.5 -34t-107.5 -14q-81 0 -132.5 29t-61.5 105h-8q-76 -80 -160 -109t-182 -29q-112 0 -186.5 57.5t-74.5 164.5zM356 248q0 -85 34.5 -135t94.5 -50q50 0 98 25t81 66v323 q-6 0 -18.5 1t-18.5 1q-143 0 -207 -64t-64 -167z" />
<glyph unicode="b" horiz-adv-x="1232" d="M6 1425v17l424 55l10 -8v-402q0 -197 -39 -313q2 0 4.5 -1t4.5 -1q59 76 145 113t182 37q80 0 154 -27.5t136 -81.5t99 -145t37 -207q0 -75 -17.5 -145t-53.5 -131.5t-87.5 -108t-124.5 -73t-159 -26.5q-89 0 -172 27.5t-139 87.5q-133 -38 -234 -131h-26v1319 q0 44 -15 71t-36 36t-42 13t-36 9t-15 16zM428 115q90 -80 197 -80q118 0 171.5 99t53.5 310q0 402 -229 402q-107 0 -193 -96v-635z" />
<glyph unicode="c" horiz-adv-x="974" d="M68 432q0 139 62 250t184 177.5t286 66.5q76 0 135.5 -14t95 -36t59 -51.5t32 -57t8.5 -56.5q0 -53 -33.5 -89t-85.5 -36q-65 0 -99 41.5t-34 103.5q0 77 43 139q-28 7 -55 7q-130 0 -208.5 -108.5t-78.5 -297.5q0 -198 82 -300.5t239 -102.5q132 0 230 57l10 -27 q-153 -125 -379 -125q-237 0 -365 124.5t-128 334.5z" />
<glyph unicode="d" horiz-adv-x="1251" d="M68 430q0 118 35.5 213t97.5 156.5t144.5 94t178.5 32.5q163 0 269 -72l10 2v426q0 56 -21.5 85.5t-47 34t-47 11t-21.5 21.5v16l415 51l13 -10l2 -1305q0 -39 10.5 -65t26 -37t34 -17.5t34 -8.5t26 -8t10.5 -17v-15q-68 -10 -203.5 -23.5t-202.5 -23.5q-2 1 -6 5.5 t-6 5.5q15 137 17 165q-1 0 -4.5 1.5t-4.5 1.5q-57 -89 -147 -133t-186 -44q-212 0 -319 123t-107 334zM383 451q0 -190 55.5 -292t163.5 -102q115 0 201 109v645q-84 59 -191 59q-62 0 -108 -32.5t-71.5 -91t-37.5 -131.5t-12 -164z" />
<glyph unicode="e" horiz-adv-x="1079" d="M68 446q0 100 36 187t100.5 151.5t161.5 102t212 37.5q201 0 322.5 -119.5t121.5 -292.5l-16 -16h-631q0 -422 319 -422q151 0 293 100l17 -16q-152 -183 -416 -183q-247 0 -383.5 131.5t-136.5 339.5zM377 530l366 15v55q0 71 -15.5 134t-56.5 111t-102 48 q-58 0 -100.5 -49.5t-64.5 -129t-27 -184.5z" />
<glyph unicode="f" horiz-adv-x="706" d="M41 0v14q0 14 21.5 21t47 12t47 36.5t21.5 90.5v686h-135v29l137 12v33q3 101 29.5 203.5t73.5 167.5q65 91 160 149.5t210 58.5q74 0 128.5 -38.5t54.5 -110.5q0 -53 -35 -87t-92 -34q-70 0 -114 49t-44 127q0 13 4 41q-88 -28 -88 -186v-381h221v-33h-219v-698 q0 -45 15.5 -72t38 -36t45 -13t38 -9.5t15.5 -17.5v-14h-580z" />
<glyph unicode="g" horiz-adv-x="1122" d="M31 -201q0 61 37.5 104.5t93.5 43.5q65 0 95 -43.5t30 -93.5t-23 -101t-71 -78q29 -25 107 -43t155 -18q132 0 209 78.5t77 185.5q0 51 -36.5 85.5t-95 50.5t-129.5 25.5t-141.5 17t-129 19t-95 36t-36.5 63.5q0 38 42 85t116 77v6q-74 42 -113 110t-39 152 q0 156 119 260.5t327 104.5q105 0 207 -31q46 63 114.5 102t133.5 39q56 0 98.5 -27t42.5 -89q0 -44 -31.5 -70.5t-72.5 -26.5q-28 0 -56.5 11.5t-55.5 45.5t-33 85q-58 -20 -113 -82q107 -43 163 -124t56 -181q0 -69 -29.5 -131t-84.5 -111.5t-143.5 -79t-197.5 -29.5 q-154 0 -262 54q-43 -15 -75.5 -46t-32.5 -55q0 -31 51 -46t132 -19t179 -6t196.5 -12.5t179.5 -32.5t132 -72.5t51 -126.5q0 -64 -36.5 -123t-105 -106t-178.5 -75t-245 -28q-125 0 -221 23t-151.5 61.5t-83 84.5t-27.5 97zM373 573q0 -319 164 -319q155 0 155 326 q0 315 -160 315q-44 0 -76.5 -27.5t-49.5 -75t-25 -102t-8 -117.5z" />
<glyph unicode="h" horiz-adv-x="1247" d="M31 1434v16l420 51q8 -8 10 -12v-512q0 -137 -37 -238q2 0 5 -1t5 -1q60 97 157.5 141t201.5 44q52 0 99 -15t87.5 -45.5t64 -85.5t23.5 -127v-487q0 -43 14 -70t34.5 -36.5t40.5 -13.5t34 -10t14 -18v-14h-545v14q0 14 18.5 21t40 12t40 36.5t18.5 90.5v512 q0 71 -32 107t-85 36q-58 0 -114.5 -28.5t-83.5 -81.5v-557q0 -38 9 -63.5t22 -36t28.5 -17t28.5 -8t22 -7t9 -16.5v-14h-547v14q0 14 21.5 21t47 12t47 36.5t21.5 90.5v1106q0 39 -10.5 65t-25.5 37t-33.5 18t-33.5 9t-25.5 8t-10.5 17z" />
<glyph unicode="i" horiz-adv-x="690" d="M68 854v16l419 54l11 -11v-753q0 -37 10 -61.5t25.5 -35t33 -17t33 -8.5t25.5 -7.5t10 -16.5v-14h-561v14q0 12 14 17.5t33.5 10t39.5 15t34 39t14 74.5v532q0 55 -22 84.5t-48.5 34t-48.5 11.5t-22 22zM184 1264q0 65 47 112t115 47t116 -47t48 -112q0 -69 -47.5 -117.5 t-116.5 -48.5t-115.5 48.5t-46.5 117.5z" />
<glyph unicode="j" horiz-adv-x="622" d="M-166 -332q0 48 38 83.5t91 35.5q78 0 119 -59q39 -56 39 -136v-12q25 10 41 26.5t22.5 39t8.5 40.5t2 44v972q0 56 -23.5 85.5t-51.5 34t-51.5 11t-23.5 21.5v16l428 56l10 -13v-858q0 -257 -145 -383q-58 -60 -148 -99.5t-182 -39.5q-68 0 -121 35t-53 100zM170 1264 q0 65 47.5 112t114.5 47q70 0 117 -47t47 -112q0 -70 -47 -118t-117 -48q-67 0 -114.5 48.5t-47.5 117.5z" />
<glyph unicode="k" horiz-adv-x="1218" d="M31 0v12q0 12 10.5 18.5t27 9t35 10t35 19.5t27 40.5t10.5 70.5v1100q0 55 -22.5 84.5t-50 34.5t-50 11.5t-22.5 19.5v14l428 55l10 -8v-1016h92l178 189q76 79 76 118q0 25 -25 40t-55 20t-55 13.5t-25 21.5v17h496v-15q0 -15 -28.5 -23.5t-70.5 -16t-104.5 -41.5 t-116.5 -91l-92 -99l242 -401q33 -55 69.5 -91.5t64 -50t50.5 -21t35 -14t12 -18.5v-12h-415q-130 222 -265 442h-63v-268q0 -39 10 -66t25.5 -39t33 -20t33 -10.5t25.5 -9t10 -17.5v-12h-575z" />
<glyph unicode="l" horiz-adv-x="671" d="M47 1434v14l426 53l10 -10v-1331q0 -37 10.5 -61.5t26.5 -35t35 -17t35 -8.5t26.5 -7.5t10.5 -16.5v-14h-574v14q0 12 14 17.5t34 10t40.5 15t34.5 39t14 74.5v1110q0 39 -10.5 65t-26.5 37t-34.5 18t-34.5 9t-26.5 8t-10.5 17z" />
<glyph unicode="m" horiz-adv-x="1804" d="M49 852v14q66 10 201 29t201 29q2 -1 6 -5.5t6 -5.5l-17 -174q1 0 4.5 -1t4.5 -1q112 185 331 185q54 0 102.5 -16t90.5 -54.5t61 -95.5q108 168 314 168q53 0 100 -14.5t87 -45.5t63.5 -86t23.5 -129v-487q0 -37 10 -62t24.5 -35.5t32 -17.5t32 -9t24.5 -7.5t10 -16.5 v-14h-530v14q0 14 17 21t37 12t37 36.5t17 90.5v518q0 64 -28.5 100.5t-73.5 36.5q-57 0 -105.5 -27.5t-78.5 -80.5q2 -20 2 -68v-491q0 -43 11.5 -70t28 -36.5t33 -13.5t28 -10t11.5 -18v-14h-514v14q0 12 11.5 17.5t28 9.5t33.5 14.5t28.5 40.5t11.5 78v516 q0 68 -30 102.5t-79 34.5q-55 0 -102 -28t-74 -80v-557q0 -45 11 -72t27.5 -36t32.5 -13t27 -9.5t11 -17.5v-14h-535v14q0 11 10 16.5t25 7.5t32.5 9.5t32.5 19t25 39.5t10 68v524q0 46 -14.5 74t-35.5 37.5t-41.5 14t-35 10t-14.5 18.5z" />
<glyph unicode="n" horiz-adv-x="1269" d="M51 852v14q67 10 202.5 29t203.5 29q2 -1 6 -5.5t6 -5.5q-12 -110 -16 -165q1 0 4 -1.5t4 -1.5q57 89 144 132t183 43q59 0 109.5 -14t94.5 -44t69.5 -85.5t25.5 -131.5v-483q0 -37 10 -62t25.5 -35.5t33.5 -17.5t33.5 -9t25.5 -7.5t10 -16.5v-14h-543v14q0 14 18.5 21 t40 12t40 36.5t18.5 90.5v514q0 72 -32.5 107.5t-86.5 35.5q-57 0 -112.5 -28t-84.5 -80v-561q0 -38 9 -63.5t22 -36t28.5 -17t28.5 -8t22 -7t9 -16.5v-14h-547v14q0 12 14 17.5t34.5 10t41 15t34.5 40t14 77.5v524q0 39 -10.5 65t-26.5 37t-34 18t-34 9t-26.5 8t-10.5 17z " />
<glyph unicode="o" horiz-adv-x="1200" d="M68 453q0 98 35.5 183.5t101 150.5t167 102t226.5 37q135 0 239.5 -38t168 -104t95.5 -149.5t32 -179.5q0 -95 -34.5 -181t-99.5 -153.5t-169 -107.5t-232 -40q-131 0 -234 38.5t-166.5 105.5t-96.5 152.5t-33 183.5zM385 453q0 -451 217 -451q60 0 104 38t67 104 t33.5 140.5t10.5 161.5q0 447 -217 447q-59 0 -103 -39t-67.5 -105.5t-34 -140t-10.5 -155.5z" />
<glyph unicode="p" horiz-adv-x="1261" d="M29 852v16l395 56l10 -11l-16 -165l10 -3q61 92 150.5 136.5t185.5 44.5q202 0 316 -126.5t114 -334.5q0 -159 -62.5 -272t-164 -166.5t-230.5 -53.5q-64 0 -139.5 17.5t-130.5 54.5l-10 -2v-319q0 -45 13 -72t31.5 -36t36.5 -13t31 -9.5t13 -17.5v-14h-549v14 q0 11 10 16.5t25 7.5t32.5 9.5t32.5 19t25 39.5t10 68v964q0 55 -21.5 84.5t-48 34t-48 11.5t-21.5 22zM459 88q86 -59 190 -59q62 0 108 32t72.5 90t39 130t12.5 161q0 189 -57 293.5t-165 104.5q-56 0 -111.5 -28.5t-88.5 -76.5v-647z" />
<glyph unicode="q" horiz-adv-x="1220" d="M70 430q0 135 50 244t154.5 176.5t247.5 67.5q181 0 295 -109q140 31 250 127h27q0 -199 1 -596t1 -594q0 -45 14.5 -74.5t35 -41.5t40.5 -18.5t34.5 -12.5t14.5 -17v-14h-573v14q0 11 15 17t36 12.5t42.5 19t36.5 43t15 76.5v348h-4q-59 -62 -141.5 -93.5t-172.5 -31.5 q-82 0 -155.5 27.5t-133.5 81t-95 143.5t-35 205zM381 440q0 -197 54 -296t171 -99q107 0 195 102v631q-39 35 -90 57.5t-101 22.5q-229 0 -229 -418z" />
<glyph unicode="r" horiz-adv-x="931" d="M59 856v14l406 56l10 -13l-16 -219l8 -2q120 234 289 234q71 0 120.5 -40t49.5 -104q0 -56 -37.5 -89.5t-93.5 -33.5q-65 0 -115 48t-49 127q-80 -46 -133 -158v-514q0 -43 15 -69.5t37 -35.5t43.5 -13t36.5 -10t15 -18v-16h-575v16q0 10 10 15.5t25.5 7.5t33 9.5 t33 18.5t25.5 37.5t10 65.5v539q0 53 -23 81t-51 32t-51 11t-23 23z" />
<glyph unicode="s" horiz-adv-x="950" d="M59 176q0 53 33.5 82t79.5 29q65 0 102 -43.5t37 -106.5q0 -59 -28 -108q54 -23 127 -23q83 0 140.5 45.5t57.5 128.5q0 47 -38 86t-95 65t-124 57.5t-124 62.5t-95 81t-38 111q0 132 108 207.5t283 75.5q166 0 261.5 -54.5t95.5 -142.5q-3 -50 -34.5 -79t-74.5 -29 q-60 0 -96.5 38.5t-36.5 100.5q0 60 25 114q-49 17 -93 17q-72 0 -122 -40t-50 -122q0 -38 29.5 -70t76.5 -56.5t103.5 -49t113.5 -52.5t104 -61t76.5 -82t29.5 -108q0 -91 -63 -155.5t-160.5 -93t-218.5 -28.5q-183 0 -287.5 58t-104.5 145z" />
<glyph unicode="t" horiz-adv-x="724" d="M27 858v31l131 12q55 14 110 71t90.5 125t47.5 128h34v-332h250v-35h-250v-653q0 -76 29 -111t90 -35q63 0 148 39l10 -24q-81 -55 -166.5 -77t-151.5 -22q-74 0 -124.5 18.5t-76.5 53.5t-37 77t-11 99v635h-123z" />
<glyph unicode="u" horiz-adv-x="1263" d="M49 858v16l416 52l12 -13v-702q0 -74 34 -113t95 -39q50 0 98.5 33t81.5 88v529q0 45 -14 72.5t-34 37t-39.5 14t-33.5 10.5t-14 19v15l416 51l10 -10v-732q0 -39 10.5 -65t26.5 -37t34 -17.5t34 -8.5t26.5 -8t10.5 -17v-15q-67 -10 -202.5 -23.5t-203.5 -23.5 q-2 1 -6 5.5t-6 5.5q12 110 16 165q-1 0 -4 1.5t-4 1.5q-57 -88 -148 -131.5t-188 -43.5q-56 0 -105 14.5t-91 45t-66.5 86.5t-24.5 131v455q0 38 -10 64t-25.5 36.5t-33 17t-33 8.5t-25.5 8t-10 17z" />
<glyph unicode="v" horiz-adv-x="1142" d="M12 879v13h611v-13q0 -13 -21.5 -20.5t-47.5 -11.5t-47.5 -21t-21.5 -48q0 -20 21 -71l182 -400h4l144 344q28 66 28 109q0 38 -21.5 59.5t-48 26t-48 11.5t-21.5 20v15h401v-11q0 -11 -11 -16.5t-29 -9t-43 -15t-51.5 -30t-57.5 -59.5t-57 -98l-304 -671h-24l-361 727 q-28 57 -62 91t-58 42t-40 16t-16 21z" />
<glyph unicode="w" horiz-adv-x="1630" d="M14 881v11h584v-15q0 -13 -20 -20.5t-43.5 -11.5t-43.5 -22t-20 -51q0 -24 18 -70l146 -374h4l131 362q18 49 18 80q0 30 -19 48t-42 23t-42 15t-19 27v9h495v-13q0 -13 -18.5 -19.5t-40 -9.5t-40 -19t-18.5 -45q0 -34 19 -79l160 -375h4l108 313q33 96 33 119 q0 35 -21.5 56t-48 26t-48 12t-21.5 19v15h393v-15q-1 -11 -17 -15.5t-42.5 -11t-56.5 -20.5t-63 -54t-57 -102l-266 -692q-25 -5 -33 -5q-165 365 -290 664h-4l-263 -661q-6 0 -17 -1.5t-17 -1.5l-308 728q-25 59 -58 94t-57.5 43t-41.5 16.5t-17 22.5z" />
<glyph unicode="x" horiz-adv-x="1173" d="M16 0v10q0 11 14 16t42 12.5t62 23t81.5 57.5t93.5 104l135 185l-237 340q-31 44 -64.5 70.5t-54.5 32.5t-35 12t-14 16v13h600v-13q0 -12 -18 -19t-39.5 -10.5t-39.5 -18t-18 -40.5q0 -27 37 -80l123 -179l96 140q56 83 56 114q0 28 -20 43.5t-43.5 19t-43.5 10 t-20 18.5v15h407v-13q0 -11 -15 -17t-44.5 -14.5t-64.5 -24.5t-82 -56.5t-91 -100.5l-117 -160l234 -334q30 -44 64 -73.5t60.5 -41.5t49 -18.5t34.5 -12t13 -14.5v-12h-639v12q0 11 19.5 17t43 9.5t43 16t19.5 33.5q0 36 -51 107l-129 186l-129 -186q-39 -55 -39 -91 q0 -27 20 -43t44.5 -20t44.5 -10t20 -17v-14h-408z" />
<glyph unicode="y" horiz-adv-x="1130" d="M0 877v14h610v-17q0 -12 -21 -20t-46.5 -12.5t-46.5 -22.5t-21 -49q0 -22 19 -68l186 -409h4l141 373q25 64 25 94q0 31 -14.5 50.5t-35 27t-41.5 11t-35.5 9t-14.5 16.5v17h409v-14q0 -9 -16.5 -14t-45 -15.5t-61.5 -30.5t-71.5 -70t-69.5 -124l-301 -725 q-31 -75 -67.5 -136t-82.5 -112.5t-103 -80t-120 -28.5q-81 0 -128.5 39.5t-47.5 104.5q0 53 39.5 89t95.5 36q77 0 126 -54.5t59 -124.5q89 49 196 279l29 74h-27l-346 723q-22 46 -48.5 76.5t-48 42t-40 18.5t-29 13.5t-10.5 19.5z" />
<glyph unicode="z" horiz-adv-x="1015" d="M33 0v25q295 442 561 833h-105q-138 0 -209.5 -52.5t-148.5 -215.5q-1 -2 -2.5 -5.5t-2.5 -5.5t-3 -5t-3 -5t-3 -4.5t-3.5 -4t-4 -3t-4.5 -2t-5 -0.5t-7.5 1t-6.5 1l57 367q94 -33 336 -33h459v-29q-92 -139 -277.5 -415.5t-277.5 -415.5h158q105 0 169 25t116 90.5 t106 193.5q20 41 31 41q2 0 7 -1t7 -1l-78 -414q-137 35 -364 35h-502z" />
<glyph unicode="{" horiz-adv-x="755" d="M102 608v33q39 8 66.5 19.5t45.5 30t28.5 37t15.5 50t6.5 58t1.5 71.5v230q0 84 23 150.5t72 116.5t133.5 73t199.5 14v-31q-52 -2 -89 -17.5t-56 -36t-29.5 -53t-13 -57.5t-2.5 -61v-252q0 -156 -73 -249t-226 -103v-8q154 -10 226.5 -94.5t72.5 -247.5v-426 q0 -42 6.5 -73t25 -61.5t58.5 -48t100 -20.5v-29q-224 -18 -326 72.5t-102 265.5v381q0 46 -2.5 77t-11.5 67t-26.5 59t-48.5 40.5t-75 22.5z" />
<glyph unicode="|" horiz-adv-x="651" d="M283 -289v1813h86v-1813h-86z" />
<glyph unicode="}" horiz-adv-x="755" d="M61 -348q60 3 100 20.5t59 48t25.5 61.5t6.5 73v426q0 163 72.5 247.5t226.5 94.5v8q-153 10 -226 103t-73 249v252q0 46 -5 77t-22.5 67.5t-58.5 57t-105 23.5v31q115 9 199.5 -14t133.5 -73t72 -116.5t23 -150.5v-230q0 -55 2 -85t10.5 -65t25.5 -54t48 -36t78 -26v-33 q-44 -5 -75 -22.5t-48.5 -40.5t-26.5 -59t-11.5 -67t-2.5 -77v-381q0 -175 -102 -265.5t-326 -72.5v29z" />
<glyph unicode="~" d="M135 412q5 31 15.5 65.5t33 75t52.5 72t76.5 52.5t101.5 21q60 0 213 -37.5t211 -37.5q73 0 122 25.5t87 90.5l28 -6q-12 -56 -34 -105t-57 -92t-87.5 -68.5t-116.5 -25.5q-72 0 -206 35t-191 35q-159 0 -219 -109z" />
<glyph unicode="&#xa2;" d="M164 600q0 103 36.5 192t103.5 154.5t168.5 103t225.5 37.5l25 207h39q-20 -178 -23 -209q79 -4 138.5 -25t90.5 -51.5t45.5 -62t14.5 -63.5q0 -47 -31 -83t-77 -36q-61 0 -92 40.5t-31 100.5q0 68 37 131q-44 13 -99 13l-86 -799q52 -14 111 -14q127 0 258 59l14 -25 q-68 -54 -170 -86.5t-223 -33.5l-23 -222h-41l25 224q-210 15 -323 135t-113 313zM453 616q0 -278 159 -346q69 656 82 770q-112 -23 -176.5 -137.5t-64.5 -286.5z" />
<glyph unicode="&#xa3;" d="M84 657v39h190q-79 135 -79 246q0 85 27.5 156t75.5 120.5t113.5 84t139.5 51t154 16.5q162 0 259 -66.5t97 -156.5q0 -59 -34.5 -94t-86.5 -35q-71 0 -105 46t-34 114q0 77 33 141q-34 10 -95 10q-119 0 -183 -77t-64 -197q0 -133 73 -359h379v-39h-373q9 -44 9 -84 q-2 -107 -57 -201.5t-152 -152.5l2 -8h432q64 0 110 9.5t75.5 24.5t53.5 45t39 58.5t38 78.5q0 2 1 3q11 21 23 19l10 -3l-113 -446h-933v33q117 85 195.5 180.5t78.5 183.5q0 99 -84 260h-215z" />
<glyph unicode="&#xa5;" d="M-33 1339v11h621v-13q0 -16 -20 -23.5t-44.5 -10t-44.5 -16.5t-20 -42q0 -33 22 -78l238 -489h6l215 475q23 53 23 84q0 30 -20.5 46t-45.5 18.5t-45.5 10.5t-20.5 25v13h390v-13q0 -13 -12 -19t-30.5 -7.5t-44 -9.5t-51 -21t-54 -46t-50.5 -81l-236 -514h385v-37h-1058 v37h333l-251 514q-25 53 -54 87t-51 46t-41 18.5t-29 13.5t-10 21zM70 442v37h1058v-37h-387v-264q0 -50 16.5 -80.5t40 -41t47 -15.5t40 -10.5t16.5 -18.5v-12h-631v12q0 12 12 18.5t30 9t39 10t39 19.5t30 40.5t12 70.5v262h-362z" />
<glyph unicode="&#xa8;" horiz-adv-x="1099" d="M215 1233q0 56 40 95.5t97 39.5t97 -39.5t40 -95.5q0 -58 -40 -98.5t-97 -40.5t-97 40.5t-40 98.5zM621 1233q0 56 39 95.5t96 39.5q58 0 98.5 -39.5t40.5 -95.5q0 -59 -40.5 -99t-98.5 -40q-57 0 -96 40t-39 99z" />
<glyph unicode="&#xa9;" horiz-adv-x="1710" d="M115 709q0 148 56.5 282t154 231.5t235.5 154.5t295 57q156 0 294 -57t235 -154.5t153.5 -231.5t56.5 -282q0 -199 -95.5 -364.5t-265.5 -262t-378 -96.5q-167 0 -307 56.5t-234.5 154t-147 229.5t-52.5 283zM186 709q0 -137 47.5 -258.5t132.5 -211.5t212 -142t278 -52 q189 0 343 89t240.5 241t86.5 334t-86.5 334t-240.5 241.5t-343 89.5q-190 0 -344 -89.5t-240 -241.5t-86 -334zM377 690q0 135 58.5 245.5t171.5 177.5t259 67q138 0 256 -72q7 12 20.5 36.5t20.5 35.5h21v-312h-8q-16 0 -26.5 20.5t-16.5 51.5t-22.5 66.5t-40 66.5 t-72.5 51.5t-117 20.5q-256 0 -256 -459q0 -426 262 -426q64 0 113 18t77 46.5t47.5 63.5t28.5 70t16 63.5t14.5 46.5t18.5 18h10v-359h-18l-49 80q-142 -84 -289 -84q-219 0 -349 131t-130 336z" />
<glyph unicode="&#xab;" horiz-adv-x="972" d="M94 426q0 35 51 80l385 336l21 -19q-42 -67 -128 -200t-128 -199l252 -404l-23 -18l-377 344q-53 47 -53 80zM422 426q0 35 51 80l385 336l21 -19q-42 -67 -128 -200t-128 -199l251 -404l-22 -18l-377 344q-53 47 -53 80z" />
<glyph unicode="&#xad;" horiz-adv-x="667" d="M70 459v92h528v-92h-528z" />
<glyph unicode="&#xae;" horiz-adv-x="1245" d="M90 915q0 144 68.5 264t191.5 190.5t273 70.5q151 0 274 -70.5t191.5 -190.5t68.5 -264q0 -142 -68.5 -261t-191.5 -189t-274 -70q-160 0 -282.5 70.5t-186.5 188t-64 261.5zM152 915q0 -201 131 -333.5t340 -132.5t342 134t133 332q0 199 -135.5 335t-339.5 136 t-337.5 -134t-133.5 -337zM338 649v8q0 9 11.5 13t25.5 6t25.5 15.5t11.5 37.5v416q0 24 -11.5 37.5t-25.5 16t-25.5 6.5t-11.5 12v8h264q266 0 266 -152q0 -66 -63.5 -107.5t-181.5 -41.5q-6 0 -19.5 1t-19.5 1q42 -37 125 -37q27 0 39 2l131 -180q17 -23 38.5 -31.5 t33.5 -11t12 -11.5v-8h-201l-205 279h-6v-199q0 -25 11.5 -38.5t24.5 -16t24.5 -6.5t11.5 -11v-8h-285zM551 944h24q65 0 104.5 36.5t39.5 94.5q0 63 -47.5 98t-106.5 35h-14v-264z" />
<glyph unicode="&#xb4;" horiz-adv-x="1099" d="M391 1063q71 52 121.5 110.5t73.5 102t43 80.5t43.5 56.5t60.5 19.5q48 0 74.5 -27.5t26.5 -65.5q0 -27 -24.5 -64.5t-72.5 -80.5t-135.5 -85.5t-198.5 -70.5z" />
<glyph unicode="&#xb8;" horiz-adv-x="980" d="M322 -485q73 0 129.5 16t86 40.5t44 50t14.5 48.5q0 52 -56.5 85t-162.5 34l92 221l33 -6l-53 -135q92 3 161.5 -11.5t110 -41t60.5 -60t20 -71.5q0 -84 -99 -145.5t-278 -61.5q-61 0 -102 4v33z" />
<glyph unicode="&#xbb;" horiz-adv-x="972" d="M94 823l21 19l385 -336q51 -45 51 -80q0 -33 -53 -80l-377 -344l-23 18l252 404q-42 66 -128 199t-128 200zM422 823l20 19l385 -336q52 -46 52 -80q0 -32 -54 -80l-376 -344l-23 18l252 404q-42 66 -128 199t-128 200z" />
<glyph unicode="&#x2c6;" horiz-adv-x="1099" d="M193 1055l280 319q45 53 82 53q40 0 82 -53l268 -323l-18 -19l-336 213l-340 -213z" />
<glyph unicode="&#x2da;" horiz-adv-x="1099" d="M332 1239q0 88 64.5 152.5t156.5 64.5q89 0 152 -63t63 -154q0 -89 -62.5 -150t-152.5 -61q-92 0 -156.5 61.5t-64.5 149.5zM395 1239q0 -64 45.5 -110t112.5 -46q61 0 105 46.5t44 109.5q0 61 -44.5 110.5t-104.5 49.5q-66 0 -112 -48t-46 -112z" />
<glyph unicode="&#x2dc;" horiz-adv-x="1144" d="M209 1094q6 28 15.5 55.5t27 59.5t39.5 56t54.5 40t70.5 16q41 0 164.5 -37t173.5 -37q92 0 143 80l21 -6q-21 -95 -74 -157t-135 -62q-47 0 -162.5 33.5t-161.5 33.5q-104 0 -154 -84z" />
<glyph unicode="&#x401;" horiz-adv-x="1433" d="M63 0v14q0 11 14.5 16.5t37 8.5t48 13t48 25.5t37 51t14.5 86.5v969q0 46 -14.5 77.5t-36.5 45t-47 22t-47 10.5t-36.5 8.5t-14.5 18.5v14h657q385 0 514 58q9 -73 55 -494q-8 -4 -16 -4q-16 0 -33 39q-46 109 -84.5 173.5t-90.5 110t-117 63t-160 17.5h-197v-604h170 q63 0 104.5 25.5t58.5 62.5t26.5 74t20 62.5t27.5 25.5h11v-553h-13q-16 0 -26 19.5t-14 49.5t-14.5 64t-26.5 64t-52.5 49.5t-89.5 19.5h-182v-505q0 -79 38 -120.5t132 -41.5h86q173 0 288.5 105.5t217.5 353.5q14 38 35 38q1 0 6.5 -1t7.5 -1l-119 -573q-153 43 -401 43 h-822zM377 1647q0 56 40 95.5t97 39.5t97 -39.5t40 -95.5q0 -58 -40 -99t-97 -41t-97 41t-40 99zM782 1647q0 56 39.5 95.5t96.5 39.5q58 0 98.5 -39.5t40.5 -95.5q0 -59 -40.5 -99.5t-98.5 -40.5q-57 0 -96.5 40.5t-39.5 99.5z" />
<glyph unicode="&#x402;" horiz-adv-x="1822" d="M8 915q44 416 53 510q0 1 1 2.5t1 2.5q108 -28 240.5 -39t368.5 -11q249 0 395 10t248 42q0 -1 4 -5l51 -509q-2 0 -6 -1.5t-6 -1.5q-4 0 -7 0.5t-6 3t-5 4.5t-4.5 6.5t-4 8t-4 10.5t-4 12t-5 14.5t-5.5 16.5q-66 197 -160.5 273.5t-251.5 76.5h-70v-618q172 86 357 86 q125 0 230.5 -47t176 -127t109.5 -185.5t39 -222.5q0 -86 -19.5 -167t-60.5 -154t-100.5 -127t-145.5 -85.5t-188 -31.5q-79 0 -141.5 16.5t-106 60t-43.5 109.5q0 50 32.5 85.5t82.5 35.5q64 0 97.5 -42.5t33.5 -106.5q0 -29 -9.5 -62.5t-25.5 -52.5q229 0 229 502 q0 139 -30 244t-82.5 165.5t-116.5 89.5t-139 29q-96 -7 -179 -45v-485q0 -48 10 -81.5t25.5 -48t33.5 -24.5t33.5 -12.5t25.5 -9t10 -17.5v-12h-664v12q0 11 14 17.5t35.5 9.5t46 12.5t46 24.5t35.5 48.5t14 80.5v1136h-21q-83 0 -142.5 -17.5t-110.5 -62t-91 -119 t-78 -190.5q-12 -39 -33 -39q-8 0 -12 2z" />
<glyph unicode="&#x403;" horiz-adv-x="1306" d="M70 0v12q0 11 14.5 17.5t36.5 9.5t47 12.5t47 25t36.5 50t14.5 84.5v973q0 46 -14.5 77.5t-36.5 45t-47 22t-47 10.5t-36.5 8.5t-14.5 18.5v14h641q385 0 514 58q9 -73 55 -494q-8 -4 -16 -4q-16 0 -33 39q-61 144 -115 218.5t-133 110t-205 35.5h-180v-1134 q0 -58 20.5 -95t50 -50.5t59.5 -19.5t50.5 -12.5t20.5 -19.5v-12h-729zM518 1522q73 38 130.5 85t88 84.5t56 70.5t50.5 51t56 18q49 0 75.5 -27t26.5 -61q0 -19 -14 -44.5t-49.5 -57.5t-87 -60t-136.5 -51.5t-188 -32.5z" />
<glyph unicode="&#x404;" horiz-adv-x="1392" d="M84 670q0 120 31 230t92.5 201.5t146.5 159t199 105t244 37.5q179 0 381 -62l69 97q3 0 9.5 -1t9.5 -1l18 -523h-6q-13 0 -20 8.5t-17 39.5q-15 46 -25 74t-31 75.5t-41 78t-52 67.5t-67 58.5t-83.5 36.5t-103.5 15q-97 0 -169 -49t-116 -140.5t-66 -213t-24 -275.5 q79 111 219 111q39 0 120 -16.5t120 -16.5q54 0 82 61q18 -6 22 -6q-21 -97 -77.5 -146.5t-129.5 -49.5q-49 0 -138.5 26.5t-125.5 26.5q-55 0 -92 -43q2 -307 100 -464t291 -157q84 0 152.5 30.5t118 88.5t84.5 131.5t61 169.5q3 10 6.5 23.5t5.5 21.5t5 18.5t5 16.5 t5 13.5t5.5 11.5t5.5 7.5t6 5t7 1.5h12l-22 -590h-21l-69 96q-222 -82 -428 -82q-166 0 -300.5 52t-223.5 144.5t-137 219.5t-48 277z" />
<glyph unicode="&#x405;" horiz-adv-x="1269" d="M63 260q0 66 41 104.5t97 38.5q82 0 127 -56.5t45 -139.5q0 -87 -39 -152q92 -43 217 -43q141 0 239.5 72t98.5 195q0 67 -42.5 124t-111 99t-151 82t-165 82t-151 88.5t-111 112t-42.5 143.5q0 97 42.5 174t117 124.5t169.5 72t205 24.5q214 0 343.5 -75.5t129.5 -186.5 q0 -63 -38 -99t-93 -36q-71 0 -118.5 48.5t-47.5 129.5q0 80 31 153q-79 27 -180 27q-106 0 -179 -60t-73 -161q0 -50 33.5 -94t88.5 -77.5t125.5 -70t143.5 -68.5t143.5 -76t125.5 -91t88.5 -114t33.5 -144q0 -140 -84.5 -240t-223 -147.5t-316.5 -47.5q-234 0 -376.5 84.5 t-142.5 200.5z" />
<glyph unicode="&#x406;" horiz-adv-x="886" d="M78 0v12q0 11 14.5 17.5t36.5 9.5t47 12.5t47 25t36.5 50t14.5 84.5v977q0 43 -14.5 73t-36.5 43.5t-47 22.5t-47 12t-36.5 9.5t-14.5 17.5v14h729v-14q0 -11 -15 -17.5t-37 -9.5t-48.5 -11.5t-48.5 -22t-37 -44t-15 -73.5v-977q0 -50 15 -84.5t37 -50t48.5 -25 t48.5 -12.5t37 -9.5t15 -17.5v-12h-729z" />
<glyph unicode="&#x407;" horiz-adv-x="886" d="M78 0v12q0 11 14.5 17.5t36.5 9.5t47 12.5t47 25t36.5 50t14.5 84.5v977q0 43 -14.5 73t-36.5 43.5t-47 22.5t-47 12t-36.5 9.5t-14.5 17.5v14h729v-14q0 -11 -15 -17.5t-37 -9.5t-48.5 -11.5t-48.5 -22t-37 -44t-15 -73.5v-977q0 -50 15 -84.5t37 -50t48.5 -25 t48.5 -12.5t37 -9.5t15 -17.5v-12h-729zM104 1599q0 56 40.5 96t97.5 40t97 -40t40 -96q0 -58 -40 -98.5t-97 -40.5t-97.5 40.5t-40.5 98.5zM510 1599q0 56 39 96t96 40q58 0 98.5 -40t40.5 -96q0 -59 -40 -99t-99 -40q-57 0 -96 40t-39 99z" />
<glyph unicode="&#x408;" horiz-adv-x="821" d="M-244 -297q0 64 44 104.5t112 40.5q84 0 132.5 -67t45.5 -180q58 26 92 63.5t53 107.5t19 177v1239q0 52 -20.5 85t-49 45t-57.5 17.5t-49.5 11.5t-20.5 19v14h734v-14q0 -10 -11.5 -15.5t-29.5 -9t-40 -8t-43.5 -14t-39.5 -24t-29.5 -42.5t-11.5 -65q0 -107 1 -429.5 t1 -385.5q0 -412 -178 -598q-218 -230 -453 -230q-31 0 -64 8.5t-64.5 25.5t-52 49.5t-20.5 74.5z" />
<glyph unicode="&#x409;" horiz-adv-x="2201" d="M4 115q0 64 45 103.5t109 39.5q71 0 126 -52t74 -140q82 71 137 232.5t78.5 341.5t30.5 394q0 128 -14 185q-12 49 -49.5 76t-75.5 32.5t-68.5 13.5t-31.5 23v16h1161v-14q0 -11 -14 -17t-35 -9t-45.5 -13.5t-45.5 -27t-35 -53t-14 -89.5v-354q129 18 246 18 q81 0 155.5 -11.5t149.5 -40.5t130 -74.5t89.5 -119t34.5 -167.5q0 -54 -16 -108t-54.5 -109t-96.5 -96.5t-149.5 -68t-205.5 -26.5h-805v12q0 12 14 18.5t34.5 9.5t44.5 14.5t44.5 30t34.5 59.5t14 100v1095h-348q-2 -220 -12.5 -398.5t-33 -336t-58.5 -273.5t-86.5 -200 t-119.5 -126t-155 -42q-80 0 -132 43t-52 109zM1337 238q0 -38 2.5 -65t11 -55.5t24 -45.5t42 -28t64.5 -11q130 0 217.5 101.5t87.5 268.5q0 190 -99 279.5t-278 89.5q-22 0 -72 -4v-530z" />
<glyph unicode="&#x40a;" horiz-adv-x="2250" d="M59 0v12q0 12 14 18.5t35.5 8.5t46 12.5t46 28t35.5 57t14 96.5v955q0 51 -19.5 83t-47.5 44t-55.5 18t-47 12t-19.5 19v14h695v-14q0 -11 -12.5 -17.5t-32 -9.5t-41.5 -11.5t-41.5 -21.5t-32 -43t-12.5 -73v-430h463v430q0 43 -12.5 73t-31.5 43.5t-41 22t-41 11 t-31.5 9t-12.5 17.5v14h700v-14q0 -13 -20 -19t-48.5 -12t-57.5 -18t-49 -44t-20 -83v-404q114 13 244 13q79 0 151.5 -10t148.5 -37.5t131 -70.5t90.5 -115.5t35.5 -166.5q0 -53 -16.5 -106t-56 -106t-98 -93.5t-149.5 -66t-202 -25.5h-787v12q0 13 18 19t43 12.5t50.5 20 t43.5 51t18 96.5v508h-463v-512q0 -49 12.5 -83t32 -49t41.5 -24.5t41.5 -12t32 -9t12.5 -17.5v-12h-697zM1382 203q0 -86 31 -128t117 -42h14q126 0 204.5 96.5t78.5 257.5q0 92 -28 163.5t-77.5 114.5t-111 65t-133.5 22q-49 0 -95 -4v-545z" />
<glyph unicode="&#x40b;" horiz-adv-x="1863" d="M18 928q6 53 25.5 226.5t28.5 270.5q0 3 2 5q108 -28 240 -39t366 -11q249 0 395 10t248 42q0 -1 1 -2.5t1 -2.5l51 -497q-2 0 -6 -1t-6 -1q-11 0 -19.5 10.5t-19.5 44.5q-36 108 -75 177t-90 109.5t-109.5 56t-141.5 15.5h-69v-626q85 50 190 76t199 26q202 0 304.5 -97 t102.5 -288v-225q0 -49 14.5 -83t35.5 -49t46.5 -24.5t46.5 -12t35.5 -9t14.5 -17.5v-12h-694v12q0 11 12.5 17.5t31 9.5t40.5 13t40.5 25t31 48.5t12.5 81.5v227q0 162 -60 232.5t-174 70.5q-106 0 -229 -55v-477q0 -48 13 -81.5t32.5 -48t42.5 -24.5t42.5 -12.5t32.5 -9 t13 -17.5v-12h-707v12q0 13 20.5 19t49.5 12.5t57.5 20t49 49.5t20.5 92v1136h-21q-84 0 -143.5 -16.5t-111 -59t-91 -115t-76.5 -185.5q-7 -21 -13 -30t-17 -9t-15 2z" />
<glyph unicode="&#x40c;" horiz-adv-x="1536" d="M55 0v12q0 11 14 17.5t35.5 9.5t46 13.5t46 27.5t35.5 55.5t14 93.5v959q0 51 -19.5 83.5t-48 44.5t-56.5 17.5t-47.5 11.5t-19.5 19v14h721v-14q0 -13 -20 -19t-49 -12t-58 -18t-49 -44t-20 -83v-432h59q62 0 112 20.5t85 53t67.5 89.5t54.5 112.5t50 139.5l18 48 q17 43 33.5 73.5t42 59t62 43t83.5 14.5q74 0 124 -45.5t50 -103.5q0 -62 -44 -103t-111 -41q-57 0 -112 34t-71 105q-15 -31 -37 -94.5t-43 -117.5t-50 -113t-70 -105t-90 -69v-11q193 0 290.5 -72t161.5 -251q82 -226 128.5 -307.5t113.5 -81.5q19 0 43 6l6 -35 q-109 -37 -225 -37q-56 0 -102 11.5t-77.5 29.5t-58.5 48t-45 60.5t-37 73.5q-29 64 -85.5 235t-104.5 234q-46 58 -150 58h-71v-510q0 -58 20 -94.5t48 -50t56 -19.5t48 -12t20 -19v-12h-717zM645 1522q73 38 130.5 85t88 84.5t56 70.5t50.5 51t56 18q49 0 75.5 -27 t26.5 -61q0 -19 -14 -44.5t-49.5 -57.5t-87 -60t-136.5 -51.5t-188 -32.5z" />
<glyph unicode="&#x40e;" horiz-adv-x="1423" d="M-4 1364v14h694v-16q0 -12 -24 -20t-53.5 -14.5t-53.5 -27t-24 -53.5q0 -29 18 -65l303 -588h6q44 104 162 364q4 10 19.5 44t23 51t20 48t19 49.5t11.5 39t5 33.5q0 36 -20 60t-48.5 33.5t-57 15t-48.5 12.5t-20 18v16h495v-16q0 -12 -17.5 -18t-48 -14.5t-65 -26.5 t-75.5 -65t-74 -118l-363 -794q-100 -220 -178.5 -304.5t-202.5 -84.5q-77 0 -128.5 36.5t-51.5 92.5q0 65 36.5 108t100.5 43q78 0 127.5 -58t57.5 -141q40 28 73.5 78t71.5 135q-140 263 -500 961q-25 48 -54 79.5t-52 43t-42.5 18.5t-30.5 13t-11 18zM514 1712 q0 55 36.5 90t92.5 35q62 0 94.5 -47t32.5 -113q0 -49 -14 -90q122 0 235.5 58.5t194.5 154.5l22 -16q-52 -76 -117.5 -130t-130.5 -79.5t-117 -36t-100 -10.5q-110 0 -169.5 54.5t-59.5 129.5z" />
<glyph unicode="&#x40f;" horiz-adv-x="1691" d="M68 0v12q0 12 13.5 18.5t33.5 9.5t44 14.5t44 29.5t33.5 58.5t13.5 97.5v917q0 52 -13.5 88t-33.5 52.5t-43 27t-43 13.5t-33.5 10t-13.5 18v12h675v-12q0 -12 -12 -19t-30 -9.5t-38.5 -13t-38.5 -26.5t-30 -52.5t-12 -88.5v-1120h534v1120q0 53 -13 89.5t-32 52.5 t-42 26t-42 13t-32 9.5t-13 18.5v12h688v-12q0 -11 -13 -18t-33 -10.5t-43 -14t-43 -27t-33 -52.5t-13 -87v-930q0 -53 13.5 -91t33.5 -54.5t44 -27.5t44 -14t33.5 -10t13.5 -18v-12h-723q-47 -13 -47 -68q0 -24 31 -115t31 -147q0 -87 -63.5 -126.5t-157.5 -39.5 q-85 0 -146 23l8 37q76 -10 121 15t55 97q3 24 6 65t5.5 68.5t9 62t16 57.5t27.5 43t43 28h-784z" />
<glyph unicode="&#x410;" horiz-adv-x="1468" d="M10 0v12q0 13 20 19t52.5 14t68.5 24.5t75 61.5t65 115q56 149 168.5 444t167.5 443q18 49 18 81q0 48 -30 76t-66 34.5t-66 15.5t-30 24v16h444l444 -1181q24 -64 60 -102t64 -47t48.5 -17.5t20.5 -20.5v-12h-655v12q0 12 22 20t48.5 13t48.5 26t22 56q0 21 -31 109 l-74 196h-512l-63 -176q-23 -58 -23 -94q0 -49 31 -77.5t67.5 -35t67.5 -15t31 -22.5v-12h-504zM416 467h487l-237 645h-13z" />
<glyph unicode="&#x411;" horiz-adv-x="1474" d="M55 1364v16h797q127 0 180 29h29q115 0 184 27l53 -484q-8 -4 -12 -4q-15 0 -23.5 15t-23.5 53q-1 2 -1.5 3.5l-1 3t-1.5 3.5q-70 178 -168 246.5t-264 68.5h-221v-542q143 20 252 20q81 0 155.5 -11.5t150 -40.5t131 -74.5t90 -119t34.5 -167.5q0 -54 -16 -107.5 t-55.5 -108.5t-97.5 -96.5t-150 -67.5t-206 -26h-813v12q0 11 14 17.5t35.5 9.5t46 13.5t46 27.5t35.5 55t14 92v953q0 54 -20 88.5t-48 47t-56.5 18t-48.5 11.5t-20 19zM582 238q0 -34 0.5 -48t2.5 -41.5t7 -39.5t15.5 -30t25 -26t37.5 -14t53 -6q134 0 223.5 98.5 t89.5 267.5q0 186 -100 277.5t-264 91.5q-61 0 -90 -4v-526z" />
<glyph unicode="&#x412;" horiz-adv-x="1378" d="M63 0v14q0 10 14.5 16t36.5 8.5t47.5 12.5t47.5 26t36.5 51.5t14.5 86.5v967q0 46 -14.5 78t-36 45.5t-46.5 22t-46.5 11t-36 9t-14.5 18.5v14h759q115 0 205 -18.5t146.5 -49t93.5 -72.5t52 -86.5t15 -94.5q0 -120 -110.5 -205t-296.5 -94v-8q103 -5 186.5 -29.5 t137.5 -60.5t91 -83.5t52.5 -96t15.5 -99.5q0 -55 -16 -106.5t-56 -102.5t-100.5 -89t-157.5 -61.5t-219 -23.5h-801zM590 246q0 -44 2 -70.5t11 -57t25.5 -47t47.5 -27.5t76 -11h20q131 0 211 90t80 252q0 83 -24.5 148.5t-61.5 104t-86.5 63t-94 33.5t-89.5 9h-117v-487z M590 768h123q52 0 100.5 17t90 49.5t66.5 88.5t25 128q0 79 -24 136.5t-67.5 90.5t-97 48t-120.5 15h-96v-573z" />
<glyph unicode="&#x413;" horiz-adv-x="1251" d="M70 0v12q0 11 14.5 17.5t36.5 9.5t47 12.5t47 25t36.5 50t14.5 84.5v973q0 46 -14.5 77.5t-36.5 45t-47 22t-47 10.5t-36.5 8.5t-14.5 18.5v14h641q385 0 514 58q9 -73 55 -494q-8 -4 -16 -4q-16 0 -33 39q-61 144 -115 218.5t-133 110t-205 35.5h-180v-1134 q0 -58 20.5 -95t50 -50.5t59.5 -19.5t50.5 -12.5t20.5 -19.5v-12h-729z" />
<glyph unicode="&#x414;" horiz-adv-x="1570" d="M12 49q1 0 2 1t2 1q95 -14 205 -14q243 263 277 1147q0 44 -17.5 74.5t-44 44t-57.5 22t-57.5 11.5t-44 9.5t-17.5 18.5v16h1239v-14q0 -12 -14 -18.5t-34.5 -9t-44.5 -11t-44.5 -22t-34.5 -43.5t-14 -74v-1151q143 0 239 16q1 0 3.5 -1t3.5 -1q-17 -260 -33 -475h-15 q-21 0 -28 41q-22 125 -66 258q-12 36 -28.5 59t-35 36.5t-53 20t-66 8t-89.5 1.5h-742q-96 0 -143 -10t-70.5 -34.5t-39.5 -78.5q-43 -140 -64 -260q-6 -26 -12 -33.5t-19 -7.5h-12zM268 37q119 0 356.5 -1t356.5 -1v1304h-438q-10 -1024 -275 -1302z" />
<glyph unicode="&#x415;" horiz-adv-x="1382" d="M63 0v14q0 11 14.5 16.5t37 8.5t48 13t48 25.5t37 51t14.5 86.5v969q0 46 -14.5 77.5t-36.5 45t-47 22t-47 10.5t-36.5 8.5t-14.5 18.5v14h657q385 0 514 58q9 -73 55 -494q-8 -4 -16 -4q-16 0 -33 39q-46 109 -84.5 173.5t-90.5 110t-117 63t-160 17.5h-197v-604h170 q63 0 104.5 25.5t58.5 62.5t26.5 74t20 62.5t27.5 25.5h11v-553h-13q-16 0 -26 19.5t-14 49.5t-14.5 64t-26.5 64t-52.5 49.5t-89.5 19.5h-182v-505q0 -79 38 -120.5t132 -41.5h86q173 0 288.5 105.5t217.5 353.5q14 38 35 38q1 0 6.5 -1t7.5 -1l-119 -573q-153 43 -401 43 h-822z" />
<glyph unicode="&#x416;" horiz-adv-x="2187" d="M0 4q0 15 4 35q14 -4 37 -4q22 0 41.5 7.5t35 19t33 37.5t30.5 50t32.5 71.5t34.5 86.5t41 109q45 123 99.5 192.5t136.5 102t208 32.5v11q-49 24 -90 70t-70 105.5t-50 114t-43 118t-36 93.5q-18 -67 -69 -102t-113 -35q-63 0 -109.5 42t-46.5 102q0 62 48.5 104.5 t126.5 42.5q52 0 92.5 -18.5t67.5 -53.5t44 -71t33 -86l8 -23q22 -61 36 -98t35.5 -85t40 -76.5t46 -59t57 -47t68 -27t84.5 -10.5h33v434q0 51 -19.5 83t-48 44t-56.5 18t-47.5 12t-19.5 19v14h719v-14q0 -13 -20 -19t-48.5 -11.5t-57 -17.5t-48.5 -44.5t-20 -83.5v-434h45 q45 0 83.5 12t67.5 31.5t56 52t46.5 66t40 81t35.5 89.5l35 98q3 8 4 12q17 48 34 82t44 66t65.5 48.5t88.5 16.5q37 0 67 -23q48 -12 76.5 -46.5t28.5 -77.5q0 -65 -46 -104.5t-110 -39.5q-52 0 -107 35t-71 102q-15 -31 -37 -93.5t-43.5 -117.5t-50.5 -114.5t-70 -105.5 t-90 -70v-11q188 0 285.5 -70.5t160.5 -248.5q82 -230 127.5 -310.5t112.5 -80.5q7 0 43 8q0 -7 6 -37q-98 -37 -202 -37q-77 0 -134.5 17t-97.5 51.5t-66 75t-49 98.5q-21 52 -44.5 123.5t-38.5 120t-38.5 102t-48 86t-63.5 53.5t-88 21h-57v-508q0 -49 14.5 -83t36 -49 t46.5 -24.5t46.5 -12t36 -9t14.5 -17.5v-12h-715v12q0 13 19.5 19t46.5 12t54.5 19.5t47 50t19.5 94.5v508h-58q-44 0 -79 -15.5t-58.5 -40.5t-44 -63.5t-34.5 -76.5t-31 -87l-1.5 -4.5t-1 -3.5l-1 -4t-1.5 -4l-18 -54q-29 -87 -45 -129t-50 -103t-71 -89t-98 -50t-141 -22 q-111 0 -193 35z" />
<glyph unicode="&#x417;" horiz-adv-x="1306" d="M55 551h13q21 0 45 -95q1 -4 2 -7t2 -7l2 -8q26 -94 58.5 -165t82.5 -132.5t123 -94t166 -32.5q68 0 122 21.5t87.5 55t55.5 79t31 90.5t9 92q0 188 -109.5 277.5t-302.5 89.5q-12 0 -82 -4l-6 37q217 32 331 124.5t114 237.5q0 121 -79 185.5t-196 64.5q-130 0 -225 -68 q61 -55 61 -153q0 -69 -40 -118.5t-111 -49.5q-59 0 -92 38.5t-33 94.5q0 34 18 73.5t59.5 81t100.5 74.5t149 54.5t197 21.5q134 0 238 -23t164.5 -57.5t99.5 -80.5t52.5 -86.5t13.5 -80.5q0 -56 -28 -109t-87 -101.5t-167 -80.5t-251 -36v-9q302 -11 446 -108t144 -252 q0 -65 -22 -123t-72 -111t-124 -92t-185 -61.5t-248 -22.5q-124 0 -216.5 21.5t-197.5 62.5l-70 -98q-2 0 -10.5 1t-9.5 1z" />
<glyph unicode="&#x418;" horiz-adv-x="1716" d="M63 0v12q0 12 14 18.5t35 9t45.5 13t45.5 28t35 56.5t14 96v955q0 51 -19.5 83.5t-47.5 44.5t-55.5 18t-47 12.5t-19.5 19.5v12h709v-12q0 -13 -19 -19.5t-46.5 -12.5t-55 -18t-46.5 -44t-19 -82v-877l538 838v37q0 43 -13.5 73t-33.5 43.5t-43 22.5t-43 12t-33.5 9.5 t-13.5 17.5v12h711v-12q0 -13 -20.5 -19t-49.5 -11.5t-57.5 -17.5t-49 -44.5t-20.5 -83.5v-957q0 -57 14.5 -96.5t36.5 -56.5t47.5 -27.5t47.5 -12.5t36.5 -8.5t14.5 -19.5v-12h-711v12q0 11 13.5 17.5t33.5 9.5t43 12.5t43 25t33.5 49.5t13.5 83v874q-61 -77 -268.5 -418.5 t-269.5 -418.5v-37q0 -49 14 -83.5t34.5 -50t44.5 -25t44.5 -12t34.5 -9t14 -17.5v-12h-709z" />
<glyph unicode="&#x419;" horiz-adv-x="1716" d="M63 0v12q0 12 14 18.5t35 9t45.5 13t45.5 28t35 56.5t14 96v955q0 51 -19.5 83.5t-47.5 44.5t-55.5 18t-47 12.5t-19.5 19.5v12h709v-12q0 -13 -19 -19.5t-46.5 -12.5t-55 -18t-46.5 -44t-19 -82v-877l538 838v37q0 43 -13.5 73t-33.5 43.5t-43 22.5t-43 12t-33.5 9.5 t-13.5 17.5v12h711v-12q0 -13 -20.5 -19t-49.5 -11.5t-57.5 -17.5t-49 -44.5t-20.5 -83.5v-957q0 -57 14.5 -96.5t36.5 -56.5t47.5 -27.5t47.5 -12.5t36.5 -8.5t14.5 -19.5v-12h-711v12q0 11 13.5 17.5t33.5 9.5t43 12.5t43 25t33.5 49.5t13.5 83v874q-61 -77 -268.5 -418.5 t-269.5 -418.5v-37q0 -49 14 -83.5t34.5 -50t44.5 -25t44.5 -12t34.5 -9t14 -17.5v-12h-709zM608 1692q0 55 36.5 90t92.5 35q62 0 94.5 -47t32.5 -113q0 -49 -14 -90q122 0 235.5 58.5t194.5 154.5l23 -17q-52 -76 -117.5 -130t-130.5 -79.5t-117 -36t-100 -10.5 q-110 0 -170 55t-60 130z" />
<glyph unicode="&#x41a;" horiz-adv-x="1536" d="M55 0v12q0 11 14 17.5t35.5 9.5t46 13.5t46 27.5t35.5 55.5t14 93.5v959q0 51 -19.5 83.5t-48 44.5t-56.5 17.5t-47.5 11.5t-19.5 19v14h721v-14q0 -13 -20 -19t-49 -12t-58 -18t-49 -44t-20 -83v-432h59q62 0 112 20.5t85 53t67.5 89.5t54.5 112.5t50 139.5l18 48 q17 43 33.5 73.5t42 59t62 43t83.5 14.5q74 0 124 -45.5t50 -103.5q0 -62 -44 -103t-111 -41q-57 0 -112 34t-71 105q-15 -31 -37 -94.5t-43 -117.5t-50 -113t-70 -105t-90 -69v-11q193 0 290.5 -72t161.5 -251q82 -226 128.5 -307.5t113.5 -81.5q19 0 43 6l6 -35 q-109 -37 -225 -37q-56 0 -102 11.5t-77.5 29.5t-58.5 48t-45 60.5t-37 73.5q-29 64 -85.5 235t-104.5 234q-46 58 -150 58h-71v-510q0 -58 20 -94.5t48 -50t56 -19.5t48 -12t20 -19v-12h-717z" />
<glyph unicode="&#x41b;" horiz-adv-x="1624" d="M6 115q0 64 45 103.5t109 39.5q73 0 127 -51.5t73 -140.5q65 56 114 169.5t77 258.5t41.5 299.5t13.5 314.5q0 41 -2 61q0 57 -25 93t-60.5 49.5t-71 19.5t-60.5 12.5t-25 20.5v16h1207v-14q0 -11 -14.5 -17t-36.5 -9t-47.5 -13.5t-47.5 -27t-36.5 -53t-14.5 -89.5v-919 q0 -58 14.5 -98t36 -58t47 -28.5t47 -13t36 -9.5t14.5 -19v-12h-717v12q0 12 14 18.5t34.5 9.5t44.5 15t44.5 30.5t34.5 59.5t14 99v1095h-381q-2 -206 -11.5 -377t-30 -328t-54 -275.5t-80.5 -206.5t-112.5 -133.5t-147.5 -45.5q-80 0 -146.5 40t-66.5 102z" />
<glyph unicode="&#x41c;" horiz-adv-x="1916" d="M41 0v12q0 10 18 16.5t44 10.5t56.5 19t57 38t45 71t19.5 114l20 897q1 46 -14 78t-37.5 46.5t-49.5 24t-50 12t-38.5 8.5t-15.5 17v16h510l436 -936q84 199 213.5 513.5t174.5 422.5h518v-18q0 -12 -21.5 -18t-52 -11.5t-61 -18.5t-51 -47.5t-19.5 -88.5l18 -967 q1 -50 16.5 -85t37.5 -50t48 -25t48 -12.5t36.5 -9t14.5 -17.5v-12h-713v12q0 13 14 19.5t34.5 9t45 12.5t45 26.5t34.5 55t14 94.5q0 276 -19 1012h-6l-344 -835l119 -261l-35 -18q-118 144 -358 147q-113 243 -200 426.5t-126.5 266t-66 136.5t-36.5 75t-20 45h-6 l-19 -961q-1 -62 16.5 -105.5t44 -64t58 -33.5t58.5 -17t45 -11t18 -19v-12h-518z" />
<glyph unicode="&#x41d;" horiz-adv-x="1681" d="M63 0v12q0 11 14.5 17.5t36 9.5t47 12.5t47 25t36 50t14.5 84.5v977q0 44 -14.5 74.5t-36 44t-47 22t-47 11t-36 9t-14.5 17.5v14h717v-14q0 -11 -14 -17.5t-35 -9.5t-46 -11.5t-46 -22t-35 -44t-14 -73.5v-443h563v443q0 44 -13.5 74.5t-33.5 44t-44 22t-44 11t-33.5 9 t-13.5 17.5v14h708v-14q0 -11 -14.5 -17.5t-36.5 -9.5t-47 -11.5t-47 -22t-36.5 -44t-14.5 -73.5v-973q0 -51 15 -86t37 -51t48 -26t48 -12.5t37 -9.5t15 -18v-12h-712v12q0 10 13.5 16.5t33.5 10t44 15t44 29t33.5 56t13.5 92.5v480h-563v-500q0 -50 14 -84.5t34.5 -50 t44.5 -25t44.5 -12.5t34.5 -9.5t14 -17.5v-12h-713z" />
<glyph unicode="&#x41e;" horiz-adv-x="1568" d="M88 690q0 117 32 224.5t95 196.5t150.5 155t205 102.5t252.5 36.5q179 0 323.5 -58.5t234.5 -157.5t138 -226t48 -269q0 -143 -50.5 -272t-143 -229t-235.5 -159t-317 -59q-143 0 -263.5 37.5t-206 103.5t-145.5 156t-89 195.5t-29 222.5zM465 690q0 -114 10.5 -210.5 t36.5 -185.5t67 -151t105 -98.5t147 -36.5q99 0 171 53.5t112 150t58 212.5t18 258q0 688 -367 688q-78 0 -140.5 -39t-102.5 -103.5t-66.5 -154t-37.5 -184t-11 -199.5z" />
<glyph unicode="&#x41f;" horiz-adv-x="1617" d="M63 0v12q0 11 14.5 17.5t36 9t47 12.5t47 25.5t36 50t14.5 84.5v975q0 52 -20 85t-48.5 45t-57.5 18t-49 12t-20 18v14h1604v-14q0 -12 -20.5 -18t-49.5 -12t-57.5 -18t-49 -44.5t-20.5 -83.5v-918q0 -67 15 -113.5t37 -67t48.5 -33t48.5 -15.5t37 -9.5t15 -19.5v-12 h-715v12q0 10 13.5 16.5t34 9.5t44 14.5t44 29t34 55.5t13.5 92v1114h-549v-1134q0 -49 14 -83.5t34.5 -49.5t44.5 -24.5t44.5 -12.5t34.5 -9.5t14 -17.5v-12h-713z" />
<glyph unicode="&#x420;" horiz-adv-x="1253" d="M63 0v12q0 12 20.5 18t49.5 13t57.5 21t49 51.5t20.5 95.5v971q0 46 -14.5 78t-36 45.5t-46.5 22t-46.5 11t-36 9t-14.5 18.5v14h696q172 0 302.5 -41.5t210 -134.5t79.5 -229q0 -108 -47.5 -191.5t-129 -133t-181 -74.5t-212.5 -25q-109 0 -192 14q0 -59 1 -178t1 -178 q0 -49 14.5 -83.5t36 -49.5t46.5 -24.5t46.5 -12.5t36 -9.5t14.5 -17.5v-12h-725zM592 600q24 -6 53 -6q166 0 259 101t93 276q0 173 -89.5 272.5t-229.5 99.5h-86v-743z" />
<glyph unicode="&#x421;" horiz-adv-x="1386" d="M88 670q0 151 50.5 284t141.5 233t229 158t304 58q113 0 218 -17.5t173 -42.5l60 95h30l19 -520h-10q-14 0 -24 17t-24 62q-122 369 -403 369q-102 0 -178.5 -51.5t-122 -146.5t-68 -220t-22.5 -282q0 -321 100.5 -486.5t296.5 -165.5q324 0 438 414q25 94 34 109 q8 14 20 14h12l-23 -590h-32l-54 96q-111 -40 -212.5 -61t-231.5 -21q-224 0 -389 90.5t-248.5 246.5t-83.5 358z" />
<glyph unicode="&#x422;" horiz-adv-x="1320" d="M18 922l56 503q118 -27 255 -36t369 -9t369.5 9t255.5 36l55 -503q-4 -2 -10 -2q-23 0 -35 36q-75 216 -165 301.5t-253 85.5h-53q0 -189 1 -567t1 -567q0 -58 20.5 -95t50 -50.5t59.5 -19.5t50.5 -12.5t20.5 -19.5v-12h-729v12q0 11 14.5 17.5t36.5 9t47 12.5t47 25.5 t36.5 50t14.5 84.5v1132h-51q-163 0 -253 -85.5t-165 -301.5q-12 -36 -34 -36q-7 0 -11 2z" />
<glyph unicode="&#x423;" horiz-adv-x="1423" d="M-4 1364v14h694v-16q0 -12 -24 -20t-53.5 -14.5t-53.5 -27t-24 -53.5q0 -29 18 -65l303 -588h6q44 104 162 364q4 10 19.5 44t23 51t20 48t19 49.5t11.5 39t5 33.5q0 36 -20 60t-48.5 33.5t-57 15t-48.5 12.5t-20 18v16h495v-16q0 -12 -17.5 -18t-48 -14.5t-65 -26.5 t-75.5 -65t-74 -118l-363 -794q-100 -220 -178.5 -304.5t-202.5 -84.5q-77 0 -128.5 36.5t-51.5 92.5q0 65 36.5 108t100.5 43q78 0 127.5 -58t57.5 -141q40 28 73.5 78t71.5 135q-140 263 -500 961q-25 48 -54 79.5t-52 43t-42.5 18.5t-30.5 13t-11 18z" />
<glyph unicode="&#x424;" horiz-adv-x="1906" d="M76 707q0 191 191 330.5t513 162.5v8q0 42 -19.5 69t-47 37.5t-55 16.5t-47 13.5t-19.5 21.5v14h721v-14q0 -15 -31.5 -24.5t-70 -16.5t-70 -36t-31.5 -79v-10q324 -12 519.5 -150.5t195.5 -338.5q0 -98 -45 -184.5t-131.5 -155.5t-224.5 -114t-314 -56v-19 q0 -47 20.5 -77.5t50 -41.5t58.5 -17t49.5 -12.5t20.5 -19.5v-14h-717v14q0 12 14 19.5t35 10.5t45 11.5t45 21t35 41t14 68.5v15q-181 14 -318.5 58t-220.5 112t-124 152t-41 184zM430 707q0 -216 94.5 -338t255.5 -136v934q-159 -17 -254.5 -142t-95.5 -318zM1110 236 q165 13 265 146t100 314q0 195 -95.5 325.5t-269.5 147.5v-933z" />
<glyph unicode="&#x425;" horiz-adv-x="1538" d="M14 0v12q0 12 14 18.5t37.5 11t59.5 19.5t75.5 38t90 72t98.5 116l240 334l-328 520q-46 73 -95.5 120t-81 60t-52.5 23.5t-21 21.5v12h721v-12q0 -14 -23.5 -23.5t-52 -14.5t-52 -24t-23.5 -51q0 -39 61 -133l184 -286l164 247q76 115 76 168q0 34 -24 53t-52 23.5 t-52 13.5t-24 25v14h519v-12q1 -14 -19.5 -21.5t-60 -20t-87.5 -36.5t-114.5 -84t-128.5 -149l-176 -252l383 -598q34 -53 73 -89t69.5 -50t56 -21.5t39.5 -14t14 -18.5v-12h-756v12q0 12 23.5 22t51 17.5t51 28.5t23.5 53q0 38 -32 88l-234 369l-174 -252 q-106 -149 -106 -203q0 -38 27 -59t59 -26t59 -13.5t27 -24.5v-12h-527z" />
<glyph unicode="&#x426;" horiz-adv-x="1718" d="M63 0v12q0 12 14.5 19t35.5 9.5t46.5 13.5t46.5 28.5t35.5 57t14.5 96.5v923q0 51 -14 87t-35 52.5t-45 27t-45 13.5t-35 9.5t-14 17.5v12h706v-12q0 -11 -13.5 -17.5t-34 -9.5t-44.5 -11.5t-44.5 -21.5t-34 -43t-13.5 -73v-1153h534v1124q0 50 -13 85t-33 51t-43 26.5 t-43 14t-33 10.5t-13 18v12h705v-12q0 -13 -20 -19t-48.5 -11.5t-56.5 -17t-48 -44t-20 -84.5v-1151h29q63 0 110 -17.5t72 -46.5t37 -61.5t12 -67.5q0 -114 -79 -180.5t-212 -66.5q-103 0 -272.5 25.5t-255.5 25.5q-68 0 -102 -29.5t-41 -97.5h-39q0 61 11 115.5t36 104 t71 78.5t109 29q91 0 198 -27t206 -54t170 -27q61 0 96 35.5t35 83.5q0 60 -42.5 99.5t-138.5 39.5h-1405z" />
<glyph unicode="&#x427;" horiz-adv-x="1583" d="M14 1366v14h691v-14q0 -11 -13 -17t-32 -9t-41.5 -11.5t-41.5 -22t-32 -43.5t-13 -73v-248q0 -139 59 -199.5t167 -60.5q112 0 231 61v447q0 43 -12.5 73.5t-31 44t-40.5 22t-40.5 11t-31 8.5t-12.5 17v14h699v-14q0 -12 -20.5 -18t-49 -12t-57.5 -18t-49.5 -44.5 t-20.5 -83.5v-961q0 -56 14.5 -94.5t36 -55.5t47 -27t47 -12.5t36 -9t14.5 -18.5v-12h-719v12q0 11 14 17.5t35 9.5t45 12.5t45 25t35 49.5t14 83q0 43 1 250t1 250q-84 -54 -192 -81.5t-195 -27.5q-184 0 -294.5 97t-110.5 286v207q0 51 -19 84t-45.5 44.5t-53.5 17.5 t-46 12t-19 18z" />
<glyph unicode="&#x428;" horiz-adv-x="2318" d="M63 0v12q0 14 20 20.5t48.5 14t56.5 23.5t48 59.5t20 110.5v915q0 52 -14 88t-35 52.5t-46 27.5t-46 14.5t-35 10.5t-14 18v12h684v-12q0 -11 -12 -18t-30 -10t-39 -12t-39 -22.5t-30 -43.5t-12 -72v-1151h399v1151q0 43 -12 73t-29.5 43.5t-38.5 22.5t-38.5 12 t-29.5 9.5t-12 17.5v12h656v-12q0 -11 -12 -17.5t-29.5 -9.5t-38.5 -12t-38.5 -22.5t-29.5 -43.5t-12 -73v-1151h399v1151q0 50 -16.5 82.5t-40 44.5t-46.5 18.5t-39.5 13t-16.5 19.5v12h688v-12q0 -12 -14.5 -19t-35.5 -9.5t-46.5 -13t-46.5 -27t-35.5 -53t-14.5 -89.5 v-915q0 -58 14.5 -98.5t35.5 -58.5t46.5 -29t46.5 -14t35.5 -9.5t14.5 -18.5v-12h-2188z" />
<glyph unicode="&#x429;" horiz-adv-x="2308" d="M63 0v12q0 12 14.5 18.5t35.5 9.5t46.5 14.5t46.5 29.5t35.5 58.5t14.5 97.5v917q0 52 -14 88t-35 52.5t-46 27t-46 13.5t-35 10t-14 18v12h684v-12q0 -13 -16.5 -19.5t-40 -12.5t-47 -18t-40 -44t-16.5 -82v-1153h399v1151q0 43 -12 73t-29.5 43.5t-38.5 22.5t-38.5 12 t-29.5 9.5t-12 17.5v12h656v-12q0 -13 -16.5 -19.5t-40 -12.5t-47 -18t-40 -44t-16.5 -82v-1153h397v1153q0 50 -16.5 82t-40 44t-46.5 18t-39.5 12.5t-16.5 19.5v12h688v-12q0 -12 -14.5 -19t-35.5 -10t-46.5 -13.5t-46.5 -26.5t-35.5 -52t-14.5 -88v-1118h29 q63 0 110 -17.5t72 -46.5t37 -61.5t12 -67.5q0 -114 -79 -180.5t-211 -66.5q-105 0 -274 25.5t-255 25.5q-68 0 -102 -29.5t-43 -97.5h-37q0 61 11 116t35.5 104t70.5 78t108 29q91 0 198 -27t206.5 -54t171.5 -27q61 0 96 35.5t35 83.5q0 60 -42.5 99.5t-138.5 39.5h-2005z " />
<glyph unicode="&#x42a;" horiz-adv-x="1753" d="M8 924l53 506q1 0 4.5 2t4.5 2q102 -54 411 -54h590v-16q0 -11 -13.5 -17.5t-33.5 -8.5t-44 -11t-44 -23t-33.5 -46t-13.5 -78v-379q120 20 239 20q83 0 158.5 -11.5t151 -41t130.5 -75t89.5 -118.5t34.5 -167q0 -55 -16 -109t-55.5 -109t-98 -96.5t-151 -67.5 t-206.5 -26h-790v12q0 13 18.5 19t44.5 12.5t52 20.5t44.5 52t18.5 97v1128h-68q-175 0 -264.5 -80.5t-165.5 -297.5q-14 -41 -32 -41q-3 0 -8 1t-7 1zM889 244q0 -42 2 -67.5t10 -55.5t23.5 -46.5t44 -28t69.5 -11.5q126 0 211.5 102t85.5 262q0 189 -95 280t-259 91 q-30 0 -92 -4v-522z" />
<glyph unicode="&#x42b;" horiz-adv-x="2131" d="M61 0v12q0 11 14 17.5t35.5 9t46 14t46 30t35.5 59.5t14 100v913q0 51 -14 87t-35.5 52.5t-46 27.5t-46 14.5t-35.5 10t-14 17.5v14h723v-14q0 -11 -14.5 -18t-36.5 -10.5t-47 -14t-47 -26.5t-36.5 -51.5t-14.5 -86.5v-356q143 20 248 20q80 0 153.5 -11t149 -40.5 t130.5 -74.5t89.5 -118.5t34.5 -168.5q0 -55 -16 -109t-55 -109t-97 -96.5t-150.5 -67.5t-206.5 -26h-807zM588 244q0 -42 2 -68t10 -56t23.5 -47t44 -28.5t69.5 -11.5q130 0 215.5 102.5t85.5 263.5q0 184 -100.5 278.5t-263.5 94.5q-42 0 -86 -6v-522zM1348 0v12 q0 14 19.5 20t47.5 12.5t56 21.5t47.5 57t19.5 108v957q0 51 -19.5 83.5t-47.5 44.5t-56 17.5t-47.5 11.5t-19.5 19v14h718v-14q0 -13 -20 -19t-48.5 -12t-57 -18t-48.5 -44t-20 -83v-957q0 -56 14.5 -95t36 -56.5t46.5 -28t46.5 -13t36 -9t14.5 -17.5v-12h-718z" />
<glyph unicode="&#x42c;" horiz-adv-x="1456" d="M61 1366v12h723v-12q0 -11 -14.5 -18t-36.5 -10.5t-47 -14t-47 -27t-36.5 -52.5t-14.5 -87v-356q143 20 248 20q80 0 154 -11t149.5 -40.5t130.5 -74.5t90 -118.5t35 -168.5q0 -55 -16 -109t-55 -109t-97.5 -96.5t-151 -67.5t-207.5 -26h-805v12q0 11 14 17.5t35 9 t45.5 14t45.5 30.5t35 60.5t14 100.5v911q0 52 -14 88t-35.5 52.5t-46 27.5t-46 14.5t-35.5 10.5t-14 18zM588 244q0 -41 2 -66.5t10 -56t23.5 -47t44 -28t69.5 -11.5q131 0 216 101t85 263q0 189 -95.5 281t-256.5 92q-48 0 -98 -6v-522z" />
<glyph unicode="&#x42d;" horiz-adv-x="1400" d="M80 553h10q15 0 24 -21t22 -70q4 -18 7 -28q23 -89 57 -162t82 -132.5t114 -92.5t145 -33q99 0 175.5 51.5t122.5 140.5t69.5 200.5t23.5 238.5q0 61 -2 92q-64 -110 -199 -110q-50 0 -117 17.5t-98 17.5q-72 0 -110 -60q-22 4 -31 8q36 101 92.5 146t140.5 45 q54 0 136.5 -18.5t117.5 -18.5q53 0 68 24q-5 135 -26.5 237.5t-63 180t-108.5 118t-159 40.5q-148 0 -249 -74q61 -61 61 -162q0 -66 -40 -113.5t-109 -47.5q-57 0 -90 38t-33 89q0 36 17 76t57 83t97.5 76.5t146.5 55.5t196 22q216 0 373 -89t236 -244.5t79 -360.5 q0 -149 -44 -279.5t-129 -233.5t-223 -163t-313 -60q-87 0 -168.5 13.5t-128 27.5t-119.5 41l-67 -96h-23q-12 394 -20 590z" />
<glyph unicode="&#x42e;" horiz-adv-x="2326" d="M59 0v12q0 11 14 17.5t35.5 9t46 12t46 24.5t35.5 49t14 83v981q0 51 -19.5 84t-48 44.5t-56.5 17.5t-47.5 12t-19.5 18v16h721v-16q0 -11 -14.5 -17t-36 -9t-46.5 -11.5t-46.5 -22t-36 -43.5t-14.5 -73v-447h243q9 138 60 258.5t138.5 211t216.5 142.5t284 52 q143 0 262 -39t200.5 -106.5t137.5 -159t82 -194t26 -214.5q0 -140 -45.5 -266.5t-131 -228t-224 -162t-309.5 -60.5q-144 0 -262 39t-198 106t-134.5 160t-79.5 198.5t-25 223.5h-241v-495q0 -49 14.5 -82.5t36 -48.5t46.5 -24.5t46.5 -12.5t36 -9.5t14.5 -17.5v-12h-721z M1206 690q0 -116 8 -209.5t30 -185t58 -153t95.5 -99t138.5 -37.5q76 0 134 37t93 97.5t57 150.5t30 183.5t8 207.5q0 95 -6 177t-20 161.5t-39.5 141t-61 109t-87 72.5t-116.5 25q-73 0 -130 -40t-92.5 -105t-58.5 -155t-32 -182.5t-9 -195.5z" />
<glyph unicode="&#x42f;" horiz-adv-x="1531" d="M-14 0q4 20 4 33q4 0 11.5 -1t10.5 -1q74 0 128.5 71.5t121.5 231.5q34 83 67.5 137.5t82 98.5t114.5 66t156 26v8q-198 8 -325.5 99.5t-127.5 236.5q0 181 134.5 276.5t365.5 95.5h737v-14q0 -10 -10.5 -15.5t-27 -9t-37 -7.5t-41 -13.5t-37 -24.5t-27 -42.5 t-10.5 -65.5v-907q0 -69 14 -117t35 -70t46 -35.5t46 -16.5t35 -9.5t14 -18.5v-12h-718v12q0 11 14.5 17.5t36 9t46.5 12t46.5 24.5t36 49t14.5 83v442h-70q-73 0 -117 -32t-77 -103q-21 -44 -48.5 -118.5t-46.5 -126.5t-54 -114t-74 -100t-102.5 -64t-143.5 -26 q-123 0 -223 35zM573 1010q0 -148 86 -235t236 -87h47v653h-68q-136 0 -218.5 -88.5t-82.5 -242.5z" />
<glyph unicode="&#x430;" horiz-adv-x="1103" d="M61 195q0 88 44 153t118 100t156.5 51.5t173.5 16.5q59 0 111 -6v133q0 244 -179 244q-74 0 -135 -37q53 -53 53 -133q0 -61 -42.5 -103.5t-110.5 -42.5q-51 0 -80 30.5t-29 76.5q0 31 11.5 62.5t41.5 65.5t74.5 59.5t116.5 42t162 16.5q101 0 176.5 -22.5t118.5 -58 t69 -87.5t34.5 -102t8.5 -111v-367q0 -75 20.5 -99.5t88.5 -25.5q0 -4 1 -13t1 -13q-34 -20 -91.5 -34t-107.5 -14q-81 0 -132.5 29t-61.5 105h-8q-76 -80 -160 -109t-182 -29q-112 0 -186.5 57.5t-74.5 164.5zM356 248q0 -85 34.5 -135t94.5 -50q50 0 98 25t81 66v323 q-6 0 -18.5 1t-18.5 1q-143 0 -207 -64t-64 -167z" />
<glyph unicode="&#x431;" horiz-adv-x="1173" d="M63 498q0 143 24 260t58.5 196t94.5 143t109.5 99.5t129 65.5t126.5 42.5t127 29.5q72 16 107 25.5t79.5 28.5t64.5 46t23 65h32q11 -68 11 -110q0 -131 -83 -195.5t-243 -91.5q-76 -13 -126.5 -23.5t-118 -30.5t-112.5 -42t-95 -58.5t-81.5 -80.5t-55.5 -106t-32 -138 q1 0 5.5 -1t5.5 -1q32 69 89 122t125 83t136.5 44.5t134.5 14.5q244 0 376 -124.5t132 -328.5q0 -67 -19 -131t-60 -123.5t-100 -104t-146 -71.5t-191 -27q-117 0 -209 29t-151 78t-97.5 117.5t-54 141.5t-15.5 157zM383 430q0 -426 207 -426q47 0 83 25t58 64.5t36 96 t19 113t5 121.5q0 426 -203 426q-57 0 -99 -38t-64 -102t-32 -133.5t-10 -146.5z" />
<glyph unicode="&#x432;" horiz-adv-x="1150" d="M47 0v12q0 12 14 18.5t33.5 12t39.5 16.5t34 41.5t14 77.5v533q0 48 -14 78.5t-33.5 42t-39.5 17t-34 12t-14 18.5v14h680q159 0 229 -58t70 -145q0 -75 -69 -132.5t-191 -63.5v-7q88 0 153 -22.5t99.5 -59t50.5 -75t16 -78.5q0 -45 -18.5 -87.5t-57 -80.5t-107.5 -61 t-161 -23h-694zM475 137q0 -52 21.5 -78t74.5 -26h27q84 0 132 54.5t48 156.5q0 106 -54.5 163.5t-141.5 57.5h-107v-328zM475 500h90q71 0 121.5 47.5t50.5 134.5q0 81 -45.5 128.5t-126.5 47.5h-90v-358z" />
<glyph unicode="&#x433;" horiz-adv-x="944" d="M45 881v12h442q283 0 406 35l33 -379q-2 0 -5.5 -1t-5.5 -1q-12 0 -18 8t-12 29q-18 55 -40 97.5t-44.5 71t-53.5 48.5t-57 30.5t-65.5 16t-68.5 7t-75 1.5v-692q0 -37 10.5 -62.5t26 -36.5t33.5 -18.5t33.5 -9.5t26 -8t10.5 -17v-12h-570v12q0 11 14 16.5t33.5 10.5 t39.5 16t34 41.5t14 77.5v539q0 57 -22 89.5t-48.5 40t-48.5 16t-22 22.5z" />
<glyph unicode="&#x434;" horiz-adv-x="1175" d="M10 49q83 -14 166 -14q88 85 135.5 257t53.5 402q0 46 -13.5 78t-33 46t-43 22.5t-43 10t-33 7t-13.5 16.5v19h942v-14q0 -11 -11 -17.5t-28 -9t-36.5 -11t-36.5 -20.5t-28 -39.5t-11 -66.5v-680q102 0 182 14q-6 -135 -14 -405h-15q-11 0 -16 8.5t-8 32.5 q-11 71 -21 114t-27.5 82.5t-39 59t-59 35t-83.5 20t-116 4.5h-393q-61 0 -103 -5t-72.5 -20.5t-49 -32.5t-32.5 -52.5t-22.5 -69t-21.5 -92.5l-3 -15q-10 -46 -14.5 -57.5t-17.5 -11.5h-8zM229 35h457v821h-285v-102q0 -503 -172 -719z" />
<glyph unicode="&#x435;" horiz-adv-x="1079" d="M68 446q0 100 36 187t100.5 151.5t161.5 102t212 37.5q201 0 322.5 -119.5t121.5 -292.5l-16 -16h-631q0 -422 319 -422q151 0 293 100l17 -16q-152 -183 -416 -183q-247 0 -383.5 131.5t-136.5 339.5zM377 530l366 15v55q0 71 -15.5 134t-56.5 111t-102 48 q-58 0 -100.5 -49.5t-64.5 -129t-27 -184.5z" />
<glyph unicode="&#x436;" horiz-adv-x="1660" d="M8 0l4 31q65 0 96 42.5t103 217.5q30 73 67 115.5t100 65t159 22.5v8q-30 15 -55 38.5t-43.5 55t-31 57.5t-28 64t-23.5 55q-22 -45 -62 -68.5t-87 -23.5q-56 0 -91.5 36.5t-35.5 88.5q0 47 37 83t102 36q71 0 110.5 -40t67.5 -110q55 -145 109.5 -207.5t144.5 -62.5h29 v205q0 50 -14 81t-34 42.5t-40.5 17.5t-34.5 12t-14 19v12h567v-12q0 -12 -10 -19t-25.5 -10t-33 -11t-33 -20t-25.5 -38.5t-10 -65.5v-213h28q88 0 144.5 63t111.5 207q26 70 66 110t111 40q67 0 105 -37t38 -86q0 -53 -36 -87t-93 -34q-47 0 -88.5 23.5t-63.5 68.5 q-7 -16 -22.5 -54.5t-27.5 -64t-30.5 -57.5t-43 -55.5t-54.5 -38.5v-8q140 0 210.5 -49t119.5 -169q20 -50 28.5 -70.5t25.5 -56.5t28.5 -51t29.5 -33.5t37 -25t43 -6.5l5 -33q-106 -23 -142 -23q-123 0 -181 35t-95 119q-13 28 -30 80.5t-31.5 92t-35 80t-50.5 63t-68 22.5 h-39v-295q0 -39 10 -65.5t25.5 -38.5t33 -20t33 -11t25.5 -9.5t10 -17.5v-12h-567v12q0 11 10 17t25.5 8.5t33 10t33 19t25.5 38t10 65.5v299h-39q-19 0 -35.5 -4.5t-28.5 -10.5t-23.5 -20t-18.5 -23t-16 -31t-13 -33t-13.5 -39t-13.5 -40q-15 -43 -23 -64.5t-22 -55.5 t-26 -51t-31 -40.5t-40 -35t-49 -23.5t-63 -16.5t-78 -4.5q-72 0 -139 23z" />
<glyph unicode="&#x437;" horiz-adv-x="980" d="M45 387h12q17 0 24 -13t18 -53q3 -13 5 -20q78 -288 287 -291q97 0 152 64.5t55 146.5q0 245 -285 248q-3 0 -16 -1t-29 -1l-2 35q303 29 303 223q0 67 -49 111.5t-133 44.5q-70 0 -135 -37q43 -43 43 -113q0 -59 -31.5 -98t-93.5 -39q-50 0 -80.5 30t-30.5 78 q0 38 21.5 75.5t66 72.5t125.5 56.5t187 21.5q97 0 174 -14.5t124 -37t77.5 -52.5t42.5 -58.5t12 -58.5q0 -36 -18.5 -70.5t-57 -66t-109 -52t-163.5 -22.5v-9q190 -4 282 -70t92 -167q0 -126 -126.5 -201.5t-364.5 -75.5q-146 0 -297 64l-39 -70q-1 0 -15.5 1t-15.5 1z" />
<glyph unicode="&#x438;" horiz-adv-x="1282" d="M47 0v12q0 13 14.5 19t34.5 11.5t40.5 16.5t35 42t14.5 81v527q0 50 -14 81t-34 42.5t-40.5 17t-34.5 11.5t-14 18v14h553v-14q0 -13 -12.5 -19.5t-30 -12t-35.5 -16.5t-30.5 -40.5t-12.5 -75.5v-611h4l314 789h434v-14q0 -11 -10.5 -17.5t-26 -9.5t-34 -11t-34 -20.5 t-26 -39.5t-10.5 -66v-541q0 -39 10.5 -65.5t26 -38.5t34 -20t34 -11t26 -9.5t10.5 -17.5v-12h-553v12q-1 14 17.5 22t41 14.5t41.5 39t19 90.5q0 405 2 608h-6l-314 -786h-434z" />
<glyph unicode="&#x439;" horiz-adv-x="1282" d="M47 0v12q0 13 14.5 19t34.5 11.5t40.5 16.5t35 42t14.5 81v527q0 50 -14 81t-34 42.5t-40.5 17t-34.5 11.5t-14 18v14h553v-14q0 -13 -12.5 -19.5t-30 -12t-35.5 -16.5t-30.5 -40.5t-12.5 -75.5v-611h4l314 789h434v-14q0 -11 -10.5 -17.5t-26 -9.5t-34 -11t-34 -20.5 t-26 -39.5t-10.5 -66v-541q0 -39 10.5 -65.5t26 -38.5t34 -20t34 -11t26 -9.5t10.5 -17.5v-12h-553v12q-1 14 17.5 22t41 14.5t41.5 39t19 90.5q0 405 2 608h-6l-314 -786h-434zM371 1268q0 52 35.5 86.5t89.5 34.5q59 0 89.5 -47t30.5 -113q0 -45 -16 -82q116 0 221.5 53 t186.5 148l22 -17q-49 -72 -111 -123t-123.5 -75t-110.5 -33.5t-95 -9.5q-104 0 -161.5 53t-57.5 125z" />
<glyph unicode="&#x43a;" horiz-adv-x="1175" d="M47 0v12q0 12 14.5 18t34.5 12.5t40.5 18.5t35 42t14.5 77v531q0 57 -21.5 90t-47 40.5t-47 15.5t-21.5 22v14h567v-16q0 -11 -14 -17t-34 -13t-39.5 -20t-33.5 -47t-14 -86v-190h31q85 0 136 48t95 148l27 74q26 69 67 109.5t111 40.5q66 0 105 -37t39 -86 q0 -53 -36 -87t-93 -34q-47 0 -88 23.5t-62 68.5q-8 -17 -23.5 -54.5t-27.5 -63.5t-31 -57.5t-43.5 -55.5t-54.5 -39v-8h29q111 0 177.5 -44t106.5 -135q8 -19 24 -57.5t24.5 -58t23 -50t27.5 -46.5t30 -33.5t37 -25.5t43 -9l6 -35q-84 -23 -190 -23q-71 1 -122.5 28.5 t-79 71t-47 96t-34.5 104.5t-33 95t-50.5 70t-80.5 27h-43v-299q0 -42 13.5 -70.5t33.5 -40t39.5 -18t33 -13t13.5 -16.5v-12h-567z" />
<glyph unicode="&#x43b;" horiz-adv-x="1196" d="M0 106q0 45 32.5 78t84.5 33q68 0 107.5 -49t47.5 -125q166 120 166 657q0 45 -12.5 75.5t-32 44t-41.5 22t-41.5 10.5t-32 8t-12.5 17v16h881v-14q0 -13 -10.5 -20t-26 -9t-34 -10t-34 -19.5t-26 -38.5t-10.5 -67v-539q0 -48 13.5 -77.5t33 -40t38.5 -15t32.5 -11 t13.5 -20.5v-12h-562v12q0 12 10 18t25 8t33 9.5t33 20t25 41.5t10 71v678h-228q-2 -43 -5 -131q-4 -106 -7 -160.5t-12 -148.5t-21.5 -144.5t-36.5 -116.5t-56 -99t-80.5 -57t-110.5 -24q-59 0 -106.5 36t-47.5 93z" />
<glyph unicode="&#x43c;" horiz-adv-x="1521" d="M12 0v14q1 11 19.5 16.5t44.5 12t52.5 20t45.5 48t21 88.5l14 532q1 51 -21.5 79.5t-50 34t-51 12.5t-23.5 20v16h437l288 -584h9q21 51 124.5 282t131.5 302h415v-16q0 -11 -14 -17t-34 -12.5t-40 -17.5t-34 -39t-13 -70l13 -545q1 -45 15 -74.5t33 -41.5t38 -18 t32 -12.5t13 -17.5v-12h-541v12q0 13 19 21t42 14.5t42 36t18 80.5l-15 612h-6q-37 -91 -186.5 -420.5t-161.5 -357.5h-33l-407 799l-6 -2q-9 -369 -9 -602q0 -45 12.5 -77t32 -45.5t42.5 -22.5t42.5 -11.5t32.5 -8t13 -16.5v-12h-396z" />
<glyph unicode="&#x43d;" horiz-adv-x="1269" d="M47 0v12q0 13 14.5 19t34.5 11.5t40.5 16.5t35 42t14.5 81v527q0 50 -14 81t-34 42.5t-40.5 17t-34.5 11.5t-14 18v14h551v-14q0 -13 -12.5 -19.5t-30 -12t-34.5 -16.5t-29.5 -40.5t-12.5 -75.5v-221h305v215q0 48 -12 79t-29 42.5t-34 17t-29 12t-12 19.5v14h551v-14 q0 -13 -14.5 -19.5t-35 -12t-41 -16.5t-35 -40.5t-14.5 -75.5v-541q0 -39 10.5 -65.5t26.5 -38.5t34 -20t34 -11t26.5 -9.5t10.5 -17.5v-12h-551v12q0 14 18 22t39 14.5t39 39t18 90.5v281h-305v-289q0 -54 18.5 -84.5t40 -36.5t40 -14t18.5 -23v-12h-551z" />
<glyph unicode="&#x43e;" horiz-adv-x="1200" d="M68 453q0 98 35.5 183.5t101 150.5t167 102t226.5 37q135 0 239.5 -38t168 -104t95.5 -149.5t32 -179.5q0 -95 -34.5 -181t-99.5 -153.5t-169 -107.5t-232 -40q-131 0 -234 38.5t-166.5 105.5t-96.5 152.5t-33 183.5zM385 453q0 -451 217 -451q60 0 104 38t67 104 t33.5 140.5t10.5 161.5q0 447 -217 447q-59 0 -103 -39t-67.5 -105.5t-34 -140t-10.5 -155.5z" />
<glyph unicode="&#x43f;" horiz-adv-x="1267" d="M45 881v12h1172v-12q0 -11 -10.5 -17.5t-26.5 -9.5t-34 -11t-34 -20.5t-26.5 -39.5t-10.5 -66v-541q0 -39 9.5 -66t24.5 -39t31.5 -20t31.5 -11t24.5 -9.5t9.5 -18.5v-12h-542v12q0 13 12 19t29 11.5t34 16.5t29 41t12 78l2 680h-305v-686q0 -45 11.5 -73.5t28 -39 t33.5 -16t28.5 -12t11.5 -19.5v-12h-541v12q0 13 14 19t33.5 11.5t39.5 17t34 42.5t14 80v527q0 42 -10.5 71t-25.5 42t-33.5 21.5t-33.5 11t-25.5 9t-10.5 17.5z" />
<glyph unicode="&#x440;" horiz-adv-x="1261" d="M29 852v16l395 56l10 -11l-16 -165l10 -3q61 92 150.5 136.5t185.5 44.5q202 0 316 -126.5t114 -334.5q0 -159 -62.5 -272t-164 -166.5t-230.5 -53.5q-64 0 -139.5 17.5t-130.5 54.5l-10 -2v-319q0 -45 13 -72t31.5 -36t36.5 -13t31 -9.5t13 -17.5v-14h-549v14 q0 11 10 16.5t25 7.5t32.5 9.5t32.5 19t25 39.5t10 68v964q0 55 -21.5 84.5t-48 34t-48 11.5t-21.5 22zM459 88q86 -59 190 -59q62 0 108 32t72.5 90t39 130t12.5 161q0 189 -57 293.5t-165 104.5q-56 0 -111.5 -28.5t-88.5 -76.5v-647z" />
<glyph unicode="&#x441;" horiz-adv-x="974" d="M68 432q0 139 62 250t184 177.5t286 66.5q76 0 135.5 -14t95 -36t59 -51.5t32 -57t8.5 -56.5q0 -53 -33.5 -89t-85.5 -36q-65 0 -99 41.5t-34 103.5q0 77 43 139q-28 7 -55 7q-130 0 -208.5 -108.5t-78.5 -297.5q0 -198 82 -300.5t239 -102.5q132 0 230 57l10 -27 q-153 -125 -379 -125q-237 0 -365 124.5t-128 334.5z" />
<glyph unicode="&#x442;" horiz-adv-x="985" d="M12 541l33 383q1 0 2 1t2 1q150 -33 434 -33q249 0 412 27q28 4 39 4l33 -383q-2 0 -7 -1t-8 -1q-10 0 -15 7t-11 29q-52 160 -117 221.5t-150 61.5h-22v-686q0 -53 21 -85t45.5 -40t45.5 -16t21 -19v-12h-569v12q0 9 10.5 14.5t26 9t34 12.5t34 22.5t26 41.5t10.5 68 v678q-99 0 -161.5 -59t-125.5 -224q-9 -22 -14.5 -29t-13.5 -7q-3 0 -8 1t-7 1z" />
<glyph unicode="&#x443;" horiz-adv-x="1130" d="M0 877v14h610v-17q0 -12 -21 -20t-46.5 -12.5t-46.5 -22.5t-21 -49q0 -22 19 -68l186 -409h4l141 373q25 64 25 94q0 31 -14.5 50.5t-35 27t-41.5 11t-35.5 9t-14.5 16.5v17h409v-14q0 -9 -16.5 -14t-45 -15.5t-61.5 -30.5t-71.5 -70t-69.5 -124l-301 -725 q-31 -75 -67.5 -136t-82.5 -112.5t-103 -80t-120 -28.5q-81 0 -128.5 39.5t-47.5 104.5q0 53 39.5 89t95.5 36q77 0 126 -54.5t59 -124.5q89 49 196 279l29 74h-27l-346 723q-22 46 -48.5 76.5t-48 42t-40 18.5t-29 13.5t-10.5 19.5z" />
<glyph unicode="&#x444;" horiz-adv-x="1689" d="M66 436q0 118 35 211.5t97 152.5t142 89.5t174 30.5q83 0 182 -35v370q0 45 -15 72.5t-37 37t-43.5 13t-36.5 8t-15 15.5v16l424 66q8 -8 12 -10v-623q101 74 229 74q103 0 182.5 -37t127.5 -102.5t72 -148t24 -179.5q0 -121 -36 -214.5t-99.5 -150.5t-145 -86 t-178.5 -29q-86 0 -176 33v-262q0 -44 14.5 -73t35.5 -41t42.5 -18.5t36 -13.5t14.5 -18v-12h-571v14q0 11 14.5 17t34.5 12t40.5 18.5t35 43t14.5 77.5v283q-110 -66 -213 -66q-206 0 -311.5 127.5t-105.5 337.5zM373 449q0 -402 213 -402q56 0 110 29v768q-50 18 -96 18 q-227 0 -227 -413zM985 47q55 -18 100 -18q117 0 171.5 110.5t54.5 304.5q0 200 -56.5 299t-156.5 99q-60 0 -113 -33v-762z" />
<glyph unicode="&#x445;" horiz-adv-x="1173" d="M16 0v10q0 11 14 16t42 12.5t62 23t81.5 57.5t93.5 104l135 185l-237 340q-31 44 -64.5 70.5t-54.5 32.5t-35 12t-14 16v14h600v-14q0 -12 -18 -19t-39.5 -10.5t-39.5 -18t-18 -40.5q0 -27 37 -80l123 -179l96 140q56 83 56 114q0 28 -20 43.5t-43.5 19t-43.5 10 t-20 18.5v16h407v-14q0 -11 -15 -17t-44.5 -14.5t-64.5 -24.5t-82 -56.5t-91 -100.5l-117 -160l234 -334q30 -44 64 -73.5t60.5 -41.5t49 -18.5t34.5 -12t13 -14.5v-12h-639v12q0 11 19.5 17t43 9.5t43 16t19.5 33.5q0 36 -51 107l-129 186l-129 -186q-39 -55 -39 -91 q0 -27 20 -43t44.5 -20t44.5 -10t20 -17v-14h-408z" />
<glyph unicode="&#x446;" horiz-adv-x="1286" d="M47 0v12q0 12 14.5 17.5t34.5 11t40.5 17t35 43t14.5 81.5v527q0 41 -10 70t-25.5 42t-33 22t-33 11.5t-25.5 8.5t-10 16v14h543v-16q0 -12 -11.5 -17.5t-28 -11.5t-33.5 -17.5t-28.5 -42.5t-11.5 -79v-672h316v663q0 52 -11 84.5t-26.5 44t-31.5 17t-27 12t-11 19.5v16 h535v-14q0 -12 -13.5 -18.5t-33 -12t-39.5 -16t-33.5 -38.5t-13.5 -73q0 -115 -1.5 -343.5t-1.5 -342.5h25q57 -1 99.5 -16.5t65.5 -41t33.5 -54t10.5 -60.5q0 -113 -79.5 -171.5t-219.5 -58.5q-77 0 -219 24t-219 24q-61 0 -91.5 -26.5t-37.5 -90.5h-35q0 56 10.5 106.5 t32.5 95.5t63.5 72t98.5 27q81 0 177 -25.5t185.5 -50.5t155.5 -25q55 0 87 33t32 78q0 125 -162 125h-1053z" />
<glyph unicode="&#x447;" horiz-adv-x="1177" d="M-20 879v14h538v-16q1 -11 -10.5 -16t-28 -10t-33.5 -15t-28.5 -36.5t-11.5 -68.5v-160q0 -94 24.5 -134t89.5 -40q100 0 172 60v278q0 40 -11 65.5t-27 35t-32 14t-27 10.5t-11 17v16h542v-14q0 -13 -14.5 -19t-35 -11.5t-40.5 -17t-34.5 -42.5t-14.5 -80v-527 q0 -50 14.5 -81t34.5 -42t40.5 -16.5t35 -11.5t14.5 -19v-12h-555v12q-1 11 11.5 16.5t30.5 11t36 15.5t30.5 37.5t12.5 69.5v246q-4 0 -6 2q-125 -93 -293 -93q-59 0 -107.5 15t-88.5 46.5t-62 87.5t-22 132v109q0 50 -13.5 81.5t-33 43t-39.5 17t-33.5 11.5t-13.5 19z" />
<glyph unicode="&#x448;" horiz-adv-x="1748" d="M47 0v12q0 12 14.5 17.5t34.5 11t40.5 17t35 43t14.5 81.5v527q0 41 -10 70t-25.5 42t-33 22t-33 11.5t-25.5 8.5t-10 16v14h535v-16q0 -12 -11 -17.5t-26 -11.5t-30.5 -17.5t-26.5 -42.5t-11 -79v-672h246v663q0 50 -10 82.5t-24.5 45t-29 19t-24.5 12.5t-10 18v16h497 v-16q0 -11 -10.5 -17t-26 -11.5t-31 -15.5t-26 -37.5t-10.5 -70.5v-688h248v670q0 50 -10.5 81t-25 42t-29.5 16t-25.5 11.5t-10.5 19.5v16h527v-14q0 -10 -9.5 -16t-24.5 -8.5t-31.5 -10.5t-31.5 -20.5t-24.5 -40.5t-9.5 -68v-547q0 -45 14 -73t34.5 -38.5t40.5 -15.5 t34 -11t14 -18v-12h-1653z" />
<glyph unicode="&#x449;" horiz-adv-x="1763" d="M49 0v12q0 11 10 17t25.5 8.5t33 11t33 21.5t25.5 42t10 70v527q0 49 -14 80.5t-33.5 43.5t-39.5 18t-34 12t-14 18v12h533v-14q0 -12 -11 -18.5t-26 -12t-30.5 -17t-26.5 -42t-11 -78.5q0 -49 1 -337.5t1 -336.5h246v663q0 51 -10.5 84t-25 45.5t-29 19t-25 12.5 t-10.5 18v14h499v-14q0 -11 -11 -17t-26.5 -11.5t-31 -15.5t-26.5 -37.5t-11 -70.5v-690h250v663q0 52 -10 85t-25 45t-29.5 17.5t-24.5 12t-10 19.5v14h527v-14q0 -10 -10 -16.5t-25 -9t-32.5 -10.5t-32.5 -20t-25 -38t-10 -64v-684h24q110 -3 159.5 -54t49.5 -122 q0 -103 -76 -166.5t-194 -63.5q-87 0 -237 23.5t-230 23.5q-59 0 -89.5 -26t-39.5 -88h-33q0 56 10 105.5t32 95.5t64 73t99 27q81 0 177 -25.5t185 -50.5t154 -25q57 0 89 33t32 76q0 56 -38.5 91.5t-125.5 35.5h-1526z" />
<glyph unicode="&#x44a;" horiz-adv-x="1357" d="M-4 549q5 72 16.5 207.5t14.5 171.5q4 0 4 4q134 -39 385 -39h422v-12q0 -10 -10.5 -16.5t-26.5 -10t-34 -12.5t-34 -21.5t-26.5 -40.5t-10.5 -67v-133q119 14 181 14q91 0 163.5 -15t117 -42t75 -57t45 -66t20 -63.5t5.5 -55.5q0 -40 -11.5 -79t-40.5 -79t-73.5 -69.5 t-117 -48.5t-163.5 -19h-629v12q0 10 10 15.5t25.5 7.5t33.5 10t33.5 20.5t25.5 41.5t10 71q0 112 -1.5 339t-1.5 339q-57 0 -96 -5t-81 -20.5t-73 -45t-61 -79.5t-57 -122q-8 -21 -14 -28t-17 -7h-8zM696 166q0 -66 19 -99.5t78 -33.5h18q83 0 132.5 71t49.5 172 q0 123 -54.5 198t-172.5 75q-30 0 -70 -6v-377z" />
<glyph unicode="&#x44b;" horiz-adv-x="1699" d="M45 0v12q0 12 14 18t33.5 11.5t39.5 17t34 42t14 77.5v535q0 40 -10 68t-25 40.5t-32.5 21.5t-32.5 11.5t-25 9t-10 17.5v12h576v-12q0 -13 -15 -19.5t-36.5 -12t-43 -16t-36.5 -38t-15 -70.5v-141q119 14 182 14q107 0 188 -22.5t124.5 -55t71 -76t35 -77t7.5 -66.5 q0 -42 -10.5 -81t-39.5 -80.5t-73.5 -71.5t-119.5 -49t-172 -19h-623zM475 162q0 -62 19.5 -96.5t74.5 -34.5h15q47 0 83.5 21.5t58.5 58t33 81t11 93.5q0 119 -57 194.5t-166 75.5q-3 0 -72 -6v-387zM1071 0v12q0 12 14.5 18.5t35 12t40.5 16.5t34.5 41.5t14.5 77.5v533 q0 40 -10.5 68.5t-25.5 41t-33.5 21t-33.5 11.5t-25.5 9.5t-10.5 18.5v12h578v-12q0 -12 -10.5 -19t-26.5 -10t-35 -11t-35 -20t-26.5 -38.5t-10.5 -65.5v-545q0 -45 15 -73.5t36 -39t42 -16t36 -12t15 -19.5v-12h-578z" />
<glyph unicode="&#x44c;" horiz-adv-x="1130" d="M37 0v12q0 12 14 18t34 11.5t40.5 17t34.5 42t14 77.5v535q0 47 -14 77.5t-34 42t-40.5 17.5t-34.5 12.5t-14 18.5v12h575v-12q0 -13 -15 -19.5t-36 -12t-42.5 -16t-36.5 -38t-15 -70.5v-141q119 14 182 14q107 0 188.5 -22.5t125 -55t70.5 -76t34.5 -77t7.5 -66.5 q0 -42 -10.5 -81t-39.5 -80t-74 -71.5t-120 -49.5t-172 -19h-622zM467 158q0 -127 94 -127h14q91 0 139 75t48 179q0 120 -57 195t-166 75q-15 0 -40 -2.5t-32 -3.5v-391z" />
<glyph unicode="&#x44d;" horiz-adv-x="999" d="M35 387h10q19 0 26.5 -15t22.5 -71q35 -134 105.5 -213.5t177.5 -79.5q65 0 112 34t74.5 97t40 142.5t12.5 179.5q-22 -41 -58.5 -63.5t-74.5 -22.5q-39 0 -92.5 18.5t-75.5 18.5q-44 0 -71 -37l-25 10q25 74 65 106.5t97 32.5q35 0 99 -14t91 -14q28 0 45 20 q-6 169 -67 267t-182 98q-68 0 -121 -39q43 -46 43 -113q0 -60 -32.5 -101.5t-96.5 -41.5q-51 0 -80 30t-29 80q0 37 19.5 74.5t60 73.5t117.5 59t178 23q238 0 373 -129.5t135 -333.5q0 -149 -73 -262.5t-193.5 -171.5t-268.5 -58q-152 0 -282 62l-41 -70q-1 0 -15.5 1 t-15.5 1z" />
<glyph unicode="&#x44e;" horiz-adv-x="1744" d="M51 0v12q0 12 14 18t34 11.5t40.5 17t34.5 42t14 77.5v533q0 48 -14 78.5t-34 42.5t-40.5 18t-34.5 12.5t-14 18.5v12h578v-12q0 -11 -11 -18t-27.5 -10t-35.5 -11t-35.5 -20t-27.5 -39t-11 -66v-236h172q8 193 142 319t368 126q106 0 193 -25.5t146 -69t99 -104 t58 -128.5t18 -144q0 -96 -32.5 -181t-94.5 -152.5t-162.5 -107t-226.5 -39.5q-128 0 -227 37t-159 102.5t-90.5 148.5t-31.5 181h-172v-272q0 -55 23 -85.5t51 -37t51 -15t23 -22.5v-12h-578zM969 453q0 -97 8.5 -171.5t29 -141t61 -102.5t99.5 -36q195 0 195 444 q0 98 -8.5 172.5t-29 139.5t-61.5 100t-100 35q-55 0 -94.5 -37.5t-60.5 -103.5t-30 -139t-9 -160z" />
<glyph unicode="&#x44f;" horiz-adv-x="1148" d="M-8 0l4 31q57 3 87.5 39.5t92.5 165.5q22 47 41 75.5t49.5 57.5t74.5 45t105 20v8q-139 4 -222 63t-83 152q0 69 33 116.5t98 73t144 36t186 10.5h502v-14q0 -12 -14.5 -19t-35 -13t-40.5 -17.5t-34.5 -40.5t-14.5 -74v-541q0 -45 14 -73.5t33.5 -40t39.5 -17.5t34 -12.5 t14 -18.5v-12h-568v12q0 12 14.5 17.5t35 12t41 19.5t35 47.5t14.5 88.5v227h-31q-65 0 -101 -34.5t-71 -133.5q-15 -44 -23.5 -66t-24.5 -58t-29 -54.5t-34.5 -42t-45.5 -35t-56.5 -19.5t-71.5 -8q-100 0 -192 27zM426 655q0 -90 50.5 -144t144.5 -54h51v399h-54 q-91 0 -141.5 -56t-50.5 -145z" />
<glyph unicode="&#x451;" horiz-adv-x="1079" d="M68 446q0 100 36 187t100.5 151.5t161.5 102t212 37.5q201 0 322.5 -119.5t121.5 -292.5l-16 -16h-631q0 -422 319 -422q151 0 293 100l17 -16q-152 -183 -416 -183q-247 0 -383.5 131.5t-136.5 339.5zM213 1247q0 56 40 95.5t97 39.5t97 -39.5t40 -95.5q0 -58 -40 -98.5 t-97 -40.5t-97 40.5t-40 98.5zM377 530l366 15v55q0 71 -15.5 134t-56.5 111t-102 48q-58 0 -100.5 -49.5t-64.5 -129t-27 -184.5zM618 1247q0 56 39.5 95.5t96.5 39.5q58 0 98.5 -39.5t40.5 -95.5q0 -59 -40.5 -99t-98.5 -40q-57 0 -96.5 40.5t-39.5 98.5z" />
<glyph unicode="&#x452;" horiz-adv-x="1202" d="M4 1432v14l426 55q7 -3 10 -10v-334h344v-37h-344v-147q0 -147 -30 -248q1 0 3.5 -1t4.5 -1q43 68 103.5 110t111 55t102.5 13q103 0 181.5 -49t123 -131.5t66.5 -178t22 -200.5q0 -140 -33 -269t-94.5 -232.5t-160 -165.5t-219.5 -62q-34 0 -67 6t-68 20t-56.5 44 t-21.5 73q0 51 32 83t78 32q54 0 87.5 -38.5t33.5 -94.5q0 -42 -14 -86h2q94 33 140 187.5t46 467.5q0 169 -17.5 280t-60 173.5t-110.5 62.5q-51 0 -103 -34t-86 -89q0 -88 1 -264.5t1 -265.5q0 -39 9 -66t23 -38.5t29.5 -19t29.5 -9.5t23 -8t9 -17v-12h-551v12q0 12 14 17 t33.5 10t39.5 16t34 42t14 81v942h-125v37h125v117q0 40 -10.5 67.5t-26 39t-34 18.5t-34 9t-26 7.5t-10.5 16.5z" />
<glyph unicode="&#x453;" horiz-adv-x="944" d="M45 881v12h442q283 0 406 35l33 -379q-2 0 -5.5 -1t-5.5 -1q-12 0 -18 8t-12 29q-18 55 -40 97.5t-44.5 71t-53.5 48.5t-57 30.5t-65.5 16t-68.5 7t-75 1.5v-692q0 -37 10.5 -62.5t26 -36.5t33.5 -18.5t33.5 -9.5t26 -8t10.5 -17v-12h-570v12q0 11 14 16.5t33.5 10.5 t39.5 16t34 41.5t14 77.5v539q0 57 -22 89.5t-48.5 40t-48.5 16t-22 22.5zM322 1063q71 52 121.5 110.5t73.5 102t43 80.5t43.5 56.5t60.5 19.5q48 0 74 -27.5t26 -65.5q0 -21 -14 -49t-47.5 -62.5t-81.5 -68t-123 -66t-164 -55.5z" />
<glyph unicode="&#x454;" horiz-adv-x="960" d="M68 432q0 139 62 250t184 177.5t286 66.5q76 0 133.5 -13.5t90.5 -33t53.5 -47t27 -51.5t6.5 -50q0 -47 -30.5 -78.5t-79.5 -31.5q-60 0 -91.5 37t-31.5 90q0 67 39 122q-24 7 -51 7q-130 0 -208.5 -108.5t-78.5 -297.5v-27q50 76 141 76q35 0 89 -16.5t79 -16.5 q38 0 55 33l21 -6q-17 -73 -58.5 -107t-89.5 -34q-37 0 -95.5 19.5t-84.5 19.5q-31 0 -55 -15q11 -155 89.5 -242t217.5 -87q132 0 230 57l10 -27q-153 -125 -379 -125q-236 0 -358.5 124t-122.5 335z" />
<glyph unicode="&#x455;" horiz-adv-x="950" d="M59 176q0 53 33.5 82t79.5 29q65 0 102 -43.5t37 -106.5q0 -59 -28 -108q54 -23 127 -23q83 0 140.5 45.5t57.5 128.5q0 47 -38 86t-95 65t-124 57.5t-124 62.5t-95 81t-38 111q0 132 108 207.5t283 75.5q166 0 261.5 -54.5t95.5 -142.5q-3 -50 -34.5 -79t-74.5 -29 q-60 0 -96.5 38.5t-36.5 100.5q0 60 25 114q-49 17 -93 17q-72 0 -122 -40t-50 -122q0 -38 29.5 -70t76.5 -56.5t103.5 -49t113.5 -52.5t104 -61t76.5 -82t29.5 -108q0 -91 -63 -155.5t-160.5 -93t-218.5 -28.5q-183 0 -287.5 58t-104.5 145z" />
<glyph unicode="&#x456;" horiz-adv-x="690" d="M68 854v16l419 54l11 -11v-753q0 -37 10 -61.5t25.5 -35t33 -17t33 -8.5t25.5 -7.5t10 -16.5v-14h-561v14q0 12 14 17.5t33.5 10t39.5 15t34 39t14 74.5v532q0 55 -22 84.5t-48.5 34t-48.5 11.5t-22 22zM184 1264q0 65 47 112t115 47t116 -47t48 -112q0 -69 -47.5 -117.5 t-116.5 -48.5t-115.5 48.5t-46.5 117.5z" />
<glyph unicode="&#x457;" horiz-adv-x="690" d="M-14 1233q0 56 40 95.5t97 39.5t97 -39.5t40 -95.5q0 -58 -40 -98.5t-97 -40.5t-97 40.5t-40 98.5zM68 854v16q151 12 419 54l11 -11v-753q0 -37 10 -61.5t25.5 -35t33 -17t33 -8.5t25.5 -7.5t10 -16.5v-14h-561v14q0 12 14 17.5t33.5 10t39.5 15t34 39t14 74.5v532 q0 55 -22 84.5t-48.5 34t-48.5 11.5t-22 22zM391 1233q0 56 39 95.5t96 39.5q58 0 99 -39.5t41 -95.5q0 -58 -40.5 -98.5t-99.5 -40.5q-57 0 -96 40t-39 99z" />
<glyph unicode="&#x458;" horiz-adv-x="622" d="M-166 -332q0 48 38 83.5t91 35.5q78 0 119.5 -59.5t38.5 -147.5q25 10 41 26.5t22.5 39t8.5 40.5t2 44v972q0 56 -23.5 85.5t-51.5 34t-51.5 11t-23.5 21.5v16l428 56l10 -13v-858q0 -257 -145 -383q-58 -60 -148 -99.5t-182 -39.5q-68 0 -121 35t-53 100zM170 1264 q0 65 47.5 112t114.5 47q70 0 117 -47t47 -112q0 -70 -47 -118t-117 -48q-67 0 -114.5 48.5t-47.5 117.5z" />
<glyph unicode="&#x459;" horiz-adv-x="1636" d="M-2 106q0 45 32.5 78t84.5 33q68 0 107.5 -49t47.5 -125q166 120 166 657q0 45 -12.5 75.5t-32 44t-41.5 22t-41.5 10.5t-32 8t-12.5 17v16h862v-14q0 -12 -11 -18t-27 -8t-35.5 -9t-35.5 -18.5t-27 -38t-11 -66.5v-137q119 14 176 14q107 0 188.5 -22.5t125.5 -55 t71.5 -76t35 -77t7.5 -66.5q0 -42 -11.5 -82t-41 -80.5t-75 -70.5t-120.5 -49t-170 -19h-618v12q0 11 10 17t25.5 8t33 9t33 18.5t25.5 39.5t10 68v686h-203q-2 -43 -5 -131q-4 -106 -7 -160.5t-12 -148.5t-21.5 -144.5t-36.5 -116.5t-56 -99t-80.5 -57t-110.5 -24 q-59 0 -106.5 36t-47.5 93zM979 158q0 -62 19 -94.5t75 -32.5h10q61 0 104.5 37.5t63 94t19.5 122.5q0 118 -57.5 194t-165.5 76q-13 0 -37.5 -3t-30.5 -3v-391z" />
<glyph unicode="&#x45a;" horiz-adv-x="1724" d="M45 0v12q0 13 14.5 19t34.5 11.5t40.5 16.5t35 42t14.5 81v527q0 41 -10.5 70t-25.5 41.5t-33.5 21t-33.5 11t-25.5 9t-10.5 17.5v14h551v-16q0 -13 -18.5 -20.5t-40 -13t-40 -35.5t-18.5 -83v-217h297v205q0 49 -11.5 79.5t-28.5 41.5t-34 16t-28.5 10.5t-11.5 16.5v16 h550v-14q0 -13 -14.5 -19.5t-35 -12t-41.5 -16.5t-35.5 -40.5t-14.5 -75.5v-164q119 14 170 14q107 0 188.5 -20.5t125.5 -50t71.5 -70t35 -72.5t7.5 -65q0 -41 -11 -79t-39.5 -76.5t-73 -67t-117.5 -46.5t-166 -18h-609v12q0 10 9 15.5t23 8t29.5 10t29.5 20t23 40.5t9 68 v297h-297v-305q0 -37 8.5 -63t21.5 -37t28.5 -18.5t28.5 -10t21.5 -8.5t8.5 -17v-12h-551zM1071 156q0 -61 18 -93t74 -32q92 0 142.5 68t50.5 173q0 119 -54.5 184.5t-164.5 65.5q-26 0 -66 -4v-362z" />
<glyph unicode="&#x45b;" horiz-adv-x="1236" d="M29 0v12q0 12 14.5 17t35 10t41.5 16t35.5 42t14.5 81v946h-133v35h133v115q0 40 -10.5 67.5t-26 39t-34 18.5t-34 9t-26 7.5t-10.5 16.5v14l426 55l10 -10v-332h332v-35h-332q0 -23 -1 -74t-1 -77q0 -138 -31 -230q1 0 4 -1t4 -1q60 95 150 138t190 43q56 0 104.5 -15 t89 -46t64 -86.5t23.5 -129.5v-475q0 -46 14.5 -75t35 -39.5t40.5 -15t34.5 -10.5t14.5 -18v-12h-549v12q0 12 12 17.5t29.5 10.5t34.5 16t29 42t12 80v512q0 62 -37 107t-82 45q-52 0 -105 -34.5t-83 -90.5v-547q0 -46 12.5 -75t29.5 -39.5t34.5 -15t30 -10.5t12.5 -18v-12 h-551z" />
<glyph unicode="&#x45c;" horiz-adv-x="1175" d="M47 0v12q0 12 14.5 18t34.5 12.5t40.5 18.5t35 42t14.5 77v531q0 57 -21.5 90t-47 40.5t-47 15.5t-21.5 22v14h567v-16q0 -11 -14 -17t-34 -13t-39.5 -20t-33.5 -47t-14 -86v-190h31q85 0 136 48t95 148l27 74q26 69 67 109.5t111 40.5q66 0 105 -37t39 -86 q0 -53 -36 -87t-93 -34q-47 0 -88 23.5t-62 68.5q-8 -17 -23.5 -54.5t-27.5 -63.5t-31 -57.5t-43.5 -55.5t-54.5 -39v-8h29q111 0 177.5 -44t106.5 -135q8 -19 24 -57.5t24.5 -58t23 -50t27.5 -46.5t30 -33.5t37 -25.5t43 -9l6 -35q-84 -23 -190 -23q-71 1 -122.5 28.5 t-79 71t-47 96t-34.5 104.5t-33 95t-50.5 70t-80.5 27h-43v-299q0 -42 13.5 -70.5t33.5 -40t39.5 -18t33 -13t13.5 -16.5v-12h-567zM440 1063q71 52 121.5 110.5t73.5 102t43 80.5t43.5 56.5t60.5 19.5q48 0 74.5 -27.5t26.5 -65.5q0 -21 -14 -49t-47.5 -62.5t-81.5 -68 t-123 -66t-164 -55.5z" />
<glyph unicode="&#x45e;" horiz-adv-x="1130" d="M0 877v14h610v-17q0 -12 -21 -20t-46.5 -12.5t-46.5 -22.5t-21 -49q0 -22 19 -68l186 -409h4l141 373q25 64 25 94q0 31 -14.5 50.5t-35 27t-41.5 11t-35.5 9t-14.5 16.5v17h409v-14q0 -9 -16.5 -14t-45 -15.5t-61.5 -30.5t-71.5 -70t-69.5 -124l-301 -725 q-31 -75 -67.5 -136t-82.5 -112.5t-103 -80t-120 -28.5q-81 0 -128.5 39.5t-47.5 104.5q0 53 39.5 89t95.5 36q77 0 126 -54.5t59 -124.5q89 49 196 279l29 74h-27l-346 723q-22 46 -48.5 76.5t-48 42t-40 18.5t-29 13.5t-10.5 19.5zM344 1268q0 52 35.5 86.5t89.5 34.5 q59 0 90 -47t31 -113q0 -43 -17 -82q116 0 221.5 53t186.5 148l23 -17q-49 -72 -111 -123t-124 -75t-111 -33.5t-95 -9.5q-104 0 -161.5 53t-57.5 125z" />
<glyph unicode="&#x45f;" horiz-adv-x="1269" d="M43 0v12q0 11 10.5 17t25.5 8.5t33.5 11t33.5 21.5t25.5 42t10.5 70v527q0 49 -14.5 80.5t-35 43.5t-40.5 18t-34.5 12t-14.5 18v12h539v-14q0 -10 -11 -15t-27 -11t-31.5 -18.5t-26.5 -44t-11 -79.5v-674h318v663q0 50 -10.5 83.5t-25.5 47.5t-30.5 21t-26 12.5 t-10.5 14.5v14h533v-14q0 -14 -21.5 -21.5t-46.5 -14t-46.5 -37t-21.5 -85.5v-549q0 -55 22 -86t48 -37.5t48 -14.5t22 -22v-12h-535q-22 -7 -34.5 -25t-12.5 -38q0 -22 28.5 -97.5t28.5 -128.5q0 -82 -57.5 -117.5t-146.5 -35.5q-78 0 -133 22l6 31q148 -20 164 108 q2 20 5.5 59.5t6 61t9 52t15.5 48.5t26 35t40 25h-594z" />
<glyph unicode="&#x490;" horiz-adv-x="1232" d="M66 1364v16h702q88 0 149 14t112.5 51t89 101t69.5 164q12 41 35 41q10 0 12 -2l-49 -442q-2 0 -2 -2q-116 36 -379 36h-219v-1108q0 -56 13.5 -95t34 -56.5t44.5 -28.5t44.5 -14t34 -9.5t13.5 -17.5v-12h-700v12q0 12 13.5 18.5t33.5 10t43 17.5t43 37.5t33.5 74 t13.5 121.5v889q0 54 -19 88.5t-46 47t-54 18t-46 11.5t-19 19z" />
<glyph unicode="&#x491;" horiz-adv-x="903" d="M43 881v12h483q69 0 115 9.5t87.5 36.5t73 76t60.5 128q9 24 15 30.5t18 6.5h8l-31 -346l-2 -3q-161 25 -321 25h-70v-684q0 -38 9.5 -64.5t24 -38.5t31 -20.5t31 -11.5t24 -9t9.5 -16v-12h-557v12q0 10 10 16t24.5 9t32 11.5t32 21.5t24.5 41.5t10 68.5v533 q0 57 -22 89.5t-48.5 40t-48.5 16t-22 22.5z" />
<glyph unicode="&#x4d9;" horiz-adv-x="1079" d="M68 395l16 15h629q0 206 -76.5 309.5t-239.5 103.5q-62 0 -145 -29t-146 -71l-18 18q72 86 182 134.5t242 48.5q247 0 378.5 -127.5t131.5 -337.5q0 -205 -140 -344.5t-370 -139.5q-102 0 -186.5 34t-140.5 92t-86.5 134t-30.5 160zM344 360q0 -45 3 -85.5t13.5 -92 t28.5 -88.5t51 -62.5t78 -25.5q59 0 102.5 51t65.5 132t27 186q-185 -6 -369 -15z" />
<glyph unicode="&#x2000;" horiz-adv-x="918" />
<glyph unicode="&#x2001;" horiz-adv-x="1837" />
<glyph unicode="&#x2002;" horiz-adv-x="918" />
<glyph unicode="&#x2003;" horiz-adv-x="1837" />
<glyph unicode="&#x2004;" horiz-adv-x="612" />
<glyph unicode="&#x2005;" horiz-adv-x="459" />
<glyph unicode="&#x2006;" horiz-adv-x="306" />
<glyph unicode="&#x2007;" horiz-adv-x="306" />
<glyph unicode="&#x2008;" horiz-adv-x="229" />
<glyph unicode="&#x2009;" horiz-adv-x="367" />
<glyph unicode="&#x200a;" horiz-adv-x="102" />
<glyph unicode="&#x2010;" horiz-adv-x="667" d="M70 459v92h528v-92h-528z" />
<glyph unicode="&#x2011;" horiz-adv-x="667" d="M70 459v92h528v-92h-528z" />
<glyph unicode="&#x2012;" horiz-adv-x="667" d="M70 459v92h528v-92h-528z" />
<glyph unicode="&#x2013;" horiz-adv-x="1155" d="M78 479v80h999v-80h-999z" />
<glyph unicode="&#x2014;" horiz-adv-x="1771" d="M78 479v80h1614v-80h-1614z" />
<glyph unicode="&#x2018;" horiz-adv-x="491" d="M111 1073q0 91 60 206t148 187l21 -18q-70 -65 -120 -153.5t-56 -153.5q45 26 88 26q57 0 95 -36t38 -91q0 -51 -37 -89t-92 -38q-69 0 -107 46t-38 114z" />
<glyph unicode="&#x2019;" horiz-adv-x="503" d="M104 1343q0 51 37 89t92 38q69 0 107.5 -45.5t38.5 -113.5q0 -90 -60.5 -206t-148.5 -190q-3 4 -20 21q70 65 120 153.5t56 153.5q-45 -26 -88 -26q-57 0 -95.5 35.5t-38.5 90.5z" />
<glyph unicode="&#x201a;" horiz-adv-x="503" d="M121 121q0 51 36 89t93 38q69 0 106 -45.5t37 -114.5q0 -89 -59.5 -204t-147.5 -189q-3 3 -7 6.5t-7 6.5t-6 7q69 66 119.5 154t56.5 151q-41 -24 -88 -24q-57 0 -95 35t-38 90z" />
<glyph unicode="&#x201c;" horiz-adv-x="802" d="M104 1081q0 89 60 204.5t147 189.5q12 -9 21 -21q-69 -64 -119 -153t-55 -154q39 27 86 27q58 0 95.5 -35.5t37.5 -91.5q0 -51 -36 -88t-93 -37q-69 0 -106.5 45t-37.5 114zM428 1081q0 89 60 204.5t147 189.5q10 -7 20 -21q-69 -64 -119 -153t-55 -154q39 27 86 27 q58 0 95.5 -35.5t37.5 -91.5q0 -51 -36 -88t-93 -37q-69 0 -106 44.5t-37 114.5z" />
<glyph unicode="&#x201d;" horiz-adv-x="815" d="M109 1333q0 51 36 89t93 38q69 0 106 -45.5t37 -114.5q0 -91 -59.5 -206t-147.5 -187l-20 19q69 66 119.5 154t56.5 153q-47 -27 -88 -27q-57 0 -95 36t-38 91zM432 1333q0 51 36 89t93 38q69 0 106.5 -46t37.5 -114q0 -91 -59.5 -206t-147.5 -187l-21 19 q69 66 119.5 154t56.5 153q-46 -27 -88 -27q-57 0 -95 36t-38 91z" />
<glyph unicode="&#x201e;" horiz-adv-x="815" d="M104 123q0 51 36.5 88t92.5 37q69 0 107.5 -45.5t38.5 -114.5q0 -89 -60.5 -204t-148.5 -187l-20 18q69 65 119.5 154.5t56.5 153.5q-39 -25 -88 -25q-58 0 -96 34.5t-38 90.5zM428 123q0 51 36.5 88t92.5 37q69 0 107 -45.5t38 -114.5q0 -89 -60 -204t-148 -187l-21 18 q69 65 119.5 154.5t56.5 153.5q-39 -25 -88 -25q-58 0 -95.5 34.5t-37.5 90.5z" />
<glyph unicode="&#x2022;" horiz-adv-x="927" d="M164 479q0 126 87 213.5t212 87.5q126 0 213.5 -87.5t87.5 -213.5q0 -125 -87.5 -212t-213.5 -87q-125 0 -212 87t-87 212z" />
<glyph unicode="&#x2026;" horiz-adv-x="1429" d="M94 131q0 63 43 106.5t105 43.5q63 0 106 -43.5t43 -106.5q0 -62 -43 -104.5t-106 -42.5q-62 0 -105 43t-43 104zM559 131q0 63 44 106.5t106 43.5q63 0 106 -43.5t43 -106.5q0 -62 -43 -104.5t-106 -42.5q-62 0 -106 43t-44 104zM1036 131q0 63 43.5 106.5t106.5 43.5 q62 0 105.5 -43.5t43.5 -106.5q0 -61 -43.5 -104t-105.5 -43q-63 0 -106.5 42.5t-43.5 104.5z" />
<glyph unicode="&#x202f;" horiz-adv-x="367" />
<glyph unicode="&#x2039;" horiz-adv-x="651" d="M94 426q0 35 51 80l385 336l21 -19q-42 -67 -128 -200t-128 -199l252 -404l-23 -18l-377 344q-53 47 -53 80z" />
<glyph unicode="&#x203a;" horiz-adv-x="651" d="M94 823l21 19l385 -336q51 -45 51 -80q0 -33 -53 -80l-377 -344l-23 18l252 404q-42 66 -128 199t-128 200z" />
<glyph unicode="&#x205f;" horiz-adv-x="459" />
<glyph unicode="&#x20ac;" d="M39 582v39h897v-39h-479q3 -268 98.5 -413.5t280.5 -145.5q84 0 135 20q-35 59 -35 141q0 75 34.5 124.5t106.5 49.5q47 0 83 -35t36 -92q0 -101 -116 -176t-312 -75q-277 0 -445.5 162.5t-185.5 439.5h-98zM39 745v39h104q35 259 204 422.5t425 163.5q177 0 284 -72.5 t107 -171.5q0 -57 -36 -92t-83 -35q-71 0 -105 47t-34 119q0 76 33 144q-61 20 -127 20q-85 0 -152 -44.5t-108 -122.5t-63.5 -173t-26.5 -205h475v-39h-897z" />
<glyph unicode="&#x2122;" horiz-adv-x="1724" d="M66 1169l24 230q140 -19 324 -19q201 0 299 19l24 -230l-8 -2q-8 -1 -13.5 5t-8.5 18q-37 107 -72.5 136.5t-116.5 29.5h-35q0 -94 -1 -282t-1 -281q0 -30 13.5 -45.5t29.5 -17.5t29.5 -6t13.5 -13v-11h-331v11q0 10 13 14.5t28.5 7t28.5 18t13 44.5v561h-34 q-81 0 -116.5 -29.5t-72.5 -136.5q-3 -12 -8.5 -18t-13.5 -5zM741 700v11q0 10 17 14.5t37.5 7t37.5 21t17 51.5v457q0 38 -14.5 58.5t-31.5 24t-31.5 9t-14.5 16.5v10h250q36 -83 109.5 -247.5t109.5 -247.5q135 340 194 495h238v-12q0 -9 -13 -13t-29 -7t-29 -22t-13 -54 v-465q0 -35 13.5 -53.5t29.5 -21t29.5 -6.5t13.5 -13v-13h-330v13q0 8 13 12.5t29 7.5t29 19t13 45v506q-20 -51 -105.5 -271t-133.5 -338l-29 -4l-270 604v-491q0 -33 17 -50.5t38 -20.5t38 -7.5t17 -13.5v-11h-246z" />
<glyph unicode="&#x25fc;" horiz-adv-x="890" d="M0 0v891h891v-891h-891z" />
</font>
</defs>
</svg>
